<svg xmlns="http://www.w3.org/2000/svg" width="69" height="38" fill="none" xmlns:v="https://vecta.io/nano"><path fill-rule="evenodd" d="M38.26 2.726c-.94-.481-2.103-.623-3.403-.382-.801.149-1.656.444-2.542.894-.851.434-1.665.977-2.437 1.607l3.131 1.603c.772-.63 1.586-1.174 2.436-1.606.886-.451 1.74-.746 2.542-.895 1.3-.241 2.463-.099 3.403.382l-3.13-1.603z" fill="#f0a72e"/><mask id="A" maskUnits="userSpaceOnUse" x="0" y="0" width="31" height="35" mask-type="alpha"><path fill-rule="evenodd" d="M0 .226h30.303v34.262H0V.226z" fill="#fff"/></mask><g mask="url(#A)"><path fill-rule="evenodd" d="M27.173.8c-1.086-.556-2.432-.72-3.934-.441-.928.172-1.916.513-2.942 1.035-1.706.869-3.308 2.131-4.698 3.623-2.556 2.746-4.392 6.272-4.836 9.554-.767.152-1.589.442-2.433.871-1.471.748-2.852 1.835-4.049 3.12C1.716 21.315-.01 24.973 0 28.158c.008 2.323.937 3.958 2.437 4.726l3.13 1.604c-1.501-.769-2.43-2.404-2.437-4.726-.01-3.185 1.717-6.843 4.28-9.595 1.198-1.285 2.578-2.372 4.05-3.12.842-.43 1.665-.719 2.432-.871.444-3.282 2.281-6.808 4.837-9.554 1.389-1.492 2.991-2.755 4.698-3.623 1.025-.522 2.013-.863 2.941-1.035 1.504-.279 2.848-.116 3.935.441L27.173.8z" fill="#f0a72e"/></g><g fill-rule="evenodd"><path d="M23.426 2.998c4.841-2.464 8.864-.902 9.582 3.45.772-.63 1.586-1.174 2.436-1.606 4.614-2.348 8.369-.462 8.384 4.21s-3.716 10.367-8.33 12.715L11.513 33.972c-4.621 2.351-8.369.462-8.384-4.211s3.708-10.363 8.329-12.715c.844-.43 1.666-.719 2.433-.871.686-5.067 4.687-10.711 9.535-13.178" fill="#ffca00"/><path d="M62.705 5.02c-.94-.481-2.103-.623-3.403-.382-.803.149-1.656.444-2.543.894-.85.433-1.664.977-2.436 1.607l3.13 1.603c.772-.63 1.586-1.174 2.437-1.606.885-.452 1.74-.746 2.541-.895 1.301-.241 2.463-.099 3.403.382L62.705 5.02zM51.614 3.09c-1.086-.556-2.432-.72-3.934-.442-.928.172-1.915.513-2.938 1.034-1.701.865-3.298 2.124-4.685 3.614-2.558 2.749-4.397 6.281-4.843 9.567-.774.156-1.589.442-2.439.875-1.469.747-2.848 1.834-4.045 3.118-2.565 2.751-4.294 6.412-4.284 9.596.008 2.322.938 3.955 2.437 4.724l3.13 1.602c-1.5-.768-2.431-2.401-2.438-4.723-.01-3.185 1.72-6.845 4.284-9.596 1.198-1.285 2.577-2.371 4.045-3.118.852-.433 1.666-.719 2.44-.875.445-3.286 2.285-6.818 4.843-9.567 1.386-1.49 2.984-2.749 4.685-3.615 1.023-.52 2.01-.861 2.938-1.033 1.504-.279 2.848-.115 3.935.442l-3.13-1.603z" fill="#d43e3e"/><path d="M47.871 5.285c4.841-2.463 8.865-.894 9.581 3.458.772-.63 1.586-1.174 2.437-1.606 4.614-2.348 8.368-.462 8.383 4.21s-3.715 10.368-8.329 12.715L35.958 36.267c-4.613 2.348-8.368.462-8.383-4.211s3.715-10.368 8.329-12.716c.851-.432 1.666-.718 2.439-.875.686-5.066 4.687-10.717 9.528-13.181z" fill="#fa7564"/></g></svg>