<svg xmlns="http://www.w3.org/2000/svg" xmlns:xlink="http://www.w3.org/1999/xlink" width="668" height="518" fill="none" xmlns:v="https://vecta.io/nano"><style><![CDATA[.B{fill:#9096ba}.C{fill:#c1bed4}.D{fill:#99afd4}.E{fill:#d8d6cc}.F{fill:#fff}.G{fill:#250f8a}.H{fill:#e9f1f4}.I{fill:#000}.J{fill:#1e1e1e}.K{fill:#e0ebef}.L{fill:#ffd6bb}.M{opacity:.5}.N{fill:#bcbcbc}.O{fill:#361ea2}.P{fill:#e8f6fd}.Q{fill-rule:evenodd}.R{fill:#5740c0}.S{fill:#a0acd7}]]></style><mask id="A" maskUnits="userSpaceOnUse" x="101" y="284" width="516" height="234" mask-type="alpha"><path d="M101.456 284.596H616.065V517.554H101.456V284.596Z" class="F Q"/></mask><g mask="url(#A)" class="Q"><path d="M149.31 418.124c-16.513 16.54-47.875 13.593-47.854 39.156.018 22.671 26.17 33.273 44.786 39.89 61.23 21.758 110.98 29.093 170.594 7.045 41.176-15.22 258.692-138.592 288.819-158.068 41.507-26.842-50.979-52.267-103.751-60.791C424.67 272.877 149.31 418.124 149.31 418.124z" fill="#fa7564"/></g><g class="Q"><path d="M96.515 151.777c-27.511 34.665-16.94 65.677-12.145 103.751 2.901 23.03 5.56 64.185 31.305 79.133 23.97 13.924 63.918 13.224 86.485 3.008 65.448-29.64 173.189-94.831 226.78-137.792 46.736-37.461 39.535-85.13 29.957-133.33-4.421-22.237-29.615-62.148-61.75-65.529C361.77-2.707 127.518 112.721 96.515 151.777z" fill="#02ecf1"/><path d="M98.428 293.067v.919l15.206 8.298 74.606 40.658v-10.7l-89.812-48.956v9.781z" class="K"/><path d="M187.894 332.971l107.398-60.053s9.493-5.888 23.317-13.057c9.717-5.026 17.291-9.648 29.521-6.577 6.143 1.575 19.135 8.89 19.135 8.89l101.298 54.858 1.648-.927 86.096-48.502-159.478-85.164c-26.962-14.891-46.339-22.919-77.899-18.059-17.317 2.885-52.942 24.418-52.942 24.418l-33.543 18.724-133.918 74.923v.927l89.368 49.599zm2.954 86.471l.587-78.587-3.541 1.975-74.237-41.188v74.637l77.191 43.163z" class="F"/><path d="M464.849 324.92l3.609 1.906 1.755-.954v-9.769l-1.652.931-101.298-54.862s-12.987-7.311-19.134-8.886c-12.23-3.072-19.801 1.547-29.521 6.573-13.825 7.17-23.317 13.057-23.317 13.057l-107.399 60.053v10.841l3.545-1.979 8.019-4.502 95.835-53.576s9.492-5.86 23.317-13.029c9.72-5.029 17.291-9.672 29.521-6.574 6.147 1.545 19.134 8.859 19.134 8.859l12.326 6.722 8.041 4.308 69.171 36.638 8.048 4.243z" class="K"/><path d="M191.435 341.832l-.587 78.587 8.037-4.453.57-78.636-8.02 4.502z" class="H"/><path d="M388.146 354.053l-.171-24.225-.195-26.159-.153-19.631-8.037-4.308.562 78.732 8.069 4.453-.075-8.862z" fill="#78909b"/><path d="M387.629 284.04l.153 19.63 69.168 38.279-.146-21.271-69.175-36.638z" class="K"/><path d="M456.948 341.949l-69.168-38.278.196 26.156 69.168 38.281-.196-26.159z" class="H"/><path d="M396.388 358.365l60.903 31.922-.149-22.177-69.165-38.282.171 24.225 8.24 4.312z" class="K"/><path d="M388.146 354.053l.075 8.862 8.165-4.55-8.24-4.312z" fill="#36464f"/><path d="M465.415 403.436l-.566-78.515-8.047-4.243.146 21.271.195 26.159.15 22.181.078 8.69 8.044 4.457z" class="H"/><path d="M464.849 324.92l.566 78.515 77.212-43.166v-74.275l-72.414 39.878-1.755.955-3.609-1.907z" class="F"/><path d="M556.306 278.467v-10.865l-86.092 48.503v9.765l72.41-39.875 13.682-7.528z" class="H"/><g fill="#1e5f30"><path d="M468.933 206.517c.808.603 1.491 1.258 1.801 1.937l-1.801-1.937zm18.141 14.759l-.271.055c-.295.052-.63.065-.964.117a7.2 7.2 0 0 1 1.235-.172zm-8.443-1.055l.245.668-.067.228-.178-.896zm-.014-.042c-.296-.848-.538-1.741-.73-2.689l.73 2.689zm-.584 10.756l.117.841a5.85 5.85 0 0 0-.217-.83c.032 0 .064-.011.1-.011z"/><path d="M478.033 230.935c-.036 0-.068.01-.1.01-.121-.382-.277-.775-.477-1.137l.385-.045.192 1.172z"/></g><path d="M478.666 238.928h-.011c0 .762-.57 1.689-.335 2.289.321.937 2.022 1.258 2.599.238.213-.504-.043-1.01-.2-1.524l-.32-4.102c4.873-.055 9.539 1.486 11.899 4.236.27.338.519.659.705.993-1.018 2.096-3.41 3.971-6.859 5.088-6.702 2.172-14.878.724-18.263-3.237a5.87 5.87 0 0 1-.708-1.003c1.018-2.089 3.402-3.947 6.858-5.074 1.474-.479 3.026-.775 4.578-.903a24.24 24.24 0 0 1 .057 2.999z" fill="#795549"/><path d="M478.151 231.795l.459 4.133a20.44 20.44 0 0 0-4.577.903c-3.46 1.131-5.844 2.989-6.862 5.078-2.225-3.754.544-8.104 6.688-10.093 1.317-.428 2.687-.721 4.072-.869.092.266.167.548.22.828v.02zm13.966 3.249c1.63 1.916 1.855 4.057.887 6.015-.189-.335-.435-.655-.705-.993-2.36-2.751-7.026-4.292-11.899-4.237l-.391-5.015c4.943-.093 9.706 1.444 12.108 4.23z" fill="#d64527"/><path d="M492.117 235.044c-2.402-2.786-7.165-4.323-12.108-4.23l-.054-1.189c5.845-.141 11.486 1.665 14.305 4.946 1.509 1.765 1.99 3.702 1.57 5.574-.691 2.999-3.727 5.819-8.543 7.377-7.823 2.537-17.373.841-21.331-3.775-.875-1.02-1.395-2.099-1.623-3.181-.729-3.833 2.513-7.804 8.603-9.769 1.463-.476 2.986-.796 4.521-.989.199.362.352.755.476 1.141a20.37 20.37 0 0 0-4.075.865c-6.14 1.992-8.912 6.339-6.688 10.093.189.341.431.679.708 1.003 3.389 3.96 11.561 5.408 18.263 3.236 3.453-1.12 5.845-2.992 6.863-5.087.968-1.958.743-4.099-.887-6.015z" fill="#f48967"/><path d="M491.77 258.699c-.499 2.234-2.752 4.312-6.343 5.474-5.791 1.879-12.881.627-15.825-2.809a5.04 5.04 0 0 1-.979-1.613l-4.289-19.186c.225 1.082.748 2.161 1.623 3.185 3.955 4.612 13.508 6.311 21.328 3.771 4.819-1.558 7.852-4.378 8.546-7.377h.01l-4.071 18.555z" fill="#f27048"/><path d="M474.032 209.326c-.487-.69-1.007-1.334-1.552-1.882l.043-.045c-1.801-2.247-5.008-3.961-7.421-5.594-2.677-1.872-6.987-3.902-10.699-3.902-.67 0-1.317.075-1.94.213l2.908.7c1.299.472 2.765.786 4.054 1.344 2.278.935 4.054 2.744 6.086 4.151.78.53 2.214 1.302 3.41 2.195.658.648 1.26 1.293 1.812 1.951a25.45 25.45 0 0 1 3.797 5.998c-2.573-2.937-5.164-4.485-9.183-4.96-5.182-.621-10.695-.945-14.749-4.547-2.755-2.52-5.521-8.017-.979-10.21 3.566-1.73 9.083-.158 12.653.628 4.207 1.092 8.429 2.512 10.372 6.59 1.114 2.279 1.264 4.895 1.388 7.37zm-23.601 22.308c-2.591-2.506-1.299-7.067 1.128-9.424 4.108-3.795 14.91-4.216 18.811.51-1.21-.273-2.513-.414-3.89-.466v.045c-2.267.076-4.207 0-6.4.783-3.107.999-7.941 2.45-9.482 5.573 1.534-1.709 6.564-3.457 8.753-3.926 1.541-.313 3.075-.71 4.623-.944 1.054-.141 2.104.048 3.107-.121 1.346.104 2.72.431 4.04.945-2.829-.214-6.115 1.606-8.204 2.95-3.246 2.193-8.265 8.163-12.486 4.075zm52.691-9.099c1.961 4.86-2.096 9.262-7.282 7.528-3.246-1.096-5.037-5.022-7.955-6.118-1.122-.314-3.101-.772-4.232-.324a12.1 12.1 0 0 1 2.121-.938l-.014-.021c2.331-.689 5.2-.599 7.535-.286 1.676.214 3.356.673 4.919 1.458.865.473 2.32 1.314 2.911 2.151-.21-.524-.591-1.041-.968-1.461-2.378-2.678-6.545-3.247-9.941-3.506-1.089-.096-2.146.066-3.143.259a7.17 7.17 0 0 0-1.231.172h-.032c-.136.021-.271.041-.396.086-.014 0-.035.011-.049.011a11.23 11.23 0 0 0-1.189.351c3.474-6.28 16.081-6.311 18.946.638zm-11.87-15.234c-1.299.624-3.367 2.11-4.499 2.668a16.44 16.44 0 0 0-3.31 2.713c.363-.934 1.089-1.517 1.519-2.237.812-1.731.812-3.616 1.47-5.347 1.944-4.863 6.318-6.907 11.348-8.165 3.726-.786 7.453-.938 10.866.948 3.887 2.192 6.962 5.022 3.072 8.948-1.94 2.044-5.506 2.981-8.101 3.926-3.246 1.096-6.809 2.358-10.055 2.978-3.891.596-7.243-.169-10.276 2.185.851-1.161 1.911-2.268 3.207-3.302.014-.01.039-.02.05-.045 1.221-.847 2.306-1.899 3.616-2.602 1.943-1.02 3.812-2.192 5.912-2.992 3.897-1.406 8.599-2.902 12.084-5.25-2.032 0-3.93.876-5.873 1.272-1.869.314-3.367 1.193-5.157 1.831a37.71 37.71 0 0 0-5.873 2.471zm-11.877-.203c.177-2.196.587-4.344 1.213-6.388l-.103-.034c1.224-3.44 1.559-6.959 1.399-10.723-.167 2.357-1.128 5.022-1.694 7.293-.331 1.214-1.036 2.527-1.289 3.785v.021c-.68 2.058-1.171 4.412-1.399 6.842-1.466-2.237-2.623-3.785-3.068-6.563-.658-4.085-.331-9.572 2.584-13.036 2.602-2.979 8.112-2.506 10.379.947 3.891 5.722-6.592 12.347-8.022 17.856z" fill="#378e43"/><g fill="#1e5f30"><path d="M477.456 229.807c-1.214-2.378-3.645-4.174-6.307-5.198h-.025c-1.321-.513-2.698-.841-4.026-.944-1.018.169-2.071-.021-3.125.117-1.548.234-3.079.634-4.623.944-2.189.473-7.219 2.217-8.753 3.93 1.545-3.123 6.375-4.578 9.482-5.574 2.193-.786 4.133-.706 6.4-.786v-.041c1.377.052 2.68.193 3.89.465 2.865.624 5.261 1.944 7.087 4.578l.384 2.464c-.131.011-.252.035-.384.045zm22.701-5.284c.377.42.758.937.968 1.465-.591-.842-2.046-1.679-2.911-2.155-1.563-.786-3.243-1.244-4.919-1.458-2.335-.314-5.204-.4-7.535.286l.014.024a11.85 11.85 0 0 0-2.122.938c-.01 0-.024.01-.032.01-1.487.817-2.964 1.989-3.691 3.395l.104-1.83c.651-1.523 2.352-2.654 4.143-3.299.384-.137.786-.258 1.189-.355.014 0 .035-.01.049-.01l.395-.086h.032l.961-.117c.093-.024.182-.038.271-.055.997-.194 2.054-.356 3.143-.259 3.395.259 7.563.827 9.941 3.506zm-19.437 15.406c.156.518.413 1.021.199 1.527-.577 1.021-2.278.697-2.598-.237-.235-.604.334-1.527.334-2.293h.011c.046-.989.021-1.999-.057-2.998.598-.069 1.2-.09 1.79-.097l.321 4.098z"/><path d="M480.007 230.816l.392 5.015-1.791.096c-.078-1.378-.256-2.757-.455-4.133v-.02l-.121-.838c.655-.076 1.32-.11 1.975-.12z"/><path d="M477.842 229.764l2.114-.138.05 1.189-1.972.121-.192-1.172z"/><path d="M508.155 201.728c-3.485 2.348-8.187 3.84-12.084 5.25-2.1.796-3.969 1.972-5.912 2.992-1.31.7-2.396 1.755-3.616 2.602-.011.021-.036.031-.05.045-1.296 1.031-2.356 2.137-3.207 3.302-2.086 2.817-2.976 5.96-3.253 9.262-.054.621-.089 1.238-.104 1.848a40.28 40.28 0 0 0 .025 2.596c-.701.02-1.409.062-2.114.137l-.384-2.464c-.168-1.131-.324-2.248-.438-3.354-.381-3.433-1.175-6.594-2.488-9.489-.961-2.131-2.217-4.13-3.798-5.998-.309-.683-.993-1.338-1.801-1.941-1.206-.903-2.641-1.675-3.417-2.206-2.036-1.406-3.812-3.216-6.086-4.15-1.292-.558-2.759-.872-4.058-1.344-.238-.076-2.904-.7-2.904-.7a8.89 8.89 0 0 1 1.936-.214c3.712 0 8.023 2.03 10.699 3.902 2.414 1.637 5.621 3.347 7.422 5.598l-.04.041c.541.548 1.061 1.193 1.549 1.882 1.69 2.4 3.011 5.464 3.854 8.152v.014c.193.948.435 1.837.73 2.689 0 .021 0 .031.014.041.071.314.136.614.178.896.025-.075.047-.155.068-.227.342-1.075.744-2.12 1.199-3.12.865-1.875 1.954-3.595 3.367-5.091.954-1.01 2.047-1.923 3.311-2.709 1.131-.558 3.199-2.044 4.499-2.668 1.786-.948 3.929-1.847 5.872-2.475 1.791-.634 3.289-1.513 5.158-1.827 1.943-.4 3.84-1.272 5.873-1.272z"/><path d="M480.588 200.71c-.627 2.044-1.036 4.192-1.214 6.387a34.87 34.87 0 0 0 .701 10.672 27.87 27.87 0 0 0-1.196 3.12c-.092-.214-.167-.442-.249-.669-.014-.007-.014-.021-.014-.041-.175-.817-.42-1.731-.73-2.689v-.01c-.609-2.992-.708-6.357-.384-9.586.227-2.43.719-4.785 1.398-6.843v-.02c.257-1.258.958-2.572 1.289-3.785.566-2.272 1.527-4.936 1.694-7.294.16 3.764-.174 7.284-1.395 10.724l.1.034z"/></g><path d="M242.489 244.164c.015 2.003.755 4.312 1.356 6.084l-31.506-15.59c1.074-1.496 1.964-3.141 2.872-4.785l27.293 13.867c-.015.148-.015.279-.015.424z" class="G"/><path d="M242.893 243.936l46.62-25.405c.633 1.059 1.911 3.923 2.673 5.436l-48.339 26.283c-.602-1.775-1.342-4.084-1.357-6.087l.403-.227z" fill="#644bd9"/><path d="M268.065 206.941l21.626 11.492-.181.097-46.617 25.404-.391-.193-27.293-13.867.207-.341v-.018l32.432-16.045c-1.712 4.391-4.456 8.155-8.742 11.357l10.475 5.405.15-.096 12.607-7.36-.075-.096c3.282-4.705 4.98-10.124 5.802-15.739z" class="R"/><path d="M247.849 213.468c1.866-4.719 2.524-10.137 2.602-16.242l5.165-2.816c.854 11.637 1.256 25.39-5.887 35.724l-.15.097-10.471-5.405c4.285-3.202 7.029-6.963 8.741-11.358z" class="G"/><path d="M268.065 206.941c-.822 5.615-2.52 11.034-5.802 15.739l.075.097-12.607 7.359c7.14-10.334 6.738-24.091 5.883-35.724l12.672-6.905c.434 6.188.704 12.94-.221 19.434z" fill="#644bd9"/><g class="G"><path d="M204.894 151.672l86.111-47.881 11.696-3.368-91.307 50.418h-.015l-6.485.928v-.097z"/><path d="M204.894 151.768l6.485-.927-1.495.831-.402 67.884-4.873-7.29.285-60.498z"/></g><path d="M296.668 168.338l.249-59.405-80.497 44.462-.349 58.871 80.597-43.928zm-85.274-17.497l91.307-50.419-.288 68.485-34.13 18.603-12.668 6.901-5.161 2.816-40.971 22.329.402-67.884 1.495-.831h.014z" class="R"/><path d="M296.918 108.932l-.249 59.405-80.597 43.928.349-58.871 80.497-44.462z" class="F"/><path d="M282.719 266.272l-2.965 1.658-1.964-1.334 2.961-1.658 1.968 1.334zm-7.619 1.822l1.968 1.334-2.907 1.627-1.965-1.334 2.904-1.627z" class="C"/><path d="M334.075 247.406l-59.714 33.332-.221-.128-.334-2.506.117.08 60.152-33.494v2.716z" fill="#cad0e9"/><g class="B"><path d="M294.04 263.195l3.279-1.823 3.128-1.741 2.89-1.627 2.688-1.496 2.989-1.682 3.111-1.737 2.926-1.627 2.669-1.5 2.339-1.299 3.107-1.741 2.89-1.627 2.691-1.503 2.15-1.199 3.178 2.099-60.152 33.49-.117-.079-2.873-1.972 2.755-1.544 3.125-1.744 2.912-1.627 2.673-1.492 2.958-1.662 3.111-1.727 2.907-1.644 2.666-1.496z"/><path d="M328.222 240.8l2.677 1.792-2.154 1.2-2.637-1.803 2.114-1.189z"/></g><path d="M326.109 241.988l2.637 1.803-2.69 1.503-2.638-1.803 2.691-1.503z" class="C"/><g class="B"><path d="M328.222 240.8l-2.114 1.189-1.965-1.334 2.097-1.172 1.982 1.317z"/><path d="M326.241 239.484l-2.1 1.172-2.637-1.793 2.068-1.155 2.669 1.776z"/></g><g class="D"><path d="M326.109 241.988l-2.691 1.503-1.968-1.324 2.691-1.513 1.968 1.334z"/><path d="M323.419 243.489l2.637 1.803-2.89 1.63-2.652-1.806 2.905-1.627z"/></g><path d="M324.142 240.655l-2.691 1.51-2.638-1.803 2.691-1.5 2.638 1.793z" class="C"/><path d="M323.572 237.708l-2.068 1.155-2.068-1.4 2.053-1.137 2.083 1.382z" class="B"/><g class="C"><path d="M323.418 243.489l-2.904 1.627-1.95-1.337 2.886-1.613 1.968 1.323z"/><path d="M320.513 245.115l2.651 1.806-3.107 1.741-2.655-1.809 3.111-1.738z"/></g><path d="M321.503 238.864l-2.691 1.496-2.046-1.399 2.669-1.496 2.068 1.399z" class="D"/><path d="M318.813 234.533l2.677 1.793-2.054 1.137-2.638-1.789 2.015-1.141z" class="B"/><g class="D"><path d="M318.813 240.36l2.638 1.807-2.887 1.613-2.659-1.793 2.908-1.627z"/><path d="M320.513 245.115l-3.111 1.738-1.965-1.317 3.125-1.755 1.951 1.334z"/></g><path d="M320.057 248.663l-2.334 1.3-2.656-1.803 2.335-1.306 2.655 1.809z" class="B"/><path d="M319.435 237.464l-2.669 1.496-2.659-1.789 2.691-1.5 2.637 1.793z" class="C"/><path d="M318.813 234.533l-2.015 1.141-2.05-1.382 1.997-1.124 2.068 1.365z" class="B"/><g class="C"><path d="M318.813 240.361l-2.908 1.626-2.05-1.399 2.911-1.627 2.047 1.4z"/><path d="M318.563 243.781l-3.125 1.754-2.641-1.806 3.107-1.741 2.659 1.793z"/></g><path d="M317.721 249.962l-2.669 1.5-2.659-1.81 2.673-1.492 2.655 1.802z" class="E"/><path d="M317.402 246.852l-2.335 1.307-1.947-1.317 2.317-1.307 1.965 1.317z" class="B"/><g class="D"><path d="M316.797 235.673l-2.691 1.5-2.029-1.386 2.673-1.493 2.047 1.379z"/><path d="M316.766 238.96l-2.908 1.63-2.655-1.792 2.904-1.627 2.659 1.789z"/></g><path d="M316.745 233.167l-1.997 1.127-2.641-1.813 1.972-1.089 2.666 1.775z" class="B"/><path d="M315.904 241.988l-3.108 1.741-2.067-1.4 3.128-1.741 2.047 1.4z" class="D"/><path d="M312.796 243.728l2.641 1.806-2.317 1.307-2.659-1.81 2.335-1.303z" class="B"/><path d="M315.066 248.158l-2.673 1.496-1.965-1.316 2.691-1.496 1.947 1.316z" class="C"/><path d="M315.052 251.462l-2.926 1.627-2.637-1.809 2.904-1.627 2.659 1.809z" class="E"/><g class="C"><path d="M312.108 232.482l2.641 1.809-2.673 1.496-2.655-1.806 2.687-1.499z"/><path d="M314.107 237.171l-2.905 1.627-2.036-1.382 2.912-1.627 2.029 1.382z"/></g><path d="M314.079 231.393l-1.972 1.089-2.253-1.513 1.947-1.089 2.278 1.513z" class="B"/><path d="M313.856 240.589l-3.128 1.741-2.638-1.789 3.111-1.744 2.655 1.792zm-.737 6.251l-2.691 1.496-2.637-1.81 2.669-1.495 2.659 1.809z" class="C"/><path d="M312.796 243.728l-2.335 1.303-2.046-1.399 2.313-1.303 2.068 1.399z" class="B"/><path d="M312.393 249.653l-2.905 1.627-1.968-1.317 2.908-1.627 1.965 1.317z" class="C"/><path d="M309.487 251.28l2.637 1.806-3.11 1.741-2.656-1.789 3.129-1.758z" class="E"/><path d="M312.108 232.482l-2.687 1.499-2.239-1.513 2.673-1.496 2.253 1.51z" class="B"/><path d="M312.077 235.788l-2.908 1.626-2.659-1.806 2.912-1.627 2.655 1.807z" class="D"/><path d="M311.802 229.88l-1.947 1.089-2.637-1.806 1.897-1.059 2.687 1.776z" class="B"/><path d="M309.167 237.415l2.033 1.382-3.111 1.744-2.05-1.385 3.128-1.741z" class="D"/><path d="M310.728 242.33l-2.313 1.303-2.659-1.793 2.335-1.299 2.637 1.789z" class="B"/><path d="M310.46 245.031l-2.669 1.496-2.05-1.4 2.673-1.496 2.046 1.4z" class="C"/><path d="M307.791 246.527l2.637 1.81-2.907 1.627-2.638-1.806 2.908-1.631z" class="D"/><path d="M307.217 229.165l2.638 1.806-2.673 1.496-2.656-1.806 2.691-1.496z" class="C"/><path d="M309.487 251.28l-3.129 1.758-1.95-1.334 3.111-1.741 1.968 1.317z" class="D"/><path d="M309.421 233.982l-2.911 1.627-2.236-1.514 2.908-1.627 2.239 1.514z" class="B"/><path d="M309.167 237.415l-3.128 1.741-2.634-1.803 3.104-1.744 2.658 1.806z" class="C"/><path d="M298.511 234.047l-2.314 1.286-2.677 1.496-1.16-.765 15.597-8.738 1.157.779-1.897 1.058-2.691 1.496-2.901 1.627-3.114 1.761zm10.503 20.779l-2.989 1.682-2.641-1.809 2.975-1.662 2.655 1.789z" class="B"/><path d="M308.413 243.632l-2.673 1.496-2.651-1.789 2.665-1.499 2.659 1.792z" class="C"/><path d="M308.09 240.54l-2.335 1.3-2.032-1.382 2.317-1.3 2.05 1.382z" class="B"/><g class="C"><path d="M307.791 246.527l-2.908 1.63-2.064-1.399 2.922-1.63 2.05 1.399z"/><path d="M304.882 248.158l2.637 1.803-3.111 1.744-2.652-1.806 3.126-1.741z"/></g><g class="B"><path d="M307.183 232.467l-2.908 1.627-2.652-1.807 2.904-1.627 2.656 1.807z"/><path d="M306.508 235.609l-3.104 1.744-2.253-1.52 3.122-1.737 2.235 1.513z"/></g><path d="M304.409 251.704l1.95 1.334-2.975 1.662-1.968-1.32 2.993-1.676z" class="C"/><path d="M303.405 237.353l2.633 1.803-2.313 1.302-2.659-1.809 2.339-1.296z" class="B"/><path d="M303.384 254.698l2.641 1.81-2.688 1.496-2.637-1.792 2.684-1.514z" class="E"/><path d="M303.724 240.458l2.029 1.382-2.666 1.5-2.036-1.386 2.673-1.496z" class="C"/><g class="D"><path d="M305.74 245.129l-2.922 1.63-2.637-1.789 2.907-1.63 2.652 1.789z"/><path d="M304.882 248.158l-3.126 1.741-2.053-1.403 3.114-1.737 2.065 1.399z"/><path d="M304.409 251.705l-2.993 1.675-2.652-1.806 2.993-1.676 2.652 1.807z"/></g><path d="M304.273 234.094l-3.121 1.741-2.641-1.789 3.114-1.758 2.648 1.806zm-3.208 4.556l2.659 1.807-2.673 1.496-2.652-1.803 2.666-1.5z" class="C"/><path d="M303.405 237.353l-2.339 1.296-2.232-1.51 2.317-1.303 2.254 1.517z" class="B"/><path d="M303.383 254.699l-2.683 1.513-1.969-1.334 2.684-1.5 1.968 1.321z" class="D"/><path d="M303.338 258.004l-2.89 1.627-2.655-1.806 2.908-1.613 2.637 1.792z" class="E"/><g class="C"><path d="M301.051 241.954l2.036 1.386-2.908 1.631-2.054-1.386 2.926-1.631z"/><path d="M302.817 246.758l-3.115 1.737-2.655-1.786 3.132-1.74 2.638 1.789z"/><path d="M301.757 249.899l-2.993 1.675-2.051-1.396 2.99-1.682 2.054 1.403z"/><path d="M298.764 251.575l2.652 1.803-2.684 1.499-2.638-1.806 2.67-1.496z"/></g><path d="M298.511 234.047l2.641 1.789-2.318 1.303-2.637-1.806 2.314-1.286z" class="E"/><path d="M301.065 238.65l-2.666 1.5-2.239-1.513 2.673-1.496 2.232 1.509z" class="B"/><path d="M301.051 241.954l-2.926 1.631-2.637-1.81 2.911-1.623 2.652 1.802z" class="D"/><path d="M300.7 256.212l-2.904 1.613-1.951-1.334 2.887-1.613 1.968 1.334z" class="C"/><path d="M297.794 257.826l2.652 1.806-3.129 1.741-2.637-1.81 3.114-1.737z" class="E"/><path d="M300.179 244.969l-3.133 1.74-2.025-1.382 3.104-1.744 2.054 1.386z" class="C"/><path d="M299.702 248.496l-2.989 1.679-2.652-1.789 2.986-1.679 2.655 1.789z" class="D"/><path d="M296.196 235.331l2.637 1.807-2.673 1.496-2.641-1.807 2.677-1.496z" class="B"/><g class="D"><path d="M298.764 251.575l-2.67 1.496-2.068-1.382 2.688-1.514 2.05 1.4z"/><path d="M296.094 253.071l2.638 1.806-2.887 1.614-2.658-1.793 2.907-1.627z"/></g><path d="M298.399 240.15l-2.912 1.627-2.235-1.51 2.908-1.63 2.239 1.513z" class="B"/><path d="M295.486 241.776l2.638 1.806-3.104 1.744-2.641-1.806 3.107-1.744z" class="C"/><path d="M297.794 257.826l-3.114 1.737-1.968-1.317 3.132-1.758 1.95 1.338z" class="D"/><path d="M294.68 259.563l2.637 1.809-3.278 1.824-2.637-1.793 3.278-1.84z" class="E"/><g class="C"><path d="M295.021 245.326l2.025 1.382-2.986 1.678-2.033-1.385 2.994-1.675z"/><path d="M296.713 250.176l-2.687 1.51-2.637-1.803 2.673-1.499 2.651 1.792zm-3.194-13.348l2.641 1.806-2.908 1.634-2.652-1.813 2.919-1.627z"/><path d="M296.094 253.071l-2.907 1.627-2.051-1.399 2.891-1.61 2.067 1.382z"/><path d="M295.844 256.489l-3.132 1.755-2.634-1.803 3.107-1.744 2.659 1.792z"/></g><path d="M295.486 241.776l-3.107 1.744-2.257-1.517 3.129-1.737 2.235 1.51z" class="B"/><path d="M292.379 243.52l2.641 1.806-2.994 1.675-2.655-1.809 3.008-1.672z" class="D"/><path d="M294.68 259.563l-3.278 1.841-1.965-1.334 3.275-1.824 1.968 1.317z" class="C"/><path d="M292.028 247.002l2.032 1.382-2.673 1.499-2.05-1.385 2.691-1.496z" class="D"/><path d="M294.04 263.195l-2.666 1.496-2.641-1.789 2.67-1.499 2.637 1.792z" class="E"/><path d="M291.388 249.884l2.638 1.802-2.887 1.613-2.655-1.788 2.904-1.627z" class="D"/><path d="M290.599 238.455l-3.114 1.758-3.008 1.675-1.121-.779 9.005-5.043 1.157.762-2.919 1.627z" class="B"/><path d="M293.251 240.266l-3.128 1.737-2.638-1.789 3.115-1.758 2.651 1.81z" class="E"/><g class="D"><path d="M293.185 254.698l-3.107 1.741-2.068-1.399 3.129-1.741 2.046 1.399z"/><path d="M290.078 256.441l2.634 1.802-3.275 1.827-2.637-1.789 3.278-1.84z"/></g><path d="M292.379 243.52l-3.008 1.671-2.239-1.509 2.99-1.679 2.257 1.517z" class="B"/><path d="M292.028 247.002l-2.691 1.496-2.641-1.806 2.677-1.5 2.655 1.81z" class="C"/><path d="M291.402 261.404l-2.669 1.496-1.965-1.334 2.669-1.496 1.965 1.334z" class="D"/><path d="M291.388 249.883l-2.904 1.627-2.04-1.399 2.894-1.613 2.05 1.385z" class="C"/><path d="M291.374 264.691l-2.908 1.644-2.641-1.806 2.908-1.63 2.641 1.792z" class="E"/><path d="M291.138 253.3l-3.129 1.741-2.655-1.789 3.129-1.744 2.655 1.792z" class="C"/><path d="M287.485 240.214l2.637 1.789-2.989 1.679-2.656-1.793 3.008-1.675z" class="B"/><g class="C"><path d="M290.078 256.441l-3.278 1.84-2.068-1.403 3.278-1.837 2.068 1.4z"/><path d="M289.438 260.071l-2.669 1.496-2.638-1.789 2.67-1.496 2.637 1.789z"/></g><path d="M289.372 245.193l-2.676 1.499-2.232-1.513 2.669-1.496 2.239 1.51z" class="B"/><path d="M286.696 246.691l2.641 1.806-2.89 1.613-2.659-1.792 2.908-1.627z" class="D"/><path d="M288.733 262.9l-2.905 1.631-1.968-1.338 2.908-1.627 1.965 1.334z" class="C"/><path d="M286.445 250.11l2.036 1.4-3.128 1.744-2.029-1.389 3.121-1.755z" class="D"/><path d="M285.827 264.53l2.637 1.806-3.11 1.723-2.634-1.789 3.107-1.74z" class="E"/><path d="M288.01 255.04l-3.278 1.841-2.638-1.806 3.261-1.824 2.655 1.789z" class="D"/><path d="M287.134 243.681l-2.67 1.499-2.655-1.792 2.67-1.499 2.655 1.792z" class="C"/><g class="D"><path d="M286.8 258.282l-2.669 1.496-2.068-1.4 2.669-1.499 2.068 1.403z"/><path d="M286.769 261.567l-2.908 1.627-2.656-1.789 2.926-1.63 2.638 1.792z"/></g><path d="M286.696 246.69l-2.908 1.627-2.232-1.513 2.908-1.623 2.232 1.509z" class="B"/><path d="M286.445 250.111l-3.121 1.754-2.659-1.802 3.122-1.745 2.658 1.793z" class="C"/><path d="M285.827 264.53l-3.107 1.74-1.969-1.33 3.108-1.744 1.968 1.334z" class="D"/><path d="M283.324 251.866l2.029 1.386-3.26 1.823-2.05-1.382 3.281-1.827z" class="C"/><path d="M285.354 268.061l-2.954 1.661-2.645-1.792 2.965-1.658 2.634 1.789z" class="E"/><path d="M282.093 255.074l2.638 1.806-2.67 1.496-2.641-1.806 2.673-1.496z" class="C"/><path d="M283.355 241.108l1.121.782-2.669 1.5-1.143-.783 2.691-1.499z" class="B"/><path d="M284.464 245.179l-2.908 1.627-2.641-1.806 2.894-1.613 2.655 1.792z" class="E"/><g class="C"><path d="M284.13 259.776l-2.925 1.627-2.05-1.399 2.907-1.627 2.068 1.399z"/><path d="M283.859 263.195l-3.107 1.744-2.637-1.796 3.089-1.74 2.655 1.792z"/></g><path d="M281.555 246.805l2.232 1.513-3.122 1.744-2.235-1.513 3.125-1.744z" class="B"/><path d="M283.324 251.866l-3.281 1.827-2.638-1.792 3.261-1.838 2.658 1.803z" class="D"/><path d="M282.4 269.722l-2.677 1.496-2.655-1.789 2.687-1.5 2.645 1.793z" class="E"/><g class="D"><path d="M282.093 255.074l-2.673 1.496-2.053-1.382 2.676-1.496 2.05 1.382z"/><path d="M279.421 256.57l2.641 1.806-2.908 1.631-2.655-1.81 2.922-1.627z"/></g><g class="B"><path d="M278.917 244.999l-3.125 1.758-3.261 1.824-2.69 1.495-2.905 1.627-3.111 1.745-2.954 1.658-2.691 1.496-2.89 1.627-3.129 1.744-2.633 1.478-1.125-.765 32.261-18.079 1.143.782-2.89 1.61z"/><path d="M278.917 244.999l2.637 1.806-3.125 1.744-2.637-1.792 3.125-1.758z"/></g><g class="D"><path d="M279.153 260.005l2.05 1.4-3.089 1.741-2.068-1.403 3.107-1.738z"/><path d="M280.752 264.938l-2.961 1.655-2.652-1.803 2.975-1.647 2.638 1.795z"/></g><path d="M280.665 250.062l-3.26 1.84-2.235-1.516 3.26-1.838 2.235 1.514z" class="B"/><path d="M280.043 253.692l-2.677 1.496-2.637-1.789 2.677-1.499 2.637 1.792z" class="C"/><path d="M279.754 267.931l-2.687 1.499-1.968-1.337 2.691-1.499 1.964 1.337z" class="D"/><path d="M279.723 271.216l-2.908 1.627-2.652-1.785 2.905-1.631 2.655 1.789z" class="E"/><g class="C"><path d="M279.421 256.57l-2.922 1.627-2.036-1.379 2.904-1.63 2.054 1.382z"/><path d="M279.153 260.005l-3.107 1.738-2.641-1.803 3.093-1.741 2.655 1.806zm-.723-11.456l-3.26 1.837-2.638-1.806 3.261-1.824 2.637 1.793z"/><path d="M278.114 263.144l-2.976 1.648-2.053-1.4 2.961-1.647 2.068 1.399z"/><path d="M277.791 266.595l-2.691 1.499-2.634-1.789 2.673-1.513 2.652 1.803z"/></g><path d="M275.17 250.387l2.235 1.513-2.677 1.499-2.232-1.513 2.674-1.499z" class="B"/><path d="M277.366 255.187l-2.9 1.63-2.656-1.792 2.919-1.627 2.637 1.789z" class="D"/><path d="M276.814 272.844l-3.126 1.744-2.637-1.789 3.111-1.744 2.652 1.789z" class="E"/><g class="D"><path d="M276.498 258.198l-3.093 1.744-2.047-1.386 3.107-1.737 2.033 1.379z"/><path d="M273.404 259.941l2.641 1.803-2.961 1.648-2.652-1.793 2.972-1.658z"/></g><path d="M272.531 248.579l2.638 1.806-2.673 1.499-2.655-1.806 2.69-1.499z" class="E"/><g class="D"><path d="M275.138 264.79l-2.673 1.514-2.068-1.4 2.688-1.513 2.053 1.399z"/><path d="M272.466 266.303l2.633 1.793-2.904 1.627-2.637-1.81 2.908-1.61z"/></g><path d="M274.728 253.399l-2.915 1.627-2.224-1.513 2.908-1.627 2.231 1.513z" class="B"/><path d="M274.464 256.818l-3.107 1.737-2.641-1.789 3.096-1.741 2.652 1.793z" class="C"/><path d="M272.194 269.722l1.969 1.334-3.111 1.744-1.968-1.338 3.11-1.74z" class="D"/><path d="M274.141 280.611l-5.546-3.174 2.339-1.303 2.872 1.968.335 2.509z" class="S"/><path d="M273.689 274.588l-2.755 1.544-2.637-1.806 2.754-1.527 2.638 1.789z" class="B"/><g class="C"><path d="M273.404 259.941l-2.972 1.658-2.036-1.382 2.961-1.661 2.047 1.385z"/><path d="M273.084 263.392l-2.687 1.513-2.637-1.806 2.673-1.5 2.651 1.793z"/></g><path d="M269.841 250.077l2.656 1.806-2.908 1.631-2.652-1.81 2.904-1.627z" class="B"/><g class="C"><path d="M270.397 264.905l2.068 1.399-2.908 1.61-2.068-1.399 2.908-1.61z"/><path d="M269.556 267.914l2.638 1.806-3.111 1.741-2.655-1.789 3.128-1.758z"/></g><path d="M269.587 253.514l2.225 1.51-3.097 1.744-2.231-1.531 3.103-1.723z" class="B"/><path d="M271.356 258.555l-2.961 1.661-2.652-1.806 2.972-1.644 2.641 1.789z" class="D"/><path d="M271.051 272.8l-2.752 1.527-1.95-1.337 2.733-1.527 1.969 1.337z" class="B"/><path d="M268.298 274.327l2.634 1.806-2.335 1.303-5.022-2.882 2.773-1.565 1.95 1.338z" class="S"/><g class="D"><path d="M268.395 260.216l2.036 1.385-2.673 1.496-2.05-1.382 2.687-1.499z"/><path d="M267.759 263.097l2.637 1.807-2.907 1.609-2.638-1.789 2.908-1.627z"/></g><path d="M266.935 251.704l2.652 1.81-3.104 1.72-2.658-1.789 3.11-1.741z" class="C"/><path d="M269.556 267.914l-3.128 1.758-2.047-1.399 3.107-1.758 2.068 1.399z" class="D"/><path d="M269.084 271.462l-2.738 1.527-2.619-1.806 2.701-1.51 2.656 1.789zm-2.601-16.227l2.232 1.531-2.972 1.644-2.214-1.517 2.954-1.658z" class="B"/><g class="C"><path d="M268.395 260.216l-2.687 1.499-2.638-1.789 2.673-1.513 2.652 1.803z"/><path d="M267.759 263.097l-2.908 1.627-2.05-1.382 2.908-1.627 2.05 1.382z"/><path d="M267.488 266.514l-3.107 1.758-2.656-1.806 3.126-1.741 2.637 1.789z"/></g><path d="M266.483 255.236l-2.954 1.657-2.659-1.788 2.955-1.658 2.658 1.789z" class="E"/><path d="M264.381 268.273l2.046 1.399-2.701 1.513-2.068-1.399 2.723-1.513z" class="B"/><path d="M263.727 271.184l2.62 1.806-2.773 1.565-15.173-8.707v-5.16l1.128.765 2.616 1.807 2.218 1.513 2.641 1.806 2.036 1.4 2.619 1.806 2.068 1.399z" class="S"/><path d="M265.743 258.411l-2.673 1.514-2.235-1.514 2.694-1.516 2.214 1.516z" class="B"/><g class="D"><path d="M265.708 261.715l-2.904 1.627-2.641-1.806 2.908-1.609 2.637 1.788z"/><path d="M264.85 264.725l-3.125 1.74-2.05-1.382 3.128-1.741 2.047 1.383z"/></g><g class="B"><path d="M264.381 268.273l-2.723 1.513-2.62-1.806 2.687-1.514 2.656 1.807zm-.852-11.378l-2.695 1.517-2.655-1.81 2.691-1.496 2.659 1.789z"/><path d="M263.07 259.926l-2.904 1.61-2.239-1.517 2.908-1.606 2.235 1.513z"/></g><path d="M260.164 261.537l2.638 1.803-3.129 1.744-2.637-1.793 3.128-1.754z" class="C"/><path d="M261.725 266.465l-2.687 1.513-2.033-1.399 2.67-1.496 2.05 1.382z" class="B"/><path d="M258.18 256.602l2.655 1.81-2.908 1.61-2.638-1.793 2.891-1.627z" class="C"/><g class="B"><path d="M260.164 261.537l-3.128 1.754-2.239-1.513 3.129-1.758 2.238 1.517z"/><path d="M257.036 263.292l2.638 1.793-2.67 1.496-2.641-1.81 2.673-1.479z"/></g><path d="M257.926 260.021l-3.129 1.758-2.634-1.807 3.129-1.744 2.634 1.793z" class="E"/><g class="B"><path d="M254.798 261.779l2.238 1.514-2.673 1.478-2.217-1.51 2.652-1.482z"/><path d="M252.163 259.972l2.634 1.806-2.652 1.482-2.616-1.806 2.634-1.482z"/></g><path d="M225.589 315.008v.955l.865-.475c-.021-.031-.049-.049-.085-.083-.011 0-.018-.007-.039-.017l-.741-.38zm-38.745-24.404c-.082.131-.171.269-.224.407.096.269.509.51.765.489a2.39 2.39 0 0 1 .185-.32c.555-.866 1.353-1.414 2.164-1.583a2.3 2.3 0 0 1 1.851.331c.42.29.737.704.947 1.203l1.164.628.007-.018c-.135-1.165-.68-2.195-1.563-2.788-1.089-.738-2.473-.669-3.669.048-.613.369-1.175.907-1.627 1.603zm5.756 3.028c-.117.169-.224.358-.317.551.039.356.456.466.783.476.064-.158.161-.31.257-.458.512-.797 1.242-1.334 1.993-1.545.69-.199 1.42-.117 2.014.29.381.269.83.748.958 1.344l1.178.638c-.096-1.234-.651-2.33-1.577-2.957-1.103-.738-2.491-.669-3.691.079-.608.358-1.153.896-1.598 1.582z" class="N"/><path d="M221.773 310.626c-.331 0-.719-.2-.776-.528l.342-.637c.456-.697 1.018-1.248 1.637-1.603l-.537-.3-1.185-.655-2.777-1.527c-.818.169-1.63.727-2.196 1.606l-.26.455v.011c-.249.062-.758-.159-.815-.417l.353-.631c.477-.734 1.078-1.303 1.737-1.668l-.509-.283-1.097-.607-3.164-1.734c-.722.218-1.399.748-1.897 1.517a4.5 4.5 0 0 0-.338.627v.018c-.296 0-.701-.159-.819-.428l.022-.01a4.89 4.89 0 0 1 .416-.786c.424-.658.95-1.179 1.523-1.534l-.416-.241-1.143-.617-2.979-1.634c-.769.189-1.509.727-2.032 1.544-.103.169-.196.331-.271.51l-.007-.01c-.274.079-.765-.152-.772-.469v-.014l.327-.586c.445-.696 1.001-1.234 1.613-1.602l-.513-.276-1.078-.6-3.207-1.765c-.712.231-1.381.748-1.876 1.507l-.295.548c-.296.069-.783-.18-.794-.466l.37-.662c.424-.644.936-1.161 1.516-1.523-.146-.069-.281-.148-.413-.228l-1.178-.637-2.972-1.634c-.751.21-1.48.748-1.989 1.541a2.67 2.67 0 0 0-.257.461c-.327-.01-.744-.12-.783-.479a3.55 3.55 0 0 1 .317-.548c.445-.686.99-1.223 1.598-1.585l-.505-.286-1.164-.628-2.798-1.534c-.811.169-1.605.714-2.16 1.583-.071.099-.135.21-.185.32-.257.017-.673-.221-.769-.489.057-.138.142-.28.228-.411.448-.692 1.014-1.234 1.626-1.602l-.014-.011-27.125 13.788c-.072.038-.143.079-.196.131l38.529 21.544 26.642-14.736-.111-.097c-.021-.01-.049-.027-.085-.051l-1.99-1.097c-.768.204-1.519.748-2.05 1.579a3.33 3.33 0 0 0-.299.548v.028z" fill="#fa7564"/><path d="M206.896 299.021c.68-.19 1.392-.111 1.99.289.459.317.787.796.99 1.345l1.139.617c-.111-1.224-.662-2.31-1.577-2.941-1.089-.737-2.474-.665-3.684.062-.612.369-1.168.907-1.612 1.603-.129.179-.225.39-.328.586v.014c.007.317.495.548.772.469l.008.01c.074-.183.163-.341.27-.51.523-.82 1.26-1.355 2.032-1.544z" class="N"/><path d="M161.772 305.686l37.658 21.057.961-.527 25.2-13.936.519-.286s.876-1.6.2-2.279l-26.645 14.736-38.53-21.543c-.94.696-.267 2.271-.267 2.271l.904.507zm63.818 10.277l-25.645 14.167-.146.083-38.402-21.492-.124-.059c-.947.697-.271 2.275-.271 2.275l38.562 21.565 26.684-14.757s.865-1.568.206-2.258l-.864.476z" fill="#ec6959"/><path d="M161.529 308.503c-.043.08-.085.159-.132.217l38.402 21.492.146-.083-.089-.158c.964-1.007.85-2.499.534-3.757l-.961.531-37.658-21.058c.203.855.128 2.089-.242 2.816z" class="K"/><path d="M200.956 295.752c.726-.248 1.509-.189 2.146.252.516.348.869.886 1.057 1.513l1.082.6c-.071-1.286-.626-2.444-1.58-3.099-1.125-.758-2.573-.658-3.787.138-.58.362-1.089.879-1.513 1.524a8.02 8.02 0 0 0-.37.658c.011.286.498.538.794.469l.295-.548c.491-.759 1.164-1.276 1.876-1.507z" class="N"/><path d="M199.854 329.97l.089.162 25.645-14.167v-.955-.252-2.478l-25.2 13.936c.317 1.255.431 2.747-.534 3.754z" class="F"/><path d="M211.432 301.512c-.573.358-1.099.875-1.523 1.534a4.89 4.89 0 0 0-.416.786l-.022.01c.118.269.527.427.822.427v-.017a4.19 4.19 0 0 1 .335-.627c.498-.769 1.175-1.3 1.901-1.517.726-.238 1.487-.169 2.11.259.513.331.872.858 1.05 1.475l1.097.607c-.075-1.276-.63-2.42-1.588-3.068-1.121-.748-2.548-.655-3.766.131zm5.864 3.218c-.662.369-1.26.934-1.737 1.672a5.87 5.87 0 0 0-.352.627c.057.259.566.479.815.421v-.014l.26-.455c.566-.879 1.377-1.438 2.196-1.606.637-.128 1.285-.028 1.833.337.424.293.744.7.94 1.19l1.185.654v-.006c-.128-1.176-.676-2.213-1.559-2.81-1.057-.727-2.406-.679-3.581-.01zm5.68 3.127c-.619.359-1.182.907-1.637 1.603-.132.207-.235.42-.342.638.057.327.445.527.776.527v-.028c.085-.189.185-.379.299-.548.534-.827 1.281-1.375 2.05-1.575.687-.186 1.395-.1 1.983.3 1.281.879 1.605 2.957.637 4.681a4.05 4.05 0 0 1-1.154 1.303v.251l.741.38c.021.01.028.017.039.017v-.017c.438-.39.829-.869 1.142-1.427 1.278-2.282.858-5.012-.854-6.167-1.089-.734-2.477-.665-3.68.062z" class="N"/><path d="M193.764 280.036c-1.555.879-1.31 2.392.538 3.398l23.135 12.423c1.865.99 4.62 1.096 6.168.214l13.544-7.645c1.548-.883 1.306-2.396-.545-3.389l-23.135-12.423c-1.848-1.003-4.617-1.096-6.165-.217l-13.54 7.639z" class="F"/><path d="M191.008 286.06l26.072 14.012c2.093 1.116 5.193 1.227 6.951.234l15.259-8.607c1.203-.689 2.321-3.985 1.673-4.946.324.813-.004 1.63-1.036 2.202l-15.255 8.621c-1.751.979-4.855.882-6.948-.245l-26.068-14.001c-1.481-.797-2.054-1.879-1.63-2.799h-.011c-1.288 1.551-.893 4.519.993 5.529z" class="G"/><path d="M239.323 285.141c.858.458 1.409 1.02 1.637 1.592 0 .014.004.014.004.021.323.81-.004 1.627-1.036 2.202l-15.255 8.621c-1.752.979-4.855.879-6.948-.244l-26.072-14.002c-1.481-.796-2.05-1.882-1.63-2.802.174-.383.509-.738 1.018-1.021l15.258-8.614c1.745-.989 4.855-.879 6.948.235l26.076 14.012zm-45.559-5.105c-1.552.879-1.31 2.392.541 3.398l23.135 12.423c1.862.99 4.617 1.096 6.165.214l13.547-7.645c1.544-.883 1.302-2.396-.549-3.389l-23.135-12.423c-1.847-1.003-4.617-1.096-6.165-.217l-13.539 7.639z" class="R"/><path d="M427.042 409.313c0 2.737-2.296 4.954-5.115 4.954-2.84 0-5.122-2.217-5.122-4.954a4.88 4.88 0 0 1 1.278-3.288c.082-.062.142-.141.203-.203l6.755-.442c1.214.907 2.001 2.327 2.001 3.933z" class="I"/><path d="M417.699 405.86c-3.578-1.462-7.507-2.73-10.458-3.051-4.741-.479-13.988-.479-19.223.738a38.23 38.23 0 0 0-4.791-3.154c19.622-5.587 36.824 2.237 42.256 4.95l-.442.038-6.755.441-.587.038z" class="H"/><path d="M330.096 404.348c.402.697.601 1.476.601 2.313 0 2.727-2.281 4.967-5.125 4.967-2.816 0-5.115-2.24-5.115-4.967 0-1.279.509-2.444 1.335-3.319l8.151.696.153.31z" class="I"/><path d="M325.396 401.708c17.181-5.222 36.106-3.23 40.395-2.21-2.153 1.072-4.196 2.289-6.147 3.62-5.289-1.252-11.973-.766-17.27-.114-3.555.338-7.403.648-11.158 1.175l-1.274-.141-8.151-.696-.894-.069c.591-.221 1.15-.466 1.723-.645.908-.352 1.84-.645 2.776-.92z" class="H"/><path d="M335.334 337.256c.377 1.616.826 3.391 1.548 4.684l10.23 4.691c.388 4.243 1.345 8.445 1.879 12.671a6.03 6.03 0 0 1 .093.7l.63 5.481.569 4.901c.381 3.065.456 9.779.014 9.893-8.503 2.895-24.997-3.113-25.698-12.14-.035-.528-4.83-48.23-5.503-55.434-.359-3.74.937-9.231 2.268-13.009.085-.245.16-.462.249-.682l2.21.617c-.01.065-.01.131-.01.182-.025.221-.025.428.028.638.018 2.051.37 6.425 2.225 7.197l15.529 6.594 3.524 1.472c.295 2.254.882 4.688 1.669 7.215-2.951-.386-11.134-2.158-13.447-4.209l-1.559.865s-4.1.648-3.78 6.97c.306 6.335 2.99 8.765 2.99 8.765l4.342 1.938z" class="G"/><path d="M324.6 368.137c.627 8.159 18.014 14.756 25.698 12.14.096.676.232 1.355.363 2.068l-.227.035c-4.916 7.087-33.732-6.16-33.732-6.16-3.307-1.586-6.695-3.936-5.428-7.449l-.149-.176c4.068-3.04 9.435-.465 13.383-2.095.021.61.057 1.161.092 1.637z" fill="#061b26"/><path d="M311.274 368.771c-1.264 3.513 2.121 5.864 5.428 7.449 0 0 28.816 13.247 33.731 6.16l.228-.035c.285 1.41.242 4.302.242 4.302-1.737 3.061-6.029 3.258-13.087 1.448-1.41-2.944-6.987-5.177-6.987-1.972-6.126-2.247-14.594-5.987-18.363-8.448-3.239-4.747-1.562-8.904-1.342-9.08l.15.176z" fill="#050407"/><path d="M401.219 435.379l-.252-.207c.067 0 .135-.01.178-.037.042.089.06.168.074.244z" fill="#1c2122"/><path d="M401.219 435.379a.96.96 0 0 0-.074-.245l7.033-1.847c.68.917 1.096 2.068 1.096 3.295 0 3.168-2.641 5.757-5.898 5.757-3.264 0-5.908-2.589-5.908-5.757a4.83 4.83 0 0 1 .053-.751c.107-.814.388-1.576.833-2.234.011-.038.025-.079.064-.103.908.437 1.645 1.02 2.549 1.678l.252.207z" class="I"/><path d="M373.742 401.992c8.546 5.326 20.965 16.811 26.265 29.896.423 1.075.829 2.161 1.135 3.247-.039.027-.107.038-.178.038-.9-.659-1.641-1.241-2.545-1.679-.064-.048-.135-.107-.224-.131-3.004-4.498-7.478-11.289-11.02-15.684-3.655-4.553-9.425-8.093-14.294-11.499 0 0 0-.024.007-.048.146-1.244.164-2.627.164-3.868.235-.103.466-.165.69-.272z" class="H"/><g class="F"><path d="M373.756 401.931c3.727.283 7.304-.324 9.472-1.54a39.09 39.09 0 0 1 4.791 3.154c9.848 7.49 18.942 20.585 20.352 29.688-.057.014-.114.038-.193.055-2.213.697-4.577 1.303-7.036 1.844-.306-1.082-.712-2.171-1.136-3.243-5.299-13.085-17.718-24.57-26.264-29.896v-.062h.014z"/><path d="M372.099 401.735l1.644.196v.062c-.228.104-.456.169-.691.272-8.88 3.709-19.159 16.915-24.331 27.052-.573 1.162-1.103 2.261-1.548 3.323-.118.269-.235.541-.335.803-.199-.055-.427-.131-.626-.196a68.84 68.84 0 0 1-5.3-1.682l-1.869-.697c4.061-11.461 11.031-21.167 20.601-27.751a52.12 52.12 0 0 1 6.147-3.616h.022c1.402 1.034 3.595 1.848 6.286 2.234z"/></g><path d="M348.72 429.317c5.171-10.138 15.454-23.343 24.331-27.052 0 1.241-.018 2.623-.164 3.868-4.072 3.129-7.755 6.683-11.532 10.885-1.883 2.099-8.507 10.244-10.468 13.564-.085.052-.203.117-.313.169-1.05.555-2.41 1.306-3.403 1.889.445-1.062.976-2.162 1.549-3.323z" class="H"/><path d="M346.21 433.247l.63.196.334-.803 3.403-1.892c.057.055.096.121.118.169a5.51 5.51 0 0 1 1.245 3.505c0 .09 0 .169-.014.273-.146 3.012-2.733 5.432-5.883 5.432-3.257 0-5.905-2.575-5.905-5.705 0-1.034.295-2.002.776-2.857l5.296 1.682z" class="I"/><path d="M364.483 395.785c-.73 1.258-.182 2.602 1.299 3.712-4.289-1.024-23.207-3.016-40.391 2.206-.919.273-1.869.572-2.766.924-.587.179-1.142.424-1.723.645-.049 0-.092.013-.128.051 0-.038 0-.051.036-.089.306-.414.644-.803.989-1.203 1.068-1.176 2.321-2.289 3.773-3.347 4.855-2.044 9.756-3.492 14.64-4.45a64.13 64.13 0 0 1 4.417-.71l.882-.118c6.763-.851 13.458-.841 19.844-.258.921.052 1.843.155 2.733.272-1.705.528-3.004 1.344-3.605 2.365z" class="F"/><path d="M369.022 393.148c-.306.051-.612.155-.922.272h-.014l-2.73-.272.014-.114c-.074-.169-.231-.431-.352-.672v-.014-4.216c2.075.621 3.339 2.647 4.004 5.016z" class="I"/><path d="M384.99 398.813c.858-1.427.061-2.951-1.854-4.099l.082-.145c6.649-1.847 21.242-1.423 31.336 2.693 0 0 .014.037.035.037 4.681 2.375 8.404 5.123 10.924 8.042h-.021c-5.446-2.716-22.634-10.537-42.274-4.95.825-.451 1.409-.985 1.772-1.578z" class="F"/><path d="M364.483 395.785c.601-1.02 1.9-1.837 3.605-2.365h.014c.31-.117.613-.22.919-.272.057-.014.096-.041.153-.052.651-.169 1.359-.282 2.093-.376v1.152c-.84.248-1.549.61-1.961 1.048-.111.117-.189.22-.267.337-.606 1.059.331 2.144 2.228 2.817.573.196 1.242.399 2.004.479 2.267.362 4.58.076 5.99-.621.541-.272.954-.634 1.182-1.006.331-.541.21-1.127-.257-1.631-.224-.258-.53-.493-.925-.699v-1.41c.367.079.719.182 1.061.286 1.117.334 2.053.748 2.815 1.241 1.911 1.148 2.712 2.675 1.854 4.098-.363.597-.946 1.127-1.772 1.579-2.164 1.213-5.734 1.82-9.457 1.541h-.011l-1.651-.197c-2.684-.386-4.887-1.203-6.297-2.237h-.021c-1.481-1.11-2.029-2.454-1.299-3.712z" class="H"/><path d="M286.352 390.044s28.834 13.24 33.724 6.156l.228-.041c.295 1.413.242 4.305.242 4.305-.256.441-.563.831-.922 1.165-2.139 1.903-6.143 1.827-12.166.286-1.402-2.95-6.98-5.177-6.98-1.975-6.125-2.244-14.6-5.991-18.358-8.445-3.247-4.75-1.567-8.914-1.335-9.083l.146.169c-1.271 3.516 2.121 5.874 5.421 7.463z" fill="#050407"/><path d="M380.444 396.924c-.228.373-.644.735-1.182 1.007-1.413.7-3.723.986-5.994.624-.758-.079-1.427-.286-2-.483-1.897-.668-2.833-1.754-2.228-2.812.075-.121.157-.221.267-.342.409-.437 1.121-.799 1.961-1.044v2.237c.573.207 1.242.372 2 .489 2.271.324 4.581.056 5.994-.644v-1.358c.392.207.698.441.926.696.466.503.587 1.089.256 1.63z" fill="#3d4445"/><path d="M316.22 303.917l-.043.131-.865-.248c-.014 0-.032 0-.042-.017l-6.037-.476c1.591-.076 3.185-.038 4.769.145-2.683-.662-5.396-1.076-7.837-1.076a27.98 27.98 0 0 1 3.62-.437l6.634.565.239.041-.438 1.372z" class="O"/><path d="M314.764 329.53c.306 2.251.882 4.681 1.669 7.218-2.951-.39-11.134-2.161-13.433-4.219l.025-.041c-3.698-1.882-4.883-6.643-5.809-10.379l14.024 5.946 3.524 1.475zm-5.531-26.222l6.037.476c.011.017.028.017.043.017l.865.245c3.363.992 6.513 2.312 8.844 3.591 1.702 3.547 3.788 6.467 6.073 8.897-.054.272-.125.534-.175.803l.466-.259c-.017-.089-.017-.168-.017-.241l.348.372c.043.052.097.094.125.128.413.441.865.841 1.324 1.217 2.734 2.471 5.706 4.305 8.717 5.653l-.281.655-9.788-4.137-1.513-.63-2.495-1.076-23.057-9.748c-1.029-.441-2.346-.582-3.752-.441-1.901.169-3.94.851-5.46 1.941-.829.541-1.388 1.175-1.726 1.785-.103.203-.214.427-.26.603 0 0-.018.042-.018.093-.039.062-.053.128-.053.193l-2.225-.617c.075-.234.171-.441.253-.651.267-.71.534-1.293.797-1.768l-.078-.066c2.723-3.971 7.998-6.866 13.938-7.966 2.442 0 5.154.414 7.838 1.076-1.584-.186-3.179-.221-4.77-.145z" class="G"/><path d="M295.177 316.02l21.452 9.086 16.857 7.153c2.463 1.034 6.588.372 9.232-1.503 2.214-1.558 2.688-3.451 1.339-4.64 2.388 1.124 1.826 8.235-.783 10.083-1.616 1.144-3.809 1.84-5.816 1.958-1.253.086-2.477-.066-3.414-.455l-4.168-1.769-15.112-6.404-3.524-1.476-14.024-5.942-1.509-.648c-1.836-.776-2.203-5.15-2.228-7.201.16.71.723 1.345 1.698 1.758z" class="I"/><path d="M324.576 305.659l1.324 2.499-.879-.52c-.37-.683-.683-1.407-.993-2.144a4.14 4.14 0 0 0 .548.165z" class="O"/><g class="G"><path d="M331.309 315.281c-.029.131-.046.286-.061.414a2.75 2.75 0 0 1-.042-.545c.007.042.042.093.103.131zm1.281-32.339l-3.299 2.964c-.05 3.089-.303 6.205-.851 9.166-.726 3.891-1.943 7.538-3.865 10.578v.007c.42.872.861 1.713 1.324 2.499l-.88-.517c1.705 3.544 3.791 6.467 6.073 8.897-.05.269-.121.531-.171.803l.463-.262c-.015-.086-.015-.169-.015-.241.114.127.232.241.349.372.043.052.096.093.121.131a15.12 15.12 0 0 0 1.324 1.217c2.737 2.468 5.709 4.301 8.721 5.649 1.039.466 2.085.865 3.125 1.21.263-.617.437-1.237.573-1.91.106-.52.195-1.047.277-1.616 1.339-8.831 1.563-18.31 1.563-27.362 0-4.316-.224-8.621-.452-12.93-.221-4.525-2.004-8.844-2.218-13.15l-.146-.014c.011-.027.011-.065.011-.103-.911 2.161-2.178 4.14-3.481 5.819-.018.017-.028.017-.028.017-2.097 2.713-4.3 4.705-5.325 5.701l-1.737 1.665-1.456 1.41z"/><path d="M348.41 346.107c-3.463 1.527-7.417-.4-11.083-1.975-.2-2.099-.175-4.102.131-5.977 2.008-.117 4.2-.814 5.816-1.955 2.609-1.847 3.171-8.958.783-10.085 0-.021-.039-.038-.057-.049-.245-.207-.559-.413-.936-.582l-1.463-.621.281-.658c1.04.465 2.086.865 3.125 1.213 1.453.493 2.894.865 4.297 1.165l-.894 19.524zm-23.834-40.448a4.14 4.14 0 0 1-.548-.165l.993 2.144c-2.328-1.279-5.481-2.599-8.841-3.592.014-.038.025-.093.039-.128l.438-1.375-.239-.038c.95-2.844 3.958-9.541 12.024-7.435-.727 3.895-1.944 7.542-3.866 10.579v.01zm-9.253 89.001c-.188-5.935-1.121-11.871-1.505-17.817-.374-6.118-.922-12.864-2.78-19.024l5.716 2.627c.392 4.243 1.346 8.442 1.883 12.671.053.248.078.479.103.7l.616 5.48.573 4.902c.374 3.064.459 9.779.011 9.896-.285.1-.609.19-.929.255-1.107.259-2.353.348-3.688.31z"/><path d="M293.456 313.627c-.028.217-.028.427.025.634.025 2.054.388 6.425 2.228 7.201l1.509.648c.922 3.736 2.108 8.493 5.806 10.379l-.022.038-1.562.872s-4.115.644-3.777 6.969c.292 6.332 2.987 8.762 2.987 8.762l4.338 1.941c.374 1.62.819 3.388 1.535 4.685l4.513 2.064c1.861 6.157 2.406 12.906 2.783 19.021.381 5.949 1.317 11.885 1.506 17.82-8.212-.234-19.776-5.584-20.99-12.064-.046-.221-.064-.424-.074-.645 0-.065-.015-.117-.015-.186l-.089-1.444c-.021.014-.035.014-.06.024l-5.343-53.828c-.373-3.736.922-9.23 2.257-13.008.078-.245.157-.466.246-.683l2.224.621c-.025.062-.025.127-.025.179z"/></g><path d="M306.522 355.754c-.715-1.292-1.16-3.064-1.534-4.681l17.893 8.028 7.037 3.13c1.95 2.64 3.95 5.005 5.847 6.88l-11.856-5.422-7.154-3.243-5.716-2.627-4.517-2.065z" class="J"/><path d="M330.961 235.062c-1.417 1.693-2.595 3.754-3.218 5.526l-.131-.042c-2.542-.882-5.909-1.061-8.671-1.075-1.132-2.472 4.809-2.261 5.998-1.951l.06-.052c-.623-.648-1.922-.944-2.844-1.241l-3.968-1.775-.036.055c-1.53-.22-7.193-.634-6.471-2.923.919.193 2.125.248 3.243.324-1.481-.675-3.858-1.823-2.776-2.261l3.32.293.015-.062c1.47-.931 3.338-1.127 5.232-.907 1.153-.427 2.997-.582 4.011-.282l.011-.038c2.997 1.196 7.222 2.051 9.443 3.592l.014.017c-1.128.603-2.25 1.613-3.232 2.802z" class="L"/><path d="M330.026 244.799c-.815-.493-1.844-.831-2.73-1.241-.128-.634-.014-1.475.256-2.378l.189-.593c.623-1.772 1.801-3.83 3.221-5.526.983-1.189 2.104-2.196 3.232-2.802.356-.21.715-.366 1.082-.469a2.48 2.48 0 0 1 .594-.114c.538.621 1.154 1.227 1.801 1.806-.533.187-1.049.418-1.505.711-3.673 2.15-5.57 6.728-6.14 10.606z" class="P"/><g class="L"><path d="M278.569 260.961l-1.755-1.048c.136-.596.534-.968 1.175-1.061 1.445-.204 1.11.765 1.548 1.516l2.047 2.892-3.047-2.247.032-.052z"/><path d="M261.409 262.407c3.096-.851 5.751 1.076 8.41 2.048-1.548-1.31-3.741-2.406-5.513-3.12-1.121-.427-3.791-.748-3.232-2.481h.335c3.844-.09 6.488 1.682 9.695 3.219l.089-.193c-1.548-1.086-3.21-1.941-5.008-2.485-1.438-.424-3.103-.745-3.103-2.582h.103c.804 0 1.712.086 2.655.255l.014-.038c3.727-1.355 7.688.92 10.959 2.882l1.755 1.051-.032.048c.908.817 2.032 1.476 3.047 2.251a9.93 9.93 0 0 1 .879.776c-1.079.61-2.153 1.589-3.122 2.754-1.352 1.603-2.48 3.543-3.128 5.25l-.673-.255c-2.662-.935-6.225-3.727-8.282-5.95-1.894-.996-5.04-1.255-6.315-3.178l.467-.252z"/></g><path d="M282.462 264.038c.402-.231.805-.413 1.189-.527.192-.055.416-.09.605-.117.534.634 1.132 1.227 1.805 1.823a5.94 5.94 0 0 0-1.513.707c-3.67 2.147-5.57 6.728-6.143 10.606-.812-.49-1.841-.827-2.723-1.255-.132-.62-.015-1.461.256-2.378.075-.272.174-.559.274-.855.648-1.706 1.776-3.647 3.129-5.25.968-1.165 2.043-2.144 3.121-2.754z" class="P"/><path d="M284.548 265.925c.452-.297.971-.541 1.512-.707.356-.155.741-.262 1.171-.324.225.086.506.231.815.41 3.325 1.81 15.419 10.372 19.538 13.037-3.78 4.912-7.027 11.42-4.076 19.899.189.231.388.452.598.648-.986-.648-1.975-1.334-3.004-1.903-8.35-4.836-15.362-11.292-22.879-17.441-.029-.907 0-1.927.181-3.013.577-3.881 2.474-8.459 6.144-10.606z" class="G"/><path d="M294.245 381.766c0 .069.015.121.015.187a4.41 4.41 0 0 0 .074.644c1.214 6.48 12.778 11.83 20.99 12.064 1.334.038 2.577-.051 3.687-.313.32-.062.644-.152.929-.252.107.679.242 1.355.363 2.061l-.228.042c-4.89 7.087-33.724-6.156-33.724-6.156-3.3-1.589-6.692-3.944-5.421-7.46l-.146-.172c4.033-3.02 9.361-.489 13.312-2.065.028-.01.043-.01.064-.024l.085 1.444z" fill="#061b26"/><path d="M343.999 326.065c.018.013.061.027.061.051 1.349 1.19.875 3.082-1.339 4.64-2.648 1.875-6.773 2.537-9.236 1.503l-16.853-7.153-21.456-9.086c-.975-.413-1.534-1.048-1.694-1.758l.05-1.01c0-.051.018-.093.018-.093.049-.176.156-.4.259-.603.339-.61.897-1.244 1.73-1.786 1.52-1.089 3.56-1.771 5.457-1.94 1.406-.141 2.726 0 3.755.441l23.053 9.748 2.495 1.075 1.513.631 9.788 4.137 1.463.624c.377.165.694.372.936.579z" class="J"/><path d="M329.918 362.231l-7.04-3.13-17.889-8.028-4.342-1.941s-2.691-2.433-2.987-8.765c-.334-6.322 3.78-6.97 3.78-6.97l16.462 7.435c2.926 7.421 7.396 15.222 12.016 21.399z" class="I"/><path d="M307.582 278.339l.961-1.213s9.134-11.641 11.664-16.139c1.68-3.247 3.168-7.204 5.158-10.537.331-.597.694-1.165 1.068-1.71h.032c.768-.696 1.64-1.086 2.544-1.227h.011a5.79 5.79 0 0 1 .805-.062c.306-.014.601 0 .907.038.022.014.068.038.121.024a10.67 10.67 0 0 1 1.26.441c.022.011.057.024.086.038.551.221 1.096.476 1.648.762 1.715.893 3.441 2.071 4.897 3.171l.011-.028c.149.131.281.259.473.414h.011c.68.579 1.374 1.189 2.057 1.81.534.479 1.057.972 1.588 1.475l2.534 2.547c.014.014.014.024.028.035a13.47 13.47 0 0 1 .481 2.654c.078.907.064 1.786-.025 2.651a15.19 15.19 0 0 1-.605 2.961c-.185.634-.413 1.268-.68 1.875v.014c-.911 2.161-2.178 4.136-3.481 5.815-.018.017-.028.017-.028.017-2.097 2.716-4.3 4.705-5.325 5.701l-1.737 1.665-1.456 1.41c-.843.803-1.979 1.823-3.299 2.964-6.742 5.815-18.334 14.788-21.168 14.66-.448-.01-.879-.062-1.263-.169-.018.014-.029.014-.043 0-1.1-.258-1.972-.789-2.712-1.51-.21-.193-.409-.417-.598-.648-2.951-8.479.295-14.987 4.075-19.899z" class="O"/><path d="M306.887 300.427c-.028-.014-.046-.014-.071-.028.014.014.025.014.043 0 .011.014.011.028.028.028z" fill="#3c1f17"/><path d="M317.902 340.832l-1.47-4.085c-.786-2.537-1.363-4.963-1.669-7.218l15.113 6.405c.228 3.605.911 7.394 1.993 11.196 1.965 7.162 5.236 14.304 9.094 20.068 1.719 2.571 3.545 4.874 5.446 6.776l1.423 1.345-11.336-5.498c-.238-.217-.488-.465-.73-.71-1.9-1.875-3.897-4.24-5.848-6.88-4.62-6.177-9.09-13.978-12.016-21.399z" fill="#2f2f2f"/><path d="M317.902 340.832l-16.461-7.435 1.559-.869c2.299 2.058 10.482 3.83 13.432 4.219.442 1.345.922 2.703 1.47 4.085z" class="J"/><path d="M331.204 315.152c.008.038.047.089.104.131-.029.131-.043.286-.057.413-.039-.182-.047-.351-.047-.544z" fill="#211d50"/><path d="M333.377 248.405c.16.1.306.218.47.352l-1.648-.765c-.029-.014-.064-.024-.085-.038.38.089.765.22 1.146.389.025.024.049.056.117.062z" fill="#3c1f17"/><path d="M348.41 346.107l-.391 8.252.113.117-9.67-4.357c-.538-2.009-.922-4.036-1.136-5.987 3.667 1.575 7.621 3.502 11.084 1.975z" class="J"/><path d="M339.998 238.164l-2.541 2.044-2.694 2.227-2.442 2.082-2.484 2.234c.014-.621.067-1.266.188-1.951.57-3.878 2.47-8.456 6.14-10.607.456-.293.972-.527 1.509-.71.363-.155.751-.241 1.175-.324.228.093.509.238.808.414.939.507 2.196 1.23 3.616 2.071-.388.283-.765.583-1.15.879l-2.125 1.641z" class="G"/><path d="M339.046 205.167c.182-2.923.68-3.064-.598-5.236 0 0-.011-1.151.146-2.806l.669.517.146-.024c.36 1.717 1.082 3.078 1.805 4.936.776 2.11 3.353 5.029 3.523 9.676l1.656.838c.11.041.16.089.274.131-.196-2.189-.314-4.733-.221-6.053.854-1.1 4.125-1.01 3.62 1.682-.267 1.42-.093 4.047-.552 5.794-.292 1.162-.893 1.934-2.068 1.717 0 .179 0 .375-.053.531v.037c-.011.107-.011.193-.011.287-.082.544-.185 1.02-.263 1.33v.103c-.043.038-.054.104-.072.142-.185.455-.576.893-1.025 1.258-.868.696-1.979 1.151-2.473.927-.371-.4-.783-1.485-1.196-2.871-.741-2.454-1.499-5.846-2.143-7.887-.552-1.899-1.249-3.243-1.164-5.029z" class="L"/><g class="J"><path d="M347.221 370.027l6.621 2.94 6.691 3.013.456 4.636-7.866-3.592-5.343-2.443-.455-4.399c-.025-.048-.05-.1-.104-.155z"/><path d="M340.961 367.198c-3.858-5.763-7.129-12.906-9.094-20.068-1.078-3.802-1.765-7.587-1.989-11.196l4.168 1.768c.932.39 2.16.541 3.413.455-.306 1.875-.331 3.878-.132 5.974a39.92 39.92 0 0 0 1.136 5.987c2.16 8.104 6.531 16.146 8.759 19.91.05.052.078.107.103.155l.456 4.398.053.738c-.48-.428-.947-.879-1.427-1.344-1.901-1.903-3.727-4.206-5.446-6.777z"/></g><path d="M346.022 220.026c.449-.362.84-.804 1.025-1.255.018-.038.029-.107.071-.141v-.104a14.49 14.49 0 0 0 .264-1.334l.843 3.426v.028.01l.161.607.345 1.462-.039.013c-2.513-.141-4.368-.644-5.144-1.782.495.221 1.606-.234 2.474-.93z" class="L"/><path d="M348.664 231.61h.018c-.018.017-.036.017-.061.017 0-.017.043-.017.043-.017z" class="P"/><path d="M348.226 220.657v-.011-.027l-.844-3.426.011-.283v-.041c.053-.156.053-.349.053-.528 1.175.217 1.776-.558 2.068-1.72l.224.052c1.065 1.499 2.328 3.788 3.503 5.611l.377.593c1.855.986 3.912 1.1 5.901.738l2.229-.596c2.523-.893 4.769-2.365 6.118-3.544.011 0 .025-.024.025-.024.007 0 .021-.014.036-.024v.024h.046c.05.569.331 1.303.612 2.072l-.694.127-2.979.621.01.048c-1.626.362-3.271.831-4.602 1.358-1.534.586-3.545 1.81-5.356 3.054l-4.713 3.516-.577-2.882c0-.014-.01-.027-.01-.027-.196-.803-.698-1.665-.933-2.613l-.345-1.462-.16-.606z" class="L"/><path d="M354.086 247.773l-12.792 6.346a81.8 81.8 0 0 0-2.057-1.806h-.011l-.473-.417-.011.031c-1.456-1.1-3.179-2.282-4.898-3.172l-.466-.348c-.068-.01-.096-.041-.121-.062-.377-.172-.762-.3-1.146-.393a10.9 10.9 0 0 0-1.256-.438c-.054.014-.104-.013-.125-.027a5.25 5.25 0 0 0-.904-.038 5.85 5.85 0 0 0-.805.065l.816-.765 2.484-2.233 2.442-2.082a102.16 102.16 0 0 1 2.694-2.224l2.541-2.047 2.125-1.637 1.15-.883 2.904-2.223c4.574.493 8.454-.01 12.501-.903 1.402-.286 2.79-.662 4.242-1.007.883-.238 2.994-1.103 5.279-2.306a38.98 38.98 0 0 0 3.136-1.796c.277-.193.558-.379.825-.582 3.154-2.161 5.475-4.681 3.916-6.711-.082-.118-.189-.231-.307-.349 0-.027-.042-.041-.057-.051-.064-.066-.117-.128-.224-.179l1.175-.225 7.514-1.34c4.769-.362 10.457 2.078 12.888 4.691-5.531 4.343-19.843 13.316-24.609 15.784l-18.37 9.327z" class="O"/><path d="M367.024 254.524l-6.105 4.446-.014.028c-1.954 1.213-3.741 2.995-5.204 5.091l-1.352 2.161a22.04 22.04 0 0 0-2.175 5.701 17.71 17.71 0 0 0-.445 3.079l-.142 3.167-.253 5.471-.103 2.364v.014l-.819 17.314-.288 6.012-.15 3.026-.42 8.921-.142 3.04-.11 2.223c-1.399-.3-2.841-.672-4.296-1.165.267-.62.441-1.241.576-1.913l.278-1.616c1.338-8.832 1.562-18.307 1.562-27.359 0-4.319-.224-8.624-.452-12.929-.22-4.526-2.003-8.845-2.217-13.151l-.146-.017c.011-.024.011-.062.011-.1v-.014c.267-.603.494-1.24.68-1.875a15.11 15.11 0 0 0 .601-2.961 13.66 13.66 0 0 0 .029-2.647 13.54 13.54 0 0 0-.481-2.658c-.014-.01-.014-.02-.028-.034-.83-.879-1.677-1.706-2.535-2.547l-1.591-1.476 12.792-6.345 18.37-9.328c4.766-2.468 19.082-11.44 24.609-15.787.143.159.288.314.417.493 1.53 4.398 2.544 9.424 2.922 14.625a28.47 28.47 0 0 0-1.004.259c-9.706 2.509-23.687 10.703-32.375 16.487z" fill="#4229b5"/><path d="M375.338 366.794l-14.803 9.186-.912-9.427 14.807-9.183 7.528-4.729 33.611-20.872.751 9.607-2.648 1.651-30.781 19.086-7.553 4.681z" fill="#2f2f2f"/><path d="M360.186 226.617l1.962-.931-2.083 1.065c.04-.055.075-.079.121-.134z" fill="#8d8d8e"/><path d="M360.322 221.678c1.331-.527 2.976-.996 4.602-1.358l2.951-.593 1.833-.3.05.197c.028 0 .067.024.124 0h.007.029c.68.117 1.449 1.265 2.182 1.23v.669l-.164.041c-1.281.31-2.897.927-4.709 1.731l-5.079 2.392-1.961.93c-.046.052-.086.08-.121.131l-.587.283-5.791 2.758-1.154.489c-1.416.621-2.694 1.072-3.805 1.331h-.014c-.011 0-.025.017-.035 0l.153-.145c.178-.217.309-.424.42-.645.437-.786.544-1.589.914-2.506 0 0 .032-.013.086-.065l4.709-3.516c1.815-1.244 3.822-2.471 5.36-3.054z" class="P"/><path d="M379.262 388.312v3.219 1.072.583 1.41 1.358c-1.409.7-3.723.972-5.994.644-.758-.117-1.427-.282-2-.489v-2.237-1.151c-.733.093-1.441.206-2.093.375-.06.011-.096.038-.153.052-.662-2.368-1.929-4.395-4.004-5.015v-.107l6.25-.1-.189-13.643 8.201-5.174-.018 19.203z" class="F"/><path d="M367.865 217.476a19.94 19.94 0 0 1-6.119 3.543l-2.228.596c-1.986.362-4.043.245-5.901-.737l-.374-.593-3.506-5.612-.221-.052c.46-1.747.282-4.374.549-5.794.509-2.692-2.762-2.782-3.62-1.682-.093 1.32.025 3.867.22 6.053-.11-.042-.163-.09-.27-.128l-1.659-.841c-.171-4.646-2.747-7.566-3.52-9.675-.722-1.858-1.448-3.22-1.808-4.936l-.146.024c-.228-.18-.466-.348-.669-.517-.762-.631-1.427-1.293-1.922-2.003-.039-.882 0-1.734.135-2.565.054-.306.125-.617.199-.93 2.585-10.758 19.605-16.37 30.134-10.924l.014-.075a23.59 23.59 0 0 1 4.499 3.074c3.716 3.223 6.175 7.487 5.143 11.548-1.082 4.281-2.534 8.896-4.072 13.057-.082.196-.149.389-.228.582-.505 1.334-1.007 2.616-1.523 3.816-.715 1.086-1.705 2.199-1.762 3.185.043.207-.455.81-1.281 1.534-.014.014-.029.027-.036.027 0 0-.018.025-.028.025z" class="I"/><path d="M348.73 231.61c1.11-.258 2.388-.71 3.805-1.33l1.153-.493 5.791-2.758.587-.279 2.082-1.062 5.08-2.395c1.811-.8 3.427-1.421 4.709-1.731l.16-.041v-.669c-.733.038-1.499-1.113-2.179-1.23.969-.118 1.915-.362 2.844-.583.26-.038.509-.048.748-.048.046-.052.046-.104.046-.145.623.172 1.434.376 1.933.689.107.052.156.114.224.18.014.01.057.024.057.048.117.121.224.234.306.352 1.559 2.03-.762 4.55-3.915 6.711l-.826.582-3.136 1.796c-2.285 1.203-4.395 2.068-5.278 2.306l-4.243 1.007c-4.047.889-7.93 1.396-12.5.903.245-.155.487-.338.708-.517l1.723-1.255.014-.021c.025 0 .039 0 .057-.017.011.017.025 0 .036 0h.014z" class="G"/><path d="M374.431 357.37l-14.807 9.183 1.068-32.612 1.829-54.282a14.71 14.71 0 0 1 .281-2.431c.242-1.296.627-2.585 1.161-3.843 1.334-3.23 10.073-9.8 13.084-11.585.993-.541 3.274-1.886 6.196-3.633 8.934-5.246 23.848-14.016 26.507-14.636 2.452-.479 4.926.248 6.908 1.81.047 0 .075.024.1.079.281.245.523.479.751.738.192.296.338.606.477.903a9.15 9.15 0 0 1 .491.686v.013c.794 1.41 1.232 3.258 1.118 5.495l-2.972 77.842-1.054.673-33.61 20.868-7.528 4.732z" class="J"/><g class="I"><path d="M375.338 366.794l7.553-4.681 30.781-19.086.028.055-.092 4.419-30.269 19.052-4.061 2.557-8.197 5.174-10.091 6.332-.455-4.636 14.803-9.186z"/><path d="M416.659 245.341c-1.986-1.562-4.456-2.289-6.908-1.81-2.659.62-17.573 9.39-26.51 14.636l-6.193 3.633c-3.015 1.785-11.753 8.355-13.088 11.585-.53 1.258-.915 2.547-1.157 3.843-.167.814-.256 1.627-.281 2.431l-1.833 54.282-1.064 32.612.907 9.424-6.687-3.013-6.624-2.937c-2.228-3.76-6.596-11.802-8.76-19.909l9.671 4.357-.114-.117.391-8.252.894-19.524.107-2.223.142-3.041.424-8.92.149-3.027.288-6.011.815-17.314v-.014l.104-2.365.256-5.47.142-3.168c.057-1.01.196-2.04.445-3.078a22.04 22.04 0 0 1 2.175-5.701c.413-.752.868-1.472 1.352-2.161 1.463-2.093 3.25-3.878 5.204-5.091l.014-.028c2.043-1.668 4.218-3.178 6.105-4.447 8.688-5.784 22.669-13.977 32.372-16.486a28.13 28.13 0 0 1 1.007-.259c2.641-.613 4.922-.727 6.631-.217 4.1 1.368 8.186 4.677 10.471 8.597-.224-.259-.47-.493-.751-.738-.021-.055-.05-.079-.096-.079z"/></g><path d="M417.507 246.157c.424.503.755 1.034.968 1.589-.153-.245-.316-.465-.487-.686-.139-.296-.285-.607-.481-.903z" fill="#8d8d8e"/></g><rect width="120.171" height="14.788" rx="7.394" transform="matrix(.87268 -.488293 .511799 .859105 499.05 139.522)" fill="url(#B)" class="M"/><rect width="120.171" height="14.788" rx="7.394" transform="matrix(.87268 -.488293 .511799 .859105 555.56 422.159)" fill="url(#C)" class="M"/><rect width="120.171" height="14.788" rx="7.394" transform="matrix(.87268 -.488293 .511799 .859105 347.681 79.8654)" fill="url(#D)" class="M"/><rect width="100.143" height="20.07" rx="10.035" transform="matrix(.87268 -.488293 .511799 .859105 4.57953 293.065)" fill="url(#E)" class="M"/><rect width="100.143" height="20.07" rx="10.035" transform="matrix(.87268 -.488293 .511799 .859105 .54303 480.838)" fill="url(#F)" class="M"/><defs><linearGradient id="B" x1="120.171" y1="0" x2="0" y2="0" xlink:href="#G"><stop stop-color="#fff" stop-opacity=".01"/><stop offset="1" stop-color="#06cce2"/><stop offset="1" stop-color="#fff"/></linearGradient><linearGradient id="C" x1="120.171" y1="0" x2="0" y2="0" xlink:href="#G"><stop stop-color="#fff" stop-opacity=".01"/><stop offset="1" stop-color="#fa7564"/><stop offset="1" stop-color="#fff"/></linearGradient><linearGradient id="D" x1="120.171" y1="0" x2="0" y2="0" xlink:href="#G"><stop stop-color="#fff" stop-opacity=".01"/><stop offset="1" stop-color="#fff"/></linearGradient><linearGradient id="E" x1="100.143" y1="0" x2="0" y2="0" xlink:href="#G"><stop stop-color="#fff" stop-opacity=".01"/><stop offset="1" stop-color="#06cce2"/><stop offset="1" stop-color="#fff"/></linearGradient><linearGradient id="F" x1="100.143" y1="0" x2="0" y2="0" xlink:href="#G"><stop stop-color="#fff" stop-opacity=".01"/><stop offset="1" stop-color="#fa7564"/><stop offset="1" stop-color="#fff"/></linearGradient><linearGradient id="G" gradientUnits="userSpaceOnUse"/></defs></svg>