<svg xmlns="http://www.w3.org/2000/svg" xmlns:xlink="http://www.w3.org/1999/xlink" width="230" height="152" fill="none" xmlns:v="https://vecta.io/nano"><style><![CDATA[.B{fill:#135687}.C{fill:#f9f9fa}.D{fill:#fff}.E{fill:#26272c}.F{fill:#02ecf1}.G{fill:#250f8a}.H{fill-rule:evenodd}.I{fill:#efefef}.J{fill:#a4a6a8}]]></style><g class="H"><path opacity=".1" d="M15.175 56.46c-16.89 19.712 20.115 72.796 99.761 66.663s30.663-7.217 80.086-9.659-6.536-57.874-85.136-90.764S32.064 36.749 15.175 56.46z" class="F"/><g fill="#000"><path d="M137.461 47.059c.081-.043.171-.044.266.007 3.46-1.848 9.09-1.847 12.571 0 .093-.05.182-.05.262-.008-.663-.349-1.193-.538-1.198-.539a26 26 0 0 0-1.241-.398c-.196-.057-.464-.115-.664-.16-1.025-.227-2.284-.358-3.454-.357-1.189 0-2.418.128-3.46.359-.205.046-.478.105-.679.164a26.1 26.1 0 0 0-1.234.4c-.193.068-.441.179-.627.263-.165.075-.38.188-.542.268z"/><path d="M150.56 47.058l2.954 1.568 2.955 1.568 2.955 1.568 2.954 1.568 2.955 1.568 2.955 1.568 2.955 1.568 2.954 1.568 2.955 1.568 2.955 1.568c-.08-.042-.169-.042-.262.008L150.298 47.07c.093-.05.182-.05.262-.008zM61.746 87.494l7.572-4.044 7.571-4.043 7.572-4.043 7.571-4.044 7.572-4.043 7.572-4.043 7.571-4.044 7.572-4.043 7.571-4.043 7.572-4.044a.27.27 0 0 1 .266.007L62.013 87.5a.27.27 0 0 0-.266-.006z"/><path d="M179.845 62.742c3.482 1.847 3.5 4.843.04 6.691l-75.715 40.435c-3.458 1.847-9.087 1.848-12.568 0L62.055 94.191c-3.482-1.847-3.502-4.844-.043-6.691l75.715-40.434c3.46-1.848 9.09-1.847 12.571 0l29.547 15.676z"/></g></g><mask id="A" maskUnits="userSpaceOnUse" x="58" y="62" width="126" height="53" mask-type="alpha"><path d="M58.518 62.704h124.853v52.024H58.518V62.704z" class="D H"/></mask><g mask="url(#A)" class="G H"><path d="M183.322 66.889c-.054-.379-.128-.645-.167-.77a4.81 4.81 0 0 0-.319-.799c-.108-.22-.211-.374-.382-.629-.108-.162-.277-.365-.412-.508a8.23 8.23 0 0 0-.627-.589c-.234-.194-.577-.42-.834-.589-.136-.089-.332-.189-.474-.27-.08-.042-.169-.042-.262.008 3.482 1.847 3.5 4.843.039 6.691l-75.714 40.434c-3.458 1.848-9.087 1.848-12.568.001L62.055 94.191c-3.482-1.847-3.501-4.844-.043-6.691a.27.27 0 0 0-.266-.007 17.8 17.8 0 0 0-.873.535c-.125.082-.283.204-.396.3-.173.148-.402.347-.556.513a5.45 5.45 0 0 0-.545.671c-.377.564-.539 1.007-.649 1.367-.066.217-.121.474-.162.762-.035.245-.04.431-.047.689l-.001.378c-.001.252.032.504.1.754-.067-.25-.101-.502-.1-.754a5.14 5.14 0 0 0 .231 1.555c.197.649.527 1.143.635 1.305a5.3 5.3 0 0 0 .442.557c.188.201.46.452.672.632.228.193.568.411.821.576.133.087.325.185.464.264h0l29.547 15.676c.663.349 1.192.538 1.198.54a26.41 26.41 0 0 0 1.241.397c.196.057.464.115.664.16 1.024.227 2.283.357 3.453.357a16.44 16.44 0 0 0 3.459-.36c.204-.045.478-.105.678-.164.374-.11.868-.27 1.234-.4a8.19 8.19 0 0 0 .626-.263c.166-.075.38-.187.543-.268.092-.049.172-.153.235-.3-.063.147-.143.251-.235.3l30.286-16.174 45.428-24.261c.257-.146.6-.343.84-.511s.532-.412.748-.601a4.73 4.73 0 0 0 .451-.471 7.19 7.19 0 0 0 .416-.561c.207-.311.442-.816.545-1.174a5.28 5.28 0 0 0 .172-.756c.046-.299.051-.504.058-.763l.001-.377c-.004-.23-.007-.448-.049-.733z"/></g><g class="H"><g fill="#646764"><path d="M137.461 44.975c.081-.044.171-.044.266.006 3.46-1.848 9.09-1.847 12.571 0 .093-.05.182-.05.262-.008-.663-.349-1.193-.538-1.198-.539a26.35 26.35 0 0 0-1.241-.398c-.196-.057-.464-.115-.664-.159-1.025-.227-2.284-.358-3.454-.357-1.189 0-2.418.128-3.46.359-.205.046-.478.105-.679.165a26.1 26.1 0 0 0-1.234.4c-.193.068-.441.179-.627.263-.165.075-.38.188-.542.269z"/><path d="M150.56 44.973l2.954 1.568 2.955 1.568 2.955 1.568 2.954 1.568 2.955 1.568 2.955 1.567 2.955 1.568 2.954 1.568 2.955 1.567 2.955 1.568c-.08-.042-.169-.042-.262.008l-29.547-15.677c.093-.05.182-.05.262-.008zM61.746 85.409l7.572-4.043 7.571-4.043 7.572-4.044 7.571-4.043 7.572-4.043 7.572-4.044 7.571-4.043 7.572-4.043 7.571-4.044 7.572-4.043a.27.27 0 0 1 .266.007L62.013 85.416a.27.27 0 0 0-.266-.007z"/></g><path d="M179.845 60.658c3.482 1.847 3.5 4.843.04 6.691l-75.715 40.435c-3.458 1.847-9.087 1.847-12.568 0L62.055 92.106c-3.482-1.847-3.502-4.844-.043-6.691l75.715-40.434c3.46-1.848 9.09-1.848 12.571 0l29.547 15.676z" class="F"/><path d="M183.322 64.805c-.054-.379-.128-.645-.167-.77a4.81 4.81 0 0 0-.319-.799c-.108-.22-.211-.374-.382-.63a4.38 4.38 0 0 0-.412-.508 8.27 8.27 0 0 0-.627-.589c-.234-.195-.577-.42-.834-.588-.136-.089-.332-.189-.474-.27-.08-.042-.169-.042-.262.008 3.482 1.847 3.5 4.843.039 6.691l-75.714 40.435c-3.458 1.847-9.087 1.847-12.568 0L62.055 92.106c-3.482-1.847-3.501-4.844-.043-6.691a.27.27 0 0 0-.266-.007 17.88 17.88 0 0 0-.873.535c-.125.082-.283.204-.396.3-.173.148-.402.348-.556.513-.284.305-.453.533-.545.671a4.88 4.88 0 0 0-.649 1.366c-.066.217-.121.474-.162.762-.035.245-.04.431-.047.689l-.001.378a2.82 2.82 0 0 0 .1.754 2.86 2.86 0 0 1-.1-.754 5.14 5.14 0 0 0 .231 1.555c.197.649.527 1.143.635 1.305a5.28 5.28 0 0 0 .442.558c.188.201.46.452.672.632.228.193.568.411.821.576.133.087.325.185.464.264l29.547 15.677c.663.349 1.192.537 1.198.539a26.42 26.42 0 0 0 1.241.398c.196.057.464.115.664.159 1.024.227 2.283.358 3.453.357 1.189 0 2.416-.127 3.459-.359.204-.046.478-.106.678-.165a26.09 26.09 0 0 0 1.234-.399c.193-.069.441-.179.626-.263.166-.075.38-.188.543-.268.092-.049.172-.153.235-.3-.063.147-.143.251-.235.3l30.286-16.174 45.428-24.261c.257-.146.6-.343.84-.511a9.78 9.78 0 0 0 .748-.601 4.77 4.77 0 0 0 .451-.471 7.17 7.17 0 0 0 .416-.561 4.91 4.91 0 0 0 .545-1.174 5.27 5.27 0 0 0 .172-.755c.046-.3.051-.504.058-.763l.001-.377c-.004-.23-.007-.448-.049-.734zM162 56.586c.356.189.358.495.004.684a1.53 1.53 0 0 1-1.283-.001l-6.435-3.415c-.357-.189-.359-.495-.006-.683a1.53 1.53 0 0 1 1.285 0L162 56.586zm-10.154-5.388c.354.188.356.494.002.683s-.927.188-1.281 0-.359-.495-.006-.683a1.53 1.53 0 0 1 1.285 0zM82.204 94.249c1.777.943 1.788 2.471.021 3.414s-4.638.943-6.415 0-1.786-2.472-.021-3.414 4.638-.943 6.415 0z" class="G"/><path d="M76.24 94.666c1.767-.944 4.638-.943 6.415 0 .179.095.335.197.479.303-.221-.26-.529-.506-.932-.72-1.777-.943-4.648-.944-6.415 0-1.588.848-1.735 2.168-.457 3.112-.753-.888-.454-1.966.911-2.695z" fill="#263238"/><path d="M171.74 68.139c.534.283.537.742.006 1.025l-5.499 2.937-5.116 2.732-38.367 20.49-5.264 2.812-7.312 3.905-3.665 1.957c-.53.283-1.391.283-1.925 0L67.912 84.532c-.534-.283-.537-.742-.006-1.025l3.664-1.957 7.312-3.905 5.265-2.812 38.367-20.49 5.115-2.732 5.5-2.937c.53-.283 1.391-.283 1.925 0l36.686 19.465z" class="D"/><path d="M72.789 81.737l6.406-3.404 37.702 19.903-6.406 3.404-37.702-19.904zm32.991 22.27c-.28 0-.548-.057-.735-.157L68.447 84.284c-.144-.077-.175-.144-.175-.154s.029-.074.169-.15l3.43-1.846 37.619 20.111-2.981 1.605c-.185.099-.451.156-.73.156z" fill="#fa7564"/><path d="M85.32 74.898l37.371-20.11 37.619 20.112-37.371 20.111L85.32 74.898z" fill="#ffca00"/><path d="M80.068 77.724l4.349-2.341 37.619 20.112-4.35 2.34-37.619-20.112zm48.629-26.168l4.81-2.588c.185-.1.451-.157.73-.157s.548.057.735.157l36.598 19.566c.144.077.174.144.174.154s-.029.074-.169.15l-5.259 2.83-37.619-20.112zm-5.103 2.746l4.201-2.261 37.619 20.112-4.202 2.261-37.618-20.112z" fill="#fa7564"/><path d="M129.033 46.59l-4.785 2.575-38.524-20.596 4.785-2.575 38.524 20.596z" class="F"/><g class="B"><path d="M121.914 45.523l.527.844-.228.122-.527-.845.228-.12zm-.753-1.208l.527.844-.228.12-.527-.845.228-.12z"/><path d="M122.218 44.88l.226.363-.53.279-.228.12-.53.28-.226-.364.529-.279.229-.12.53-.279z"/></g><path d="M111.428 38.873l-.002.341-10.272-5.492.001-.341 10.273 5.492z" class="D"/><path d="M110.129 39.529l.001-.341-10.273-5.492-.001.341 10.273 5.492zm12.519 7.096l.005-1.417a.6.6 0 0 0-.297-.476l-1.332-.712c-.163-.087-.298-.018-.299.158l-.004 1.417a.6.6 0 0 0 .297.474l1.332.712c.164.088.297.018.298-.156zM85.745 21.739l38.524 20.596-.021 6.831L85.724 28.57l.021-6.831z" class="G"/><path d="M122.441 46.367l-.526-.844.53-.28-.226-.363-.531.279-.527-.844-.227.12.526.844-.53.279.226.364.531-.28.527.845.227-.122zm-.085-1.634c.165.088.297.301.296.476l-.004 1.417c0 .174-.134.244-.298.156l-1.332-.712a.6.6 0 0 1-.297-.474l.004-1.417c.001-.175.136-.245.299-.158l1.332.712z" class="D"/><path d="M122.644 50.021l-3.508 1.888-38.524-20.596 3.508-1.887 38.524 20.596z" class="F"/><path d="M88.621 32.426c.014-.009.023-.024.023-.05a.15.15 0 0 0-.023-.074c-.016-.025-.037-.044-.065-.059s-.048-.018-.064-.01-.021.026-.022.05.007.049.021.073.037.043.064.058.05.019.066.011zm.009.854l.002-.721-.153-.082-.002.722.153.081zm.328.175l.003-1.026-.153-.081-.003 1.026.153.081zm-1.748-1.51v-.152c-.014-.014-.032-.026-.054-.038-.065-.035-.116-.03-.153.013l-.004-.083-.146-.078-.002.722.153.082.002-.493c.024-.044.071-.048.142-.01.021.011.041.023.062.038zm3.162 2.266l.002-.477c-.003-.174-.074-.299-.216-.374-.081-.043-.147-.046-.198-.009l-.004-.085-.143-.076-.002.722.153.081.002-.514c.03-.043.075-.049.137-.015.042.023.072.051.09.081s.028.072.028.117l-.002.468.152.082zm.716.383v-.011a.48.48 0 0 1-.026-.171l.001-.325a.39.39 0 0 0-.071-.219c-.048-.068-.11-.122-.19-.165-.052-.028-.099-.042-.142-.045s-.076.006-.1.027-.037.051-.037.09l.151.081c0-.028.011-.045.034-.051s.051-.001.085.017c.041.022.071.05.09.083s.029.067.029.105v.048l-.095-.051c-.099-.053-.177-.075-.231-.062s-.081.056-.081.134c0 .06.022.123.065.188a.46.46 0 0 0 .167.151c.07.038.13.042.178.014a.41.41 0 0 0 .018.078l.156.083zm-2.7-2.346l.005-.124c-.03-.023-.058-.043-.085-.057-.075-.04-.134-.049-.175-.027s-.064.071-.064.151v.066l-.103-.055v.12l.103.055-.002.602.153.081.002-.601.139.074v-.12l-.138-.074v-.065c0-.08.037-.099.11-.061a.5.5 0 0 1 .058.035zm4.523 3.01v-.065c0-.116-.025-.218-.074-.306s-.123-.16-.215-.21c-.058-.031-.11-.042-.159-.037s-.084.031-.111.073-.038.1-.039.172v.02a.57.57 0 0 0 .088.306c.06.097.138.172.235.224.055.029.108.046.153.046s.081-.014.109-.043l-.083-.127c-.044.037-.101.037-.17-.001-.049-.026-.092-.067-.124-.119s-.051-.108-.056-.171l.444.237zm-3.215-1.719v-.065c0-.116-.025-.218-.075-.307a.52.52 0 0 0-.213-.209c-.059-.032-.112-.043-.158-.037s-.085.03-.111.073-.04.099-.04.171v.02c-.001.108.029.21.09.307s.138.172.234.223c.057.03.107.045.153.045s.082-.014.109-.043l-.082-.126c-.044.037-.101.037-.171-.001a.33.33 0 0 1-.123-.118.35.35 0 0 1-.056-.172l.444.237zm-1.811-1.012v-.038a.61.61 0 0 0-.093-.299.57.57 0 0 0-.223-.214c-.061-.033-.116-.047-.164-.043s-.085.03-.111.072-.04.101-.04.171v.007a.61.61 0 0 0 .085.317c.056.098.134.174.229.225.064.034.119.048.167.043a.14.14 0 0 0 .111-.071c.025-.042.038-.1.039-.17zm-1.16-.62v-.01c0-.116-.022-.22-.07-.31a.46.46 0 0 0-.195-.203c-.076-.041-.137-.045-.183-.01l-.005-.077-.141-.076-.003 1 .153.082.001-.343a.45.45 0 0 0 .179.174c.081.043.144.044.192.004s.071-.119.072-.23zm5.457 3.272l.002-.474a.45.45 0 0 0-.055-.225c-.037-.063-.093-.116-.168-.156-.089-.048-.158-.047-.208 0-.034-.092-.096-.163-.186-.211-.082-.044-.147-.048-.195-.015l-.004-.077-.144-.077-.002.722.153.082.002-.523c.026-.039.07-.043.13-.01.079.042.12.108.121.193l-.002.475.153.081.002-.495c.009-.028.024-.046.045-.054s.051-.003.085.015a.23.23 0 0 1 .095.084c.018.031.028.069.028.116l-.001.469.151.081zM83.8 32.01c.886.474 1.607.093 1.61-.85s-.714-2.093-1.6-2.566-1.608-.095-1.611.85.714 2.093 1.6 2.566zm-3.171-6.162l38.524 20.597-.017 5.467-38.523-20.597.017-5.467z" class="D"/><path d="M86.531 31.98c.027-.026.041-.082.041-.166 0-.072-.014-.137-.04-.193s-.065-.1-.116-.127c-.062-.033-.108-.029-.135.011l-.001.32c.028.071.073.123.135.157.048.026.086.025.115-.002zm.123-.392a.65.65 0 0 1 .07.31v.01c0 .111-.025.187-.071.23s-.112.04-.192-.004a.45.45 0 0 1-.179-.174l-.001.343-.153-.081.003-1 .141.075.005.077c.045-.035.106-.03.183.01a.46.46 0 0 1 .195.203z" class="B"/><path d="M86.417 31.494c.051.027.089.069.116.127s.041.121.04.193c0 .084-.015.14-.041.166s-.067.027-.115.002c-.062-.033-.107-.086-.135-.157l.001-.32c.027-.04.072-.044.135-.011z" class="D"/><path d="M92.761 35.059v-.012a.33.33 0 0 0-.041-.145.25.25 0 0 0-.099-.093c-.042-.023-.076-.026-.102-.008s-.043.051-.05.103l.291.156zm.149.135v.064l-.444-.237a.38.38 0 0 0 .056.172c.032.052.075.093.124.119.07.037.126.037.17 0l.083.127c-.028.029-.064.043-.109.043s-.098-.016-.153-.046c-.097-.052-.175-.127-.236-.224a.57.57 0 0 1-.088-.306v-.02c0-.072.013-.13.039-.172s.064-.067.111-.073.1.005.159.037c.092.049.164.119.214.21s.075.19.074.306z" class="B"/><path d="M92.621 34.809a.25.25 0 0 1 .099.094.33.33 0 0 1 .041.145v.012l-.291-.156c.008-.052.025-.087.05-.103s.059-.015.102.008zm-1.915-.73c.032-.005.08.008.145.041l.095.048v.145c-.016.021-.039.032-.069.033s-.063-.007-.096-.024a.25.25 0 0 1-.088-.074c-.022-.031-.034-.064-.033-.096 0-.042.016-.066.048-.072z" class="D"/><path d="M90.911 34.297v-.135l-.084-.045c-.057-.03-.099-.042-.128-.038s-.043.029-.043.068c0 .03.01.061.03.09s.045.051.078.069.058.023.085.023.047-.011.061-.031zm.15.117a.48.48 0 0 0 .026.171v.011l-.156-.083c-.007-.017-.013-.043-.018-.078-.048.029-.108.024-.178-.014a.46.46 0 0 1-.167-.151c-.042-.065-.065-.128-.065-.188 0-.078.028-.122.081-.134s.132.009.231.062l.095.051v-.048c0-.038-.01-.072-.029-.105s-.049-.061-.09-.083c-.034-.018-.062-.024-.085-.017s-.034.023-.034.051l-.151-.081c0-.039.011-.071.037-.09s.058-.031.1-.027.089.017.142.045c.08.043.142.097.19.165a.39.39 0 0 1 .072.219l-.001.325z" class="B"/><path d="M89.405 33.09c.042.023.075.053.099.093s.038.09.041.145v.012l-.29-.155c.008-.052.023-.087.05-.103s.059-.015.1.007z" class="D"/><path d="M87.688 32.596c.03-.026.044-.082.044-.163 0-.074-.015-.139-.044-.199s-.069-.1-.12-.127-.089-.027-.118 0-.044.08-.044.165c0 .074.014.14.042.197s.069.1.12.127.092.028.12 0zm.103-.405a.61.61 0 0 1 .093.299v.038c0 .071-.013.128-.039.17s-.062.066-.111.071-.103-.009-.167-.043c-.095-.051-.172-.127-.229-.225a.61.61 0 0 1-.085-.317v-.007c0-.071.013-.129.04-.171s.062-.066.111-.072.103.01.164.043a.57.57 0 0 1 .223.214z" class="B"/><path d="M87.568 32.108a.28.28 0 0 1 .12.127.44.44 0 0 1 .044.199c0 .081-.014.137-.044.163s-.068.029-.12 0-.091-.069-.12-.127a.44.44 0 0 1-.042-.197c0-.084.014-.138.044-.165s.068-.027.118 0zm-3.232-2.328l.227.363-.53.28-.228.12-.53.279-.227-.362.531-.28.228-.12.53-.28z" class="D"/><path d="M84.559 31.269l-.527-.845.531-.279-.227-.364-.53.28-.527-.845-.228.12.527.845-.53.28.227.362.53-.279.527.844.228-.119zm-.749-2.675c.886.474 1.603 1.622 1.6 2.566s-.725 1.323-1.611.85-1.603-1.624-1.6-2.566.724-1.323 1.61-.85z" class="I"/><path d="M84.032 30.423l.527.845-.228.119-.527-.844.228-.12zm-.753-1.208l.527.845-.228.12-.527-.845.228-.12z" class="D"/><g class="B"><path d="M87.156 31.756c.021.011.04.024.054.038v.152a.65.65 0 0 0-.062-.038c-.071-.038-.117-.034-.142.01l-.001.493-.153-.081.002-.722.146.078.004.083c.037-.043.088-.048.153-.013zm1.151.312a.6.6 0 0 1 .085.057l-.005.124a.5.5 0 0 0-.058-.035c-.072-.039-.109-.019-.11.061v.065l.138.074v.12l-.139-.074-.002.601-.153-.081.002-.602-.103-.055v-.12l.103.055v-.066c0-.08.022-.13.064-.151s.1-.012.175.028zm.169 1.131l.003-.722.198.081-.003.722-.198-.082z"/><path d="M88.58 32.472a.21.21 0 0 1-.082-.076c-.019-.031-.028-.062-.028-.095s.01-.054.028-.066.048-.006.083.013.064.044.084.077.029.065.029.096-.011.053-.029.064-.048.006-.085-.014z"/><path d="M89.006 32.43l-.004 1.025-.198-.082.004-1.025.198.082z"/><path d="M89.545 33.34v-.012c-.003-.056-.017-.104-.041-.145a.25.25 0 0 0-.099-.093c-.041-.022-.075-.025-.1-.007s-.043.051-.05.103l.29.155zm.151.135v.065l-.444-.237a.35.35 0 0 0 .056.172c.032.052.073.092.123.118.071.038.127.038.172.001l.082.127c-.027.029-.064.043-.109.043s-.096-.015-.153-.046c-.096-.051-.175-.127-.234-.223s-.09-.199-.09-.307v-.02c0-.072.013-.13.04-.171s.062-.068.11-.074.099.005.158.037a.52.52 0 0 1 .213.209c.051.089.076.191.076.307z"/><path d="M90.157 33.361a.4.4 0 0 1 .216.374l-.002.477-.153-.082.002-.468c0-.045-.01-.085-.028-.117s-.048-.059-.09-.081c-.062-.033-.107-.027-.137.015l-.002.514-.153-.082.002-.722.143.076.004.085c.051-.036.118-.034.198.009zm1.803.964c.075.04.131.093.168.156a.45.45 0 0 1 .055.225l-.002.474-.151-.081.002-.469c0-.047-.01-.085-.028-.116s-.051-.06-.094-.084c-.034-.018-.062-.023-.085-.015s-.037.025-.045.054l-.002.495-.153-.082.001-.475c-.001-.085-.042-.15-.121-.193-.061-.032-.104-.029-.13.01l-.002.523-.153-.082.002-.722.144.077.004.077c.048-.033.113-.028.195.015a.38.38 0 0 1 .186.211c.049-.047.119-.048.208 0z"/></g><path d="M100.007 62.194L80.871 72.492 42.347 51.896l19.136-10.298 38.524 20.596z" class="F"/><path d="M74.322 46.596c1.719.919 3.116.182 3.122-1.647s-1.382-4.056-3.101-4.974-3.117-.182-3.122 1.647 1.382 4.055 3.102 4.974zm-30.227-3.469L76.197 60.29l-6.331-13.591c-.316-.678-.825-1.205-1.335-1.478-.502-.269-1.006-.29-1.326.035l-2.531 2.561c-.321.326-.824.303-1.325.035-.536-.286-1.07-.853-1.378-1.572l-6.367-14.881c-.311-.727-.844-1.289-1.377-1.574-.565-.302-1.129-.293-1.429.16l-8.703 13.142zm-1.62-32.904l38.524 20.596-.127 41.673-38.524-20.596.128-41.673z" fill="#ffca00"/><path d="M54.227 29.825c.533.285 1.066.847 1.377 1.574l6.368 14.881c.308.719.842 1.286 1.378 1.572.501.268 1.003.291 1.325-.035l2.531-2.56c.32-.325.824-.304 1.326-.035.51.273 1.019.8 1.335 1.478l6.331 13.591-32.102-17.163L52.8 29.986c.3-.453.864-.462 1.428-.16zm20.115 10.149c1.719.919 3.107 3.145 3.102 4.974s-1.403 2.566-3.122 1.647-3.107-3.145-3.101-4.974 1.402-2.566 3.122-1.647z" class="D"/><path d="M79.25 73.398l-3.508 1.888L37.219 54.69l3.508-1.888L79.25 73.398z" class="F"/><g class="D"><path d="M39.269 52.243l.527.845-.227.12-.527-.845c-.063-.1-.063-.208.001-.241.031-.016.072-.011.113.011a.32.32 0 0 1 .113.11zm8.529 4.51a.31.31 0 0 1 .113.11c.064.102.063.209-.001.241l-.531.28-.227.12-.53.28c-.031.017-.072.012-.113-.01a.32.32 0 0 1-.114-.112c-.062-.099-.062-.207.001-.241l.531-.28.227-.12.53-.28c.032-.016.073-.011.114.011z"/><path d="M48.114 58.487l.004-1.417a.6.6 0 0 0-.297-.474l-1.332-.712c-.163-.087-.297-.017-.297.157l-.005 1.417a.6.6 0 0 0 .295.475l1.332.712c.165.088.298.018.299-.158zm-3.532-1.888l.005-1.417c.001-.174-.132-.386-.295-.473l-1.332-.712c-.165-.088-.298-.018-.299.156l-.004 1.417a.6.6 0 0 0 .297.476l1.332.712c.163.087.297.017.297-.158zm-3.827-2.046l.004-1.417c.001-.174-.132-.386-.295-.474l-1.332-.712c-.165-.088-.298-.018-.299.156l-.004 1.417a.6.6 0 0 0 .297.476l1.332.712c.163.087.297.017.297-.158zm-3.519-5.5L75.76 69.649l-.017 5.637L37.219 54.69l.017-5.637z"/><path d="M40.44 52.819c.041.022.082.06.114.111.062.101.062.208-.001.241l-.531.28-.227.12-.531.28c-.031.017-.072.012-.113-.01a.31.31 0 0 1-.113-.111c-.063-.1-.063-.208.001-.241l.531-.28.227-.12.53-.28c.031-.017.072-.011.113.011z"/></g><path d="M40.55 54.296l-.527-.845.531-.28c.062-.033.063-.14.001-.241a.32.32 0 0 0-.114-.111c-.041-.022-.082-.027-.113-.011l-.53.28-.527-.845c-.031-.05-.072-.088-.113-.11s-.082-.027-.114-.011c-.064.034-.064.141-.001.241l.527.845-.53.28c-.064.034-.064.141-.001.241a.31.31 0 0 0 .113.111c.041.022.082.027.113.01l.531-.28.527.845c.031.05.072.089.113.111s.082.027.114.01c.062-.033.062-.141.001-.241zm-.085-1.634c.163.087.296.3.295.474l-.004 1.417c-.001.175-.134.246-.297.158l-1.332-.712a.6.6 0 0 1-.297-.476l.005-1.417c.001-.174.134-.244.299-.156l1.332.712z" class="I"/><path d="M40.549 54.296c.062.101.062.208-.001.241-.032.017-.073.012-.114-.01s-.082-.061-.113-.111l-.527-.845.227-.12.527.845zm7.358 3.934c.063.102.063.209-.001.241-.032.017-.072.012-.113-.01a.32.32 0 0 1-.114-.112l-.527-.845.228-.12.527.845z" class="D"/><path d="M47.907 58.229l-.527-.845.531-.28c.064-.032.064-.14.001-.241a.31.31 0 0 0-.113-.11c-.041-.022-.082-.027-.114-.011l-.53.28-.527-.845c-.031-.05-.072-.088-.113-.11s-.082-.027-.114-.011c-.062.034-.063.142-.001.241l.527.845-.53.28c-.062.034-.063.142-.001.241.032.051.073.09.114.112s.082.027.113.01l.531-.28.527.845c.032.051.073.09.114.112s.082.027.113.01c.064-.032.064-.14.001-.241zm-.085-1.634a.6.6 0 0 1 .297.474l-.004 1.417c-.001.175-.134.245-.299.157l-1.332-.712a.6.6 0 0 1-.295-.475l.005-1.417c0-.174.134-.244.297-.157l1.332.712z" class="I"/><path d="M46.627 56.177l.527.845-.227.12-.527-.845c-.062-.099-.062-.207.001-.241.032-.016.073-.011.114.011s.082.06.113.11z" class="D"/><path d="M44.377 56.341l-.527-.845.531-.28c.062-.033.063-.14.001-.241a.32.32 0 0 0-.114-.111c-.041-.022-.082-.027-.113-.011l-.53.28-.527-.845c-.031-.05-.072-.088-.113-.11s-.083-.027-.114-.011c-.064.034-.064.141 0 .241l.527.845-.53.28c-.064.034-.064.141-.001.241.031.05.072.089.113.111s.083.027.114.01l.53-.28.527.845a.31.31 0 0 0 .112.111c.041.022.083.027.114.01.062-.033.063-.14.001-.241zm-.085-1.633a.6.6 0 0 1 .295.474l-.004 1.417c0 .175-.134.246-.297.158l-1.332-.712a.6.6 0 0 1-.297-.476l.005-1.417c.001-.174.134-.244.299-.156l1.332.712z" class="I"/><g class="D"><path d="M44.376 56.342c.062.101.062.208-.001.241-.032.017-.073.012-.114-.01a.31.31 0 0 1-.112-.111l-.527-.845.227-.12.527.845z"/><path d="M44.267 54.865a.32.32 0 0 1 .114.11c.062.101.062.209-.001.241l-.531.28-.227.12-.53.28c-.031.017-.072.012-.114-.01a.31.31 0 0 1-.113-.111c-.063-.1-.063-.208.001-.241l.53-.28.228-.12.531-.28c.031-.017.072-.011.113.011z"/><path d="M43.096 54.289l.527.845-.227.12-.527-.845c-.063-.1-.063-.208.001-.241.031-.016.072-.011.114.011s.082.061.113.11z"/></g><path d="M74.408 75.971l-6.034 3.247-38.524-20.596 6.034-3.247 38.524 20.596z" class="F"/><path d="M62.75 71.983l.001-.219c0-.092-.011-.164-.033-.22s-.061-.096-.112-.123-.088-.027-.11.001-.036.085-.037.17l-.001.219a.58.58 0 0 0 .035.222c.024.056.06.099.111.126s.086.027.109-.003.037-.086.037-.173zm.079-.471c.048.095.073.209.074.347v.167c0 .14-.025.232-.074.278s-.125.039-.225-.015-.172-.127-.221-.222a.75.75 0 0 1-.077-.348v-.168c.001-.14.026-.23.075-.275s.125-.039.226.016.174.127.223.222z" class="B"/><path d="M62.606 71.421c.051.027.088.068.111.123a.59.59 0 0 1 .033.219l-.001.219c0 .087-.013.145-.037.173s-.059.03-.109.004-.087-.07-.111-.126a.58.58 0 0 1-.035-.222l.001-.219c.002-.085.013-.142.037-.17s.059-.028.11-.001zm-.731-.137a.29.29 0 0 1 .134.153l-.001.319c-.03.04-.075.043-.136.01-.049-.026-.089-.067-.116-.124a.43.43 0 0 1-.042-.194c0-.083.015-.137.043-.164s.067-.028.117 0zm-3.032-.232c.052.028.089.069.111.123s.035.129.035.219l-.001.219c-.002.088-.013.145-.037.174s-.059.03-.109.003a.25.25 0 0 1-.112-.127c-.025-.058-.035-.13-.035-.222l.001-.219c0-.086.013-.142.037-.168s.059-.028.109-.002z" class="C"/><path d="M58.782 70.03v-.137l-.084-.044c-.057-.03-.099-.042-.128-.036s-.043.027-.043.066c0 .031.01.061.029.089s.045.053.078.07.058.024.085.022.047-.011.061-.029zm.15.117a.48.48 0 0 0 .026.169v.01l-.155-.083a.36.36 0 0 1-.018-.076c-.048.027-.108.022-.178-.016a.45.45 0 0 1-.167-.151.34.34 0 0 1-.064-.188c0-.077.027-.121.081-.135s.132.009.23.062l.095.051v-.047a.2.2 0 0 0-.029-.106c-.02-.033-.049-.061-.09-.083-.034-.018-.062-.023-.085-.017s-.034.024-.034.052l-.151-.081c0-.041.011-.071.037-.092s.058-.031.101-.028a.36.36 0 0 1 .141.046c.081.043.142.099.191.167s.07.14.072.218l-.001.326z" class="B"/><path d="M58.746 70.077c-.03.002-.063-.006-.096-.023s-.066-.043-.088-.075-.034-.062-.033-.096c0-.042.016-.065.048-.071s.081.007.145.039l.095.047-.001.147c-.016.019-.039.031-.069.031z" class="C"/><path d="M58.246 71.385l.001-.317c-.028-.069-.073-.122-.134-.154-.051-.027-.09-.027-.117.001s-.042.083-.043.165a.43.43 0 0 0 .042.194c.027.055.066.097.116.124.061.032.106.028.136-.012zm.017-.51l.137.073-.002.699c0 .095-.028.156-.084.179s-.13.013-.224-.036c-.051-.027-.099-.064-.145-.111s-.085-.096-.109-.144l.072-.059a.44.44 0 0 0 .173.182c.049.026.091.033.119.02s.044-.049.044-.106v-.048c-.044.029-.102.024-.175-.016-.079-.042-.144-.11-.194-.205s-.075-.201-.074-.32c0-.111.025-.189.074-.228s.116-.039.198.005a.44.44 0 0 1 .182.183l.007-.069z" class="B"/><g class="C"><path d="M58.113 70.914c.061.033.106.085.134.155l-.001.317c-.03.04-.075.044-.136.012-.049-.026-.089-.069-.115-.124a.43.43 0 0 1-.042-.194c0-.083.015-.137.043-.165s.067-.028.117-.001z"/><path d="M57.313 70.778c.032-.005.081.008.145.041l.094.047-.001.145c-.014.022-.039.03-.068.034a.21.21 0 0 1-.099-.025c-.037-.019-.066-.043-.089-.074s-.032-.063-.032-.097c0-.04.016-.064.049-.071z"/></g><path d="M57.336 69.059l-.184-.076.049-.191.182.075-.047.192z" class="B"/><path d="M57.383 68.867l-.047.192-.184-.076.049-.191.182.075z" class="C"/><path d="M55.019 69.66v-.135l-.084-.045c-.057-.03-.099-.043-.128-.038s-.043.028-.043.066c0 .032.01.062.029.091s.045.051.078.069.058.023.085.023.047-.011.061-.03zm.15.117c0 .065.008.122.025.169v.012l-.155-.083c-.006-.017-.011-.042-.017-.077-.048.028-.108.024-.178-.014a.46.46 0 0 1-.167-.151.34.34 0 0 1-.065-.188c0-.078.027-.122.081-.135s.131.009.23.062l.095.051v-.048c0-.037-.01-.073-.029-.104s-.05-.061-.09-.083c-.034-.018-.062-.024-.085-.017s-.034.023-.034.051l-.153-.082c0-.039.013-.07.039-.091s.058-.029.101-.028.089.019.141.047c.08.043.143.097.19.165a.39.39 0 0 1 .072.219l-.001.325z" class="B"/><path d="M54.814 69.442c.032-.005.08.008.145.041l.095.048-.001.145c-.016.021-.039.031-.069.033s-.063-.007-.097-.024a.25.25 0 0 1-.088-.073c-.022-.03-.034-.064-.033-.098 0-.04.016-.064.048-.071zm-.512-2.042v.009l-.34-.182c.009-.06.029-.101.059-.12s.071-.016.119.009.086.063.114.113a.39.39 0 0 1 .048.172z" class="C"/><g class="B"><path d="M53.822 68.634l-.15-.08-.036.19.138.074v.105l-.158-.085-.048.249-.106-.056.049-.248-.14-.075-.049.248-.106-.057.049-.248-.144-.077v-.105l.164.088.036-.19-.152-.082v-.105l.172.092.049-.252.104.056-.049.253.141.076.049-.252.104.056-.049.252.13.069v.105z"/><path d="M53.572 68.691l-.182-.076.049-.191.182.076-.049.192z"/></g><path d="M53.39 68.615l.049-.191.182.076-.049.192-.182-.076zm-.191-1.805v.009l-.339-.181c.007-.061.027-.101.06-.12s.071-.016.117.009a.29.29 0 0 1 .116.113c.028.05.043.106.046.171zm-5.526-2.605a.34.34 0 0 1-.14-.147.46.46 0 0 1-.051-.22c0-.09.017-.152.053-.181s.082-.028.139.002a.34.34 0 0 1 .141.149.47.47 0 0 1 .052.22c-.001.089-.017.149-.052.179s-.082.03-.142-.002z" class="C"/><path d="M47.815 64.207c.034-.03.051-.09.051-.179a.47.47 0 0 0-.052-.22c-.035-.069-.082-.117-.141-.149s-.103-.031-.139-.002-.053.091-.053.181c0 .08.016.154.052.22a.34.34 0 0 0 .14.147c.06.032.106.032.142.002zm.083-.428a.63.63 0 0 1 .084.317v.009c0 .069-.012.126-.037.168s-.062.068-.109.073-.102-.008-.163-.04a.55.55 0 0 1-.223-.222.62.62 0 0 1-.086-.315v-.009c0-.071.014-.126.04-.17s.063-.067.109-.072.1.007.16.039c.093.05.168.125.224.222z" class="E"/><path d="M46.23 63.085v.009l-.341-.182c.009-.06.029-.101.06-.12s.071-.016.117.009a.3.3 0 0 1 .116.113c.029.05.043.106.048.172zm-2.51.134c.061.032.106.085.135.155l-.001.317c-.03.04-.076.043-.137.011a.28.28 0 0 1-.116-.124.43.43 0 0 1-.042-.194c0-.083.015-.137.043-.165s.067-.028.117 0zm-3.928-3.774a.34.34 0 0 1 .141.149c.035.068.052.141.052.22 0 .089-.017.149-.053.178s-.081.03-.14-.001-.106-.081-.14-.147a.48.48 0 0 1-.052-.22c0-.09.017-.152.053-.181s.081-.029.139.002zm-.794 1.474l.049-.191.182.075-.047.192-.184-.076z" class="C"/><g class="B"><path d="M39.429 60.939l-.148-.079-.037.189.139.074v.105l-.159-.085-.047.249-.105-.056.047-.249-.14-.075-.049.248-.105-.056.048-.249-.144-.077v-.105l.164.088.036-.19-.151-.081v-.105l.171.091.049-.252.106.056-.05.252.141.076.049-.252.105.056-.049.252.13.07v.105z"/><path d="M39.181 60.996l-.184-.076.049-.191.182.075-.047.192z"/></g><path d="M38.047 58.541c.042.023.075.054.099.095s.037.089.041.145v.012l-.291-.156c.007-.052.024-.087.05-.105s.059-.015.102.008zm-.792.969c.051.027.088.068.111.123a.58.58 0 0 1 .035.219v.22c-.002.088-.015.144-.037.174s-.061.029-.109.004-.089-.07-.113-.128a.58.58 0 0 1-.035-.222l.001-.219c.002-.085.015-.141.037-.168s.061-.028.11-.001zm-.731-.139c.061.032.106.085.135.155l-.001.317c-.03.04-.076.043-.137.011-.049-.027-.087-.068-.115-.124a.43.43 0 0 1-.041-.194c0-.083.013-.137.042-.166s.067-.028.117 0z" class="C"/><path d="M36.335 58.028l.001-.137-.082-.044c-.057-.03-.099-.042-.128-.037s-.043.027-.043.066c0 .032.01.061.03.089s.045.053.078.07.058.023.085.021.047-.011.06-.03zm.152.118c0 .065.008.12.025.168v.011l-.155-.083c-.006-.017-.011-.042-.017-.075-.048.027-.108.022-.178-.016s-.124-.086-.166-.151a.33.33 0 0 1-.065-.188c0-.077.027-.121.081-.135s.132.009.231.062l.093.05v-.047a.2.2 0 0 0-.028-.105c-.02-.033-.05-.061-.09-.083-.034-.018-.064-.023-.085-.017s-.034.024-.034.053l-.153-.082c0-.04.013-.07.038-.091s.058-.031.1-.028.089.018.142.045a.54.54 0 0 1 .19.167c.047.067.07.14.072.217l-.001.326z" class="B"/><path d="M36.132 57.812c.032-.006.081.007.145.039l.093.047v.147c-.014.02-.037.031-.068.032a.2.2 0 0 1-.097-.023c-.034-.017-.066-.043-.089-.075s-.034-.062-.034-.096c0-.042.016-.065.049-.071zm-1.162-.751v.012l-.29-.155c.008-.052.023-.087.049-.105s.061-.014.102.008a.24.24 0 0 1 .099.095c.024.04.038.09.041.145z" class="C"/><path d="M34.971 57.073v-.012c-.003-.055-.017-.105-.041-.145s-.056-.072-.099-.095-.075-.025-.102-.008-.041.053-.049.105l.29.155zm.15.134v.066l-.444-.237a.36.36 0 0 0 .055.171.34.34 0 0 0 .124.118c.071.038.127.038.172.001l.082.128c-.027.028-.064.043-.109.043s-.096-.017-.153-.047a.61.61 0 0 1-.234-.222.57.57 0 0 1-.09-.307v-.02c0-.072.013-.13.04-.173s.063-.067.111-.073.099.005.158.036a.52.52 0 0 1 .213.209.61.61 0 0 1 .076.307zm-2.007-.878c.028-.029.044-.082.044-.165 0-.074-.015-.139-.044-.197s-.069-.102-.12-.129-.089-.027-.119 0-.044.082-.044.165c0 .075.015.141.043.198a.28.28 0 0 0 .12.127c.051.027.092.028.12.001zm.103-.407a.62.62 0 0 1 .093.3v.038c0 .072-.013.128-.039.17a.15.15 0 0 1-.11.072c-.046.007-.103-.01-.167-.044a.57.57 0 0 1-.229-.223c-.058-.099-.086-.205-.085-.318v-.007c0-.071.013-.127.04-.17s.062-.067.11-.072.103.009.164.041a.57.57 0 0 1 .223.214z" class="B"/><path d="M32.994 55.839a.28.28 0 0 1 .12.129c.03.06.045.123.044.197 0 .083-.016.136-.044.165s-.068.027-.12-.001a.28.28 0 0 1-.12-.127.43.43 0 0 1-.043-.198c0-.083.016-.138.045-.164s.069-.026.119 0zm-1.152-.126a.29.29 0 0 1-.135-.157l.001-.32c.028-.039.072-.043.134-.009.051.027.089.069.116.125a.44.44 0 0 1 .041.193c0 .084-.015.14-.042.168s-.067.026-.115 0z" class="C"/><path d="M36.298 55.625v-.012c-.003-.056-.017-.105-.041-.145s-.056-.072-.099-.095-.075-.024-.102-.008-.041.053-.048.105l.29.155zm.151.134v.066l-.444-.237c.004.061.022.119.055.171s.075.093.124.119c.071.038.127.038.171.001l.082.126c-.027.029-.064.043-.109.043s-.096-.015-.153-.046c-.096-.051-.175-.127-.234-.223s-.09-.199-.09-.307v-.02c0-.072.013-.13.04-.173s.062-.068.111-.073.099.006.158.038c.092.049.162.118.213.207s.076.193.076.307z" class="B"/><path d="M36.298 55.613v.012l-.29-.155c.007-.052.023-.087.048-.105s.061-.014.102.008a.24.24 0 0 1 .099.095c.024.04.038.089.041.145zm5.742 5.451c0-.089.071-.096.214-.02l.09.048v.149c-.014.024-.038.038-.071.04s-.066-.005-.103-.025-.07-.047-.093-.083a.19.19 0 0 1-.036-.11z" class="C"/><g class="B"><path d="M34.138 53.927l-.279.333.281.641-.185-.099-.195-.461-.198.252-.185-.099.284-.339-.274-.629.182.098.191.453.193-.248.184.098zm.637.261l-.004 1.026-.198-.082.004-1.026.198.082zm.125 1.119l.003-.721.198.081-.003.722-.198-.082z"/><path d="M35.005 54.581c-.037-.02-.065-.046-.083-.078s-.029-.063-.029-.094.01-.054.03-.065.046-.009.083.011a.2.2 0 0 1 .082.078c.018.032.029.063.029.096s-.01.054-.03.063-.048.008-.083-.011zm.369-.048l-.002.591.048-.038.189-.123.182.097-.253.166.277.57-.177-.094-.2-.417-.068.037-.001.236-.153-.082.003-1.025.153.081zm1.447 1.065c.081.043.145.099.196.168s.075.138.074.207l-.153-.082c0-.032-.011-.063-.032-.095a.24.24 0 0 0-.086-.078c-.035-.019-.061-.023-.082-.018s-.033.02-.033.049.01.049.029.073.059.06.119.105a1.14 1.14 0 0 1 .141.125.47.47 0 0 1 .076.111.28.28 0 0 1 .024.111c0 .066-.026.105-.075.118s-.117-.001-.199-.045a.6.6 0 0 1-.148-.113.52.52 0 0 1-.101-.142c-.024-.05-.037-.098-.037-.141l.148.079a.19.19 0 0 0 .041.111.28.28 0 0 0 .099.084c.041.021.071.029.092.025s.031-.021.031-.048-.011-.057-.032-.084a.63.63 0 0 0-.112-.099 1.12 1.12 0 0 1-.13-.115c-.076-.08-.114-.156-.114-.231 0-.062.026-.101.075-.116s.112-.002.188.039zm-4.864.114c.027-.028.041-.084.042-.168a.45.45 0 0 0-.04-.193c-.027-.056-.065-.098-.116-.125-.062-.033-.106-.03-.134.009l-.001.32c.028.072.073.124.135.157.048.026.086.025.115 0zm.123-.394c.048.092.07.194.07.311v.009c0 .111-.025.189-.072.23s-.112.039-.192-.004a.45.45 0 0 1-.179-.174l-.001.343-.152-.082.003-1 .141.076.006.077c.045-.033.106-.031.182.01a.46.46 0 0 1 .195.204zm1.822 1.612l.003-.722.198.081-.003.722-.198-.082z"/><path d="M34.006 56.203c-.035-.019-.062-.043-.083-.076a.18.18 0 0 1-.027-.093c0-.033.009-.056.028-.068s.048-.006.083.013.064.044.084.076.029.065.029.098-.011.051-.03.063-.048.006-.085-.014z"/><path d="M34.432 56.163l-.004 1.024-.198-.082.004-1.024.198.081zm1.151.929a.4.4 0 0 1 .216.374l-.002.477-.153-.082.001-.467c0-.045-.009-.085-.028-.116s-.048-.059-.09-.081c-.062-.033-.107-.029-.139.015l-.002.513-.151-.081.002-.722.143.076.004.086c.051-.037.116-.036.198.008zm1.803.964c.075.04.132.093.167.155a.46.46 0 0 1 .056.226l-.001.474-.152-.082.001-.469c0-.045-.008-.084-.026-.115s-.051-.059-.094-.082c-.034-.018-.062-.024-.085-.017s-.037.027-.045.054l-.002.495-.153-.082.002-.475c-.001-.085-.042-.149-.121-.191-.062-.033-.105-.03-.13.01l-.002.522-.153-.082.002-.721.144.077.004.078c.047-.034.113-.028.195.015.09.048.152.119.186.211.05-.047.119-.048.208 0z"/></g><g class="E"><path d="M39.456 58.927l-.317.442-.001.361-.12-.064.001-.361-.313-.779.139.074.236.616.239-.361.137.073zm.476 1.065c.035-.029.052-.089.053-.178a.47.47 0 0 0-.052-.22.34.34 0 0 0-.141-.149c-.058-.031-.103-.031-.139-.002s-.053.091-.053.181c0 .08.017.153.052.22s.081.115.14.147.106.032.14.001zm.085-.427a.63.63 0 0 1 .084.317v.009c0 .069-.013.125-.039.167s-.061.068-.109.073-.1-.007-.161-.04c-.092-.049-.167-.122-.223-.222a.61.61 0 0 1-.085-.315v-.009c0-.07.013-.127.04-.17a.14.14 0 0 1 .109-.072c.047-.005.1.007.16.039a.57.57 0 0 1 .224.222z"/><path d="M40.778 59.884l-.002.721-.11-.059-.001-.071c-.045.033-.112.025-.199-.023a.41.41 0 0 1-.165-.154.46.46 0 0 1-.057-.229l.002-.471.116.062-.001.466c0 .11.042.188.125.232.089.048.148.043.177-.011l.002-.526.116.062zm.766.396a.52.52 0 0 1 .189.175c.049.075.077.153.08.231l-.109-.058c-.004-.049-.02-.095-.051-.141a.3.3 0 0 0-.11-.104c-.059-.032-.105-.033-.137-.006s-.048.084-.049.17v.024a.45.45 0 0 0 .048.217c.033.061.078.109.138.142.041.022.077.027.108.018s.048-.034.053-.073l.109.058c-.002.041-.016.073-.04.097s-.058.035-.099.036a.27.27 0 0 1-.13-.036c-.093-.05-.167-.122-.22-.216s-.081-.198-.081-.313v-.021c0-.071.012-.126.036-.169s.06-.064.105-.07.099.006.161.04z"/><path d="M42.344 61.241v-.149l-.09-.048c-.143-.076-.214-.069-.214.02a.19.19 0 0 0 .036.11c.024.035.055.063.093.083s.071.028.103.025.057-.016.071-.04zm.116.095c0 .066.008.123.024.171v.01l-.121-.065c-.007-.018-.011-.045-.015-.084-.055.029-.119.025-.194-.015-.067-.036-.121-.085-.165-.149s-.063-.126-.063-.187c0-.075.027-.118.081-.131s.129.006.226.058l.113.061v-.056c0-.044-.011-.084-.035-.122a.28.28 0 0 0-.107-.095c-.042-.023-.076-.03-.105-.023s-.043.025-.043.057l-.116-.062c0-.036.011-.065.035-.085s.057-.03.099-.027a.33.33 0 0 1 .136.043.5.5 0 0 1 .183.161.38.38 0 0 1 .067.208l-.001.332z"/><path d="M42.96 61.036c.144.077.216.203.217.375l-.001.477-.116-.062.002-.477c-.001-.053-.013-.098-.033-.134s-.056-.068-.103-.093c-.037-.02-.071-.027-.099-.021s-.051.023-.067.049l-.002.514-.116-.062.002-.722.11.059.003.093c.052-.043.12-.041.204.004zm1.557.846l-.2.616-.093-.05-.164-.634-.163.46-.093-.05-.195-.827.116.062.133.613.158-.458.093.05.161.639.132-.482.116.062zm.56 1.023l.003-.721.151.062-.003.722-.15-.062z"/><path d="M45.16 62.141c-.03-.016-.051-.037-.066-.063s-.024-.052-.024-.078.007-.045.024-.054.037-.008.067.008a.16.16 0 0 1 .066.063c.015.026.022.053.022.078s-.008.043-.023.053-.037.008-.066-.008zm.379.113l-.001.175.126.067v.096l-.126-.067-.001.448c0 .028.005.054.017.074s.03.038.058.053a.24.24 0 0 0 .055.02v.101a.46.46 0 0 1-.089-.036.28.28 0 0 1-.117-.112c-.027-.047-.039-.102-.039-.164l.002-.446-.125-.067V62.3l.124.066v-.174l.116.062z"/><path d="M46.23 63.093v-.009c-.004-.065-.019-.122-.047-.172s-.066-.087-.116-.113-.086-.028-.117-.009-.051.06-.06.12l.341.182zm.116.114v.051l-.459-.245a.42.42 0 0 0 .058.204.35.35 0 0 0 .142.141c.041.022.076.031.105.03a.13.13 0 0 0 .074-.033l.072.099c-.058.061-.143.062-.256.002-.092-.049-.167-.121-.224-.216s-.087-.197-.087-.304v-.023a.33.33 0 0 1 .04-.171c.026-.042.061-.068.108-.075s.096.003.15.032c.089.048.157.116.206.204a.61.61 0 0 1 .073.305zm.957.165l-.275.689c-.043.096-.111.12-.203.071l-.021-.013-.044-.033v-.099l.031.018c.04.021.071.03.092.025s.04-.027.054-.065l.027-.059-.241-.844.127.068.168.632.16-.457.124.067zm1.358.726l-.002.722-.11-.059-.003-.072c-.045.033-.112.025-.199-.022-.072-.038-.127-.091-.165-.154s-.056-.142-.056-.229l.002-.471.116.062-.001.466c0 .11.04.187.125.232s.147.043.177-.011l.002-.526.116.062z"/><path d="M49.113 64.326a.19.19 0 0 1 .051.038v.114c-.017-.012-.036-.023-.057-.035-.076-.041-.127-.033-.154.022l-.001.511-.116-.062.002-.721.112.06.002.086c.038-.044.092-.049.161-.012z"/><path d="M49.747 64.504v.174l.127.068v.096l-.127-.068-.002.448c0 .028.006.054.017.074s.031.039.058.054a.28.28 0 0 0 .055.021v.101a.44.44 0 0 1-.089-.035c-.052-.028-.09-.065-.117-.112s-.039-.102-.039-.164l.001-.446-.123-.066v-.096l.123.066v-.175l.116.062z"/><path d="M50.438 65.343v-.009a.36.36 0 0 0-.048-.172.28.28 0 0 0-.114-.112c-.047-.025-.086-.028-.119-.009s-.051.06-.058.121l.339.181zm.116.114v.051l-.459-.246c.001.071.021.139.058.204a.37.37 0 0 0 .142.141c.041.022.076.032.105.031s.054-.014.075-.032l.07.098c-.057.062-.143.062-.256.002-.092-.049-.167-.121-.224-.217s-.086-.196-.086-.303v-.023a.33.33 0 0 1 .039-.172c.025-.042.062-.067.109-.074s.096.004.15.032c.087.047.157.116.204.203a.61.61 0 0 1 .073.305z"/><path d="M51.203 65.457l-.223.239.228.486-.134-.072-.156-.353-.158.185-.135-.073.23-.241-.221-.477.134.072.148.344.152-.184.136.073z"/><path d="M51.483 65.432v.175l.127.068v.096l-.127-.068-.002.448c0 .028.006.054.017.074s.031.039.058.053a.3.3 0 0 0 .055.02v.101a.46.46 0 0 1-.089-.036c-.052-.028-.09-.065-.117-.112s-.039-.103-.039-.164l.001-.446-.123-.066v-.096l.123.066v-.174l.116.062zm.697.245l-.001.389c.051-.039.117-.038.201.007.143.076.214.202.215.374l-.001.476-.116-.062.002-.477c0-.053-.011-.098-.034-.134s-.056-.068-.102-.092c-.038-.02-.071-.027-.099-.022s-.051.022-.067.049l-.002.514-.117-.063.003-1.024.117.063zm1.547 1.116a.19.19 0 0 1 .051.038v.114l-.057-.035c-.076-.041-.127-.033-.154.022l-.001.511-.117-.063.002-.722.113.061.002.086c.038-.044.092-.049.161-.012z"/><path d="M54.302 67.409V67.4a.39.39 0 0 0-.048-.172c-.028-.05-.066-.087-.114-.112s-.086-.028-.119-.009-.051.06-.059.12l.34.182zm.116.114v.051l-.459-.245a.43.43 0 0 0 .057.204c.036.065.084.11.142.141a.21.21 0 0 0 .105.031.13.13 0 0 0 .075-.032l.07.098c-.057.062-.143.062-.256.002a.58.58 0 0 1-.224-.216c-.058-.096-.086-.197-.085-.303v-.023c0-.072.013-.13.039-.172s.062-.067.107-.075.096.003.152.033a.5.5 0 0 1 .204.203.61.61 0 0 1 .073.305zm1.303.047l-.002.62.063-.046.212-.125.141.076-.265.161.294.577-.137-.073-.235-.46-.072.043-.001.252-.116-.062.003-1.024.116.062z"/><path d="M56.347 68.784c.031.017.055.037.072.066s.024.054.024.082-.009.044-.024.054-.041.006-.072-.011-.053-.036-.07-.065-.022-.051-.022-.079.008-.047.022-.057.039-.007.07.01z"/></g><g class="B"><path d="M57.584 69.003l-.15-.08-.036.19.138.074v.107l-.158-.085-.048.247-.104-.056.047-.247-.14-.075-.049.246-.106-.056.049-.247-.144-.077v-.107l.164.088.036-.19-.153-.082v-.105l.172.092.049-.252.104.056-.049.252.141.076.049-.252.105.056-.049.252.13.07v.105z"/><path d="M57.836 68.701l-.001.382c.051-.034.113-.033.19.008.144.077.217.205.22.383l-.001.47-.153-.081.001-.465c0-.05-.01-.091-.03-.123s-.049-.057-.089-.078c-.061-.033-.106-.028-.137.012l-.002.516-.151-.081.003-1.024.151.081zm2.072 1.108l-.001.382c.05-.035.112-.034.188.007.146.078.217.205.22.383l-.001.471-.153-.081.001-.465c0-.05-.01-.091-.029-.122s-.051-.057-.09-.078c-.061-.032-.106-.028-.136.013l-.002.516-.152-.082.003-1.024.153.081z"/><path d="M60.661 70.339l-.001.174.12.064v.12l-.12-.064-.001.403c0 .029.005.051.016.069s.028.033.055.047c.017.009.035.017.052.022v.125c-.034-.008-.068-.021-.099-.038-.118-.063-.176-.162-.176-.3l.001-.409-.111-.06v-.12l.112.06v-.174l.153.082z"/><path d="M61.278 71.365v-.137l-.082-.044c-.057-.03-.099-.043-.128-.037s-.043.027-.043.066c0 .031.01.061.028.088s.045.053.079.071.058.024.085.021.047-.011.06-.03zm.152.118a.5.5 0 0 0 .025.168v.011l-.155-.083c-.007-.017-.013-.043-.017-.075-.05.026-.109.021-.178-.016s-.124-.086-.168-.152-.063-.126-.063-.187c0-.077.027-.121.081-.135s.13.008.23.062l.093.05v-.047a.2.2 0 0 0-.029-.106c-.02-.033-.049-.061-.089-.082s-.063-.023-.086-.017-.033.025-.033.053l-.153-.082c0-.041.013-.07.037-.092s.058-.031.101-.027a.36.36 0 0 1 .143.046c.079.042.143.099.189.166s.072.141.073.218l-.001.326z"/><path d="M62.008 71.755l.001-.319a.29.29 0 0 0-.134-.153c-.051-.027-.09-.027-.117 0s-.043.081-.043.164a.43.43 0 0 0 .042.194c.027.057.066.097.116.124.061.032.106.03.136-.01zm.017-.511l.137.073-.002.701c0 .095-.028.154-.084.18s-.13.012-.224-.038c-.05-.026-.099-.064-.145-.111s-.083-.094-.109-.144l.073-.059a.43.43 0 0 0 .173.182c.049.026.091.035.119.02s.044-.049.044-.105v-.049c-.044.029-.102.023-.175-.016a.48.48 0 0 1-.195-.205.67.67 0 0 1-.074-.318c0-.113.025-.189.076-.229s.115-.04.197.004.138.103.182.185l.007-.07zm1.428.51l-.003.974-.153-.082.002-.78-.224-.038v-.135l.357.051.02.011zM34.557 57.896l-.001.382c.05-.035.113-.031.19.01a.4.4 0 0 1 .218.38l-.002.472-.152-.081.001-.466c0-.05-.009-.089-.029-.121a.23.23 0 0 0-.089-.079c-.062-.033-.107-.027-.137.014l-.002.516-.153-.082.003-1.025.152.082zm8.567 5.404v-.135l-.082-.044c-.057-.03-.099-.042-.127-.038s-.043.029-.043.066c0 .032.01.062.028.09a.22.22 0 0 0 .08.069.17.17 0 0 0 .085.023c.027-.002.047-.011.06-.031zm.151.118a.5.5 0 0 0 .025.169v.012l-.155-.083c-.007-.017-.013-.043-.017-.077-.049.028-.109.023-.178-.014s-.124-.087-.166-.151a.35.35 0 0 1-.065-.188c0-.078.027-.123.081-.134s.13.008.231.062l.093.05v-.048c0-.038-.01-.073-.029-.105a.23.23 0 0 0-.089-.082c-.039-.021-.063-.025-.085-.017s-.034.023-.034.051l-.153-.082c0-.039.013-.07.037-.092s.06-.029.102-.027.089.019.141.047a.54.54 0 0 1 .191.165.39.39 0 0 1 .072.219l-.001.325z"/><path d="M43.855 63.69l.001-.317c-.03-.07-.075-.123-.135-.155-.051-.027-.089-.027-.117.001s-.043.082-.043.165a.43.43 0 0 0 .042.194c.028.056.066.097.116.124.061.032.107.029.137-.011zm.016-.511l.137.073-.002.699c0 .095-.027.156-.082.18s-.13.013-.225-.037a.61.61 0 0 1-.145-.111.6.6 0 0 1-.108-.144l.072-.059a.44.44 0 0 0 .173.182c.051.027.09.033.12.021s.044-.049.044-.106v-.048c-.044.029-.103.023-.177-.016a.47.47 0 0 1-.193-.204c-.051-.095-.076-.202-.075-.321 0-.111.026-.188.076-.228s.115-.04.197.004.139.102.182.183l.007-.069zm2.754 1.608l-.15-.08-.036.19.138.074v.105l-.158-.085-.048.248-.104-.056.048-.249-.14-.075-.049.248-.104-.056.047-.249-.144-.077v-.105l.164.088.036-.19-.153-.082v-.105l.172.092.049-.252.105.056-.049.253.141.075.049-.252.105.056-.049.252.13.07v.105z"/><path d="M46.878 64.484l-.001.382c.051-.034.114-.031.19.009.144.077.217.204.219.381l-.002.472-.153-.082.002-.466c0-.05-.01-.089-.031-.122a.23.23 0 0 0-.089-.079c-.061-.032-.106-.027-.137.014l-.002.516-.151-.081.003-1.025.151.081zm1.511 1.098c.081.043.147.099.196.169s.075.138.074.206l-.153-.082c0-.032-.011-.063-.032-.096s-.051-.057-.086-.076-.061-.025-.082-.02-.031.022-.031.05.008.05.028.074a.78.78 0 0 0 .12.105 1.13 1.13 0 0 1 .14.126.46.46 0 0 1 .076.11c.017.036.025.074.025.113 0 .064-.026.103-.077.117s-.117-.003-.199-.046a.59.59 0 0 1-.148-.111.55.55 0 0 1-.101-.143c-.024-.05-.037-.098-.037-.14l.149.079c.003.039.015.076.041.111s.058.061.1.084.071.03.09.024.031-.021.031-.046-.01-.056-.032-.084a.73.73 0 0 0-.112-.1 1.09 1.09 0 0 1-.13-.113c-.076-.08-.114-.157-.114-.231 0-.063.026-.101.075-.116s.112-.003.188.038z"/><path d="M48.95 65.591l-.001.382c.05-.035.112-.032.188.009a.4.4 0 0 1 .22.381l-.002.472-.152-.081.001-.466c0-.05-.01-.09-.029-.121s-.051-.059-.09-.08c-.061-.032-.106-.027-.136.015l-.002.516-.152-.082.003-1.025.153.082z"/><path d="M49.702 66.122v.176l.12.064v.12l-.12-.064-.001.403a.16.16 0 0 0 .015.069c.009.019.028.033.055.047.017.009.035.016.054.021v.126a.49.49 0 0 1-.1-.038c-.117-.063-.177-.164-.176-.3l.001-.409-.112-.06.001-.12.112.06v-.176l.153.082zm6.444 3.317l-.001.382c.05-.035.112-.032.188.009.145.078.217.203.22.381l-.002.472-.153-.082.001-.466a.23.23 0 0 0-.029-.121.24.24 0 0 0-.091-.08c-.061-.032-.106-.026-.136.015l-.002.516-.152-.082.003-1.025.153.081z"/><path d="M56.899 69.969v.176l.12.064v.12l-.12-.064-.001.403c0 .027.006.05.016.068s.028.033.055.048c.017.009.035.016.052.02v.126a.47.47 0 0 1-.1-.038c-.116-.062-.175-.163-.175-.3l.001-.409-.111-.06v-.12l.112.06v-.176l.152.082z"/><path d="M57.516 70.995v-.135l-.082-.044c-.057-.03-.099-.042-.128-.038s-.043.028-.043.066c0 .032.008.061.028.09s.045.051.078.069.059.024.087.024.047-.011.06-.031zm.152.118a.5.5 0 0 0 .025.169v.012l-.155-.083a.32.32 0 0 1-.017-.077c-.049.028-.109.023-.18-.015a.46.46 0 0 1-.167-.151c-.042-.065-.063-.127-.063-.187 0-.078.027-.122.081-.134s.13.008.231.062l.093.05v-.048c0-.037-.01-.073-.029-.104a.23.23 0 0 0-.089-.082c-.04-.021-.064-.025-.087-.017s-.032.023-.032.052l-.153-.082c0-.039.013-.07.037-.092s.058-.029.1-.028a.4.4 0 0 1 .143.048.53.53 0 0 1 .189.164c.048.069.072.141.073.22l-.001.325zM32.233 57.092l-.148-.079-.037.189.139.074-.001.105-.157-.084-.049.248-.104-.056.047-.249-.14-.075-.049.248-.105-.056.049-.248-.145-.078v-.105l.164.088.037-.189-.152-.081v-.105l.171.091.05-.252.104.056-.05.252.141.076.049-.252.106.057-.05.252.13.07v.105z"/><path d="M31.985 57.148l-.184-.076.049-.191.183.076-.049.191z"/></g><path d="M31.801 57.072l.049-.191.184.076-.049.191-.183-.076zm1.426.828c.032-.005.08.008.145.041l.093.047-.001.145c-.016.021-.038.031-.069.033s-.061-.007-.096-.024-.066-.043-.088-.074-.033-.064-.033-.098c0-.04.016-.065.05-.07z" class="C"/><path d="M33.431 58.117v-.135l-.082-.044c-.057-.03-.099-.042-.128-.038s-.044.028-.044.065c0 .032.01.062.03.091s.045.051.078.069.059.024.085.023.047-.011.061-.031zm.152.118a.5.5 0 0 0 .025.169v.012l-.155-.083a.35.35 0 0 1-.018-.077c-.048.028-.108.024-.178-.014s-.123-.087-.167-.151-.063-.127-.063-.187c0-.078.027-.123.081-.134s.13.008.23.061l.093.05v-.048c0-.038-.01-.073-.029-.105s-.049-.061-.089-.082-.063-.025-.086-.018-.032.023-.033.052l-.153-.082c0-.039.013-.07.037-.092s.058-.029.101-.028a.34.34 0 0 1 .143.048.53.53 0 0 1 .189.164c.048.069.072.141.073.22l-.001.325zm-1.001-2.747a.25.25 0 0 1 .053.039v.152a.44.44 0 0 0-.062-.039c-.071-.038-.117-.034-.142.01l-.001.493-.153-.081.002-.722.146.078.004.083c.037-.043.088-.048.153-.013zm3.346 3.964v-.135l-.082-.044c-.057-.03-.099-.042-.128-.038s-.043.028-.043.066c0 .032.01.062.029.091a.21.21 0 0 0 .078.069c.03.016.058.023.085.023s.047-.011.06-.031zm.151.118a.5.5 0 0 0 .025.169v.012l-.156-.083a.38.38 0 0 1-.017-.077c-.048.028-.108.024-.178-.014a.46.46 0 0 1-.167-.151c-.043-.064-.065-.128-.064-.188 0-.078.027-.123.081-.134s.132.009.23.062l.093.05v-.048c0-.038-.01-.073-.028-.104a.23.23 0 0 0-.09-.083c-.035-.019-.063-.025-.085-.017s-.034.023-.034.051l-.153-.081c0-.039.013-.07.037-.092s.059-.029.102-.027a.39.39 0 0 1 .141.047.54.54 0 0 1 .191.165c.047.069.07.14.072.219l-.001.325z" class="B"/><path d="M35.724 59.235c.033-.005.081.008.145.041l.094.047v.145c-.015.021-.037.031-.068.034s-.063-.007-.097-.024a.24.24 0 0 1-.089-.074c-.022-.031-.033-.064-.033-.098 0-.04.016-.064.049-.071z" class="C"/><path d="M33.324 53.491l-.277.334.281.641-.185-.099-.195-.461-.198.251-.185-.099.284-.339-.274-.628.182.098.191.453.193-.248.182.098zm4.862 5.301v-.012c-.004-.056-.017-.105-.041-.145s-.056-.072-.099-.095-.076-.026-.102-.008-.043.053-.05.105l.291.156zm.149.133v.066l-.444-.237c.006.061.024.119.056.171s.075.091.124.118c.069.037.126.037.17 0l.082.128c-.027.027-.062.043-.108.043a.34.34 0 0 1-.154-.048.61.61 0 0 1-.234-.221c-.059-.097-.089-.2-.088-.306v-.02c0-.072.013-.13.039-.173a.15.15 0 0 1 .111-.074c.048-.006.1.005.158.037a.52.52 0 0 1 .214.209.61.61 0 0 1 .074.306zm1.348 1.712l-.001.382c.05-.035.112-.032.188.009.144.077.217.203.22.381l-.002.472-.153-.082.001-.466a.23.23 0 0 0-.029-.121.24.24 0 0 0-.09-.08c-.061-.032-.106-.026-.136.015l-.002.516-.152-.082.003-1.025.153.082z" class="B"/><path d="M40.423 61.748c.032-.005.081.008.145.041l.093.047v.145c-.016.021-.039.03-.069.033s-.063-.007-.096-.024-.066-.043-.088-.074-.034-.064-.034-.098c0-.04.016-.065.05-.07z" class="C"/><g class="B"><path d="M40.627 61.965v-.135l-.082-.044c-.057-.03-.099-.042-.128-.038s-.044.028-.044.066a.16.16 0 0 0 .03.091c.02.029.045.051.078.069s.059.024.085.023.047-.011.061-.031zm.152.118a.5.5 0 0 0 .025.169v.012l-.155-.083c-.007-.017-.013-.043-.018-.078-.048.029-.108.024-.178-.014a.46.46 0 0 1-.166-.151c-.042-.065-.063-.127-.063-.187 0-.078.027-.123.081-.134s.13.008.23.062l.093.05v-.048a.19.19 0 0 0-.029-.104c-.02-.033-.049-.061-.09-.083-.034-.018-.062-.024-.085-.017s-.033.023-.033.052l-.153-.081c0-.039.013-.07.037-.092s.058-.029.1-.028a.34.34 0 0 1 .143.048.53.53 0 0 1 .189.164.39.39 0 0 1 .073.22l-.001.325zm.974-.339l-.001.382c.05-.035.113-.031.188.009a.4.4 0 0 1 .219.381l-.002.472-.152-.081.001-.466a.23.23 0 0 0-.029-.121c-.019-.032-.051-.059-.089-.079-.062-.033-.107-.027-.137.014l-.002.516-.152-.082.003-1.025.152.082z"/><path d="M42.506 62.274v.176l.12.064v.12l-.12-.064-.001.403c0 .027.006.05.016.069s.028.033.055.048c.017.009.035.016.054.021v.126c-.035-.01-.069-.022-.101-.038-.117-.063-.176-.164-.176-.3l.001-.409-.112-.06v-.12l.112.06.001-.176.152.081zm2.092 1.646l.001-.219c0-.09-.012-.165-.035-.219a.24.24 0 0 0-.111-.122c-.05-.026-.086-.027-.111.001s-.036.083-.037.168l-.001.219c0 .092.011.166.035.222s.062.101.113.128.085.024.108-.004.037-.086.039-.173zm.077-.471a.74.74 0 0 1 .074.345l-.001.168c0 .14-.025.232-.074.276s-.123.041-.224-.013a.52.52 0 0 1-.223-.223c-.049-.095-.076-.212-.077-.348v-.168c0-.14.026-.232.076-.274s.123-.04.225.015.174.127.223.221z"/></g><path d="M44.452 63.358c.051.027.088.068.112.123s.035.129.035.219l-.001.22c-.002.088-.014.144-.039.174s-.059.03-.108.004-.089-.07-.113-.128-.035-.13-.035-.222l.001-.219c.002-.085.015-.141.037-.168s.061-.028.11-.001z" class="C"/><path d="M44.911 62.08c.023.012.04.026.051.038v.114c-.017-.012-.035-.023-.056-.035-.076-.041-.127-.033-.156.021l-.002.511-.116-.062.002-.721.113.06.003.086c.038-.044.092-.049.161-.012z" class="E"/><path d="M47.823 65.812v-.135l-.084-.045c-.055-.029-.099-.042-.128-.038s-.043.028-.043.066c0 .032.01.062.029.091s.045.051.078.069.058.023.085.023.047-.011.061-.031zm.15.117c0 .065.008.122.026.169v.012l-.156-.083c-.007-.017-.013-.043-.018-.078-.048.028-.108.024-.178-.014s-.123-.087-.166-.151-.065-.128-.065-.188c0-.078.027-.122.081-.134s.132.009.231.061l.095.051v-.048c0-.037-.01-.073-.029-.105s-.05-.061-.09-.083c-.034-.018-.062-.024-.085-.017s-.034.023-.034.051l-.151-.081c0-.039.011-.071.037-.092s.058-.029.1-.028.091.02.143.048a.53.53 0 0 1 .189.164c.047.069.072.141.072.219l-.001.325z" class="B"/><path d="M47.618 65.595c.032-.005.082.009.145.041l.095.048v.145c-.016.021-.039.031-.069.033s-.063-.007-.097-.024-.066-.043-.088-.074-.033-.064-.033-.098c0-.04.016-.064.048-.071zm2.498 1.335c.032-.005.081.008.145.041l.094.047v.145c-.014.022-.039.031-.068.034s-.063-.007-.097-.024-.068-.044-.09-.075-.032-.063-.032-.097c0-.04.016-.064.049-.071z" class="C"/><path d="M50.32 67.147v-.135l-.082-.044c-.057-.03-.099-.042-.128-.038s-.043.028-.043.066c0 .032.01.062.028.09s.045.051.079.07.058.023.085.022.047-.011.06-.031zm.152.118a.49.49 0 0 0 .025.168v.012l-.155-.083c-.007-.017-.013-.043-.017-.077-.049.028-.109.023-.178-.014a.45.45 0 0 1-.166-.151c-.044-.065-.065-.128-.065-.188 0-.078.027-.123.081-.134s.13.008.231.061l.093.05v-.048c0-.038-.01-.073-.029-.105s-.049-.061-.089-.082-.064-.025-.087-.018-.033.023-.033.052l-.153-.082c0-.039.013-.07.037-.091s.058-.029.102-.027a.38.38 0 0 1 .141.047.53.53 0 0 1 .189.165c.048.069.072.141.073.22l-.001.325zm1.32.5l.001-.219a.58.58 0 0 0-.033-.218c-.024-.055-.061-.096-.111-.123s-.088-.027-.11.001-.036.084-.037.168v.22c0 .092.011.165.035.222s.06.1.112.127.086.025.109-.004.037-.085.037-.174zm.079-.469c.049.094.073.209.074.345v.168c0 .14-.025.232-.074.276s-.123.041-.225-.013a.52.52 0 0 1-.222-.222c-.051-.097-.076-.212-.077-.348v-.168c0-.14.026-.231.076-.274s.123-.04.225.015.174.127.223.222z" class="B"/><g class="C"><path d="M51.648 67.206c.051.027.088.068.112.123s.033.128.033.218l-.001.219c0 .089-.013.145-.037.174s-.059.03-.109.004-.087-.07-.111-.128a.57.57 0 0 1-.035-.222v-.219c.002-.085.013-.142.037-.168s.06-.029.11-.001z"/><path d="M52.204 68.012l.274-.263.014-.015-.002.406-.286-.128z"/></g><path d="M52.444 68.139l.001-.406-.012.015-.229.263.239.128zm.15.082l.114.061v.129l-.114-.061v.217l-.151-.081.001-.216-.395-.211-.004-.1.396-.446.157.084-.002.625z" class="B"/><path d="M55.148 68.202c-.058-.031-.106-.081-.14-.147s-.052-.14-.052-.22c0-.09.017-.152.053-.181s.082-.028.139.002a.34.34 0 0 1 .141.149.47.47 0 0 1 .052.22c0 .088-.017.149-.053.178s-.081.031-.14-.001z" class="C"/><path d="M55.288 68.202c.035-.029.053-.089.053-.178 0-.08-.017-.152-.052-.22s-.083-.118-.141-.149-.103-.031-.139-.002-.053.091-.053.181c0 .08.017.153.052.22s.082.116.14.147.106.033.14.001zm.085-.427a.63.63 0 0 1 .084.317v.009c0 .069-.013.126-.039.168s-.061.068-.108.073-.102-.008-.163-.04a.55.55 0 0 1-.223-.222.61.61 0 0 1-.085-.315v-.009c0-.071.013-.127.04-.17a.14.14 0 0 1 .109-.073c.047-.005.101.007.16.039a.57.57 0 0 1 .224.222z" class="E"/><path d="M59.858 71.477l-.001.14-.363-.194-.026.219c.043-.005.09.009.145.038a.49.49 0 0 1 .202.197.55.55 0 0 1 .071.278c0 .097-.027.163-.081.193s-.126.02-.219-.03a.59.59 0 0 1-.208-.186c-.055-.08-.084-.163-.09-.248l.148.079a.3.3 0 0 0 .148.225c.047.025.083.027.11.005s.038-.064.039-.124-.014-.114-.042-.164-.069-.088-.118-.115c-.028-.015-.052-.025-.071-.026a.11.11 0 0 0-.064.011l-.122-.097.051-.463.491.262zm-.51-1.679a.57.57 0 0 1 .196.17c.049.069.075.138.074.205l-.153-.081c0-.03-.011-.062-.032-.094a.24.24 0 0 0-.086-.078c-.035-.019-.061-.024-.082-.018s-.032.02-.033.049.01.049.03.073a.76.76 0 0 0 .12.106 1 1 0 0 1 .14.125c.034.037.059.074.076.11s.025.075.025.113c0 .065-.026.103-.077.117s-.117-.003-.199-.047c-.055-.029-.105-.066-.148-.111a.59.59 0 0 1-.102-.143.32.32 0 0 1-.036-.14l.148.079a.19.19 0 0 0 .041.111c.026.035.057.063.099.085s.071.029.092.023.031-.021.031-.046-.01-.056-.032-.083a.72.72 0 0 0-.111-.1.99.99 0 0 1-.13-.113c-.076-.08-.114-.157-.114-.231 0-.062.026-.101.075-.117s.112-.003.188.038z" class="B"/><g class="C"><path d="M61.075 71.148c.032-.006.081.007.146.039l.094.047v.147c-.014.02-.039.031-.068.032s-.063-.006-.097-.023a.23.23 0 0 1-.09-.076c-.021-.03-.032-.061-.032-.095 0-.042.016-.065.049-.071z"/><path d="M45.089 61.946c-.013.007-.018.022-.019.041s.006.039.018.059.028.036.051.048.039.014.051.006.017-.021.017-.04a.12.12 0 0 0-.017-.06c-.011-.02-.029-.036-.051-.048s-.04-.013-.051-.006zm11.184 6.827c-.011.008-.017.023-.017.043s.006.041.017.06.03.037.054.049.043.017.055.008.019-.02.019-.041-.007-.043-.018-.062-.031-.037-.055-.05-.041-.016-.054-.008zM34.046 56.157c.014-.009.023-.024.023-.048s-.008-.051-.023-.075-.037-.044-.065-.059-.048-.018-.064-.01-.021.026-.021.052.007.047.021.071.037.044.064.058.05.019.065.01zm.87-1.814c-.016.008-.023.024-.023.05s.007.049.023.072a.16.16 0 0 0 .064.059c.027.014.05.017.064.008s.023-.024.023-.048-.007-.049-.023-.073-.037-.045-.063-.059-.05-.017-.064-.008zm10.279 7.902l-.116-.062-.002.722.116.062.002-.722zm-10.14-7.578l-.153-.082-.002.722.153.082.002-.722zm-.999 1.623l-.153-.082-.002.722.153.081.002-.722zm.326.897l.003-1.024-.153-.082-.003 1.024.153.081zm.193-3.08l-.003 1.025.153.082.003-1.025-.153-.081zm14.262 10.086l-.002.722.116.062.002-.511c.027-.055.078-.062.154-.022a.58.58 0 0 1 .057.035v-.114c-.011-.012-.028-.026-.051-.038-.069-.037-.123-.033-.162.012l-.003-.086-.112-.06zm-4.088-1.975c.029-.054.079-.062.156-.02a.49.49 0 0 1 .056.035v-.114c-.011-.012-.028-.026-.051-.038-.069-.037-.123-.033-.161.012l-.003-.086-.113-.061-.002.722.116.062.002-.511zm8.7 4.441l-.002.722.117.063.002-.511c.027-.055.078-.062.154-.021a.52.52 0 0 1 .057.035v-.114c-.011-.012-.028-.026-.051-.038-.069-.037-.123-.033-.161.012l-.002-.086-.113-.06zM32.279 55.339l-.002.722.153.082.002-.493c.024-.044.071-.048.141-.01a.47.47 0 0 1 .062.039v-.152c-.014-.014-.032-.028-.054-.039-.065-.035-.116-.031-.153.013l-.004-.083-.146-.078zm17.595 10.132l.001-.101a.27.27 0 0 1-.055-.02c-.027-.014-.046-.032-.058-.053s-.017-.045-.017-.074l.002-.448.127.068v-.096l-.127-.068v-.174l-.116-.062v.174l-.123-.066v.096l.123.066-.001.447c0 .061.012.116.039.164a.28.28 0 0 0 .117.113c.029.016.059.027.089.035zm1.37.008v.096l.123.066-.001.447c0 .062.012.117.039.164s.065.084.117.112c.028.015.058.026.089.035v-.101c-.024-.007-.043-.013-.055-.02-.027-.014-.046-.033-.058-.053s-.017-.045-.017-.074l.002-.448.127.068v-.096l-.127-.068.001-.174-.116-.062-.001.174-.123-.066zm-5.578-2.258v-.101c-.024-.007-.042-.014-.055-.02-.028-.015-.047-.032-.058-.053s-.017-.045-.017-.074l.001-.448.126.067v-.096l-.126-.067.001-.174-.116-.062v.174l-.124-.067v.096l.125.066-.002.447a.33.33 0 0 0 .039.164.28.28 0 0 0 .117.112.49.49 0 0 0 .089.036zm15.114 8.078v-.125c-.017-.004-.035-.013-.052-.022-.027-.014-.045-.03-.055-.048s-.016-.04-.016-.068l.001-.403.12.064v-.12l-.12-.064.001-.174-.153-.082v.174l-.111-.06v.12l.111.06-.001.409c0 .138.059.238.176.3a.41.41 0 0 0 .099.038zm-3.762-.368v-.126c-.017-.004-.035-.011-.052-.02a.13.13 0 0 1-.055-.047c-.01-.019-.016-.041-.016-.069l.001-.403.12.064v-.12l-.12-.064v-.176l-.152-.082v.176l-.112-.06v.12l.112.06-.001.409c0 .137.059.238.175.3.032.017.066.029.1.039zM35.431 59.389v-.126a.27.27 0 0 1-.053-.021c-.027-.015-.045-.03-.055-.048s-.015-.041-.015-.068l.001-.403.12.064v-.12l-.12-.064v-.176l-.151-.081v.176l-.112-.06v.12l.112.06-.001.409c0 .137.057.237.175.3a.47.47 0 0 0 .1.038zm14.393 7.695v-.126c-.018-.005-.037-.012-.054-.021-.027-.014-.045-.03-.055-.047s-.015-.041-.015-.069l.001-.403.12.064v-.12l-.12-.064v-.176l-.153-.082v.176l-.112-.06v.12l.112.06-.001.409c-.001.137.059.238.176.3a.5.5 0 0 0 .101.039zm-7.196-3.847v-.127a.27.27 0 0 1-.054-.021c-.027-.014-.045-.03-.055-.047s-.015-.042-.015-.069l.001-.403.12.064v-.12l-.12-.064v-.176l-.153-.082-.001.176-.111-.06v.12l.112.06-.001.409c0 .137.059.238.176.3.031.017.065.029.101.039zm20.822 9.491l.003-.974-.02-.01-.357-.051v.135l.224.038-.002.78.153.082zm-15.323-8.916l-.001.471c0 .087.019.164.056.228a.41.41 0 0 0 .165.155c.087.047.154.055.199.022l.003.072.11.059.002-.721-.116-.062-.002.526c-.03.053-.089.058-.177.011s-.126-.123-.125-.232l.002-.466-.116-.062zm-7.883-4.214l-.001.471c.001.088.019.164.057.229s.093.116.165.154c.088.047.154.055.2.022l.001.072.11.059.002-.722-.116-.062-.002.526c-.029.054-.088.058-.177.011-.084-.045-.126-.123-.125-.233l.001-.466-.116-.062zm2.399 1.283l-.002.721.116.062.002-.514c.016-.026.038-.041.067-.048s.062.002.099.021c.047.025.08.055.103.093s.032.081.033.134l-.002.477.116.062.002-.477c-.001-.172-.073-.298-.217-.375-.083-.044-.151-.046-.204-.003l-.003-.093-.11-.059zm-7.255-3.67c.031-.043.077-.048.139-.014.042.023.072.049.09.081s.028.071.028.116l-.001.468.153.082.001-.477c-.002-.173-.074-.299-.215-.374-.082-.044-.147-.045-.198-.008l-.004-.087-.143-.076-.002.722.151.081.002-.513zm6.921 3.616c.024.038.035.079.035.123v.056l-.113-.06c-.098-.052-.172-.071-.226-.058s-.081.056-.081.131c0 .062.021.124.063.187s.099.113.165.149c.075.04.139.044.194.015a.35.35 0 0 0 .016.084l.121.065v-.011c-.015-.047-.024-.105-.024-.171l.001-.332c-.001-.073-.024-.142-.068-.207a.5.5 0 0 0-.183-.162c-.049-.026-.095-.04-.136-.043s-.075.007-.099.027-.035.049-.035.085l.116.062c0-.032.014-.05.042-.057s.062 0 .105.023a.28.28 0 0 1 .107.095zm-5.396-4.707c.021.026.032.055.032.083s-.01.043-.031.048-.051-.003-.092-.025-.075-.051-.099-.084-.039-.071-.041-.111l-.148-.079c0 .044.012.091.036.142s.058.097.101.142a.58.58 0 0 0 .148.112c.082.044.148.058.199.045s.075-.052.075-.118c0-.038-.008-.075-.024-.111s-.042-.074-.076-.111-.081-.079-.141-.125a.69.69 0 0 1-.119-.106c-.02-.024-.03-.049-.029-.073s.012-.044.032-.049.048 0 .082.018.065.045.086.078.032.064.032.095l.152.082c0-.069-.025-.137-.074-.207a.57.57 0 0 0-.196-.168c-.076-.041-.14-.054-.188-.039s-.075.055-.075.116c0 .075.038.151.114.231.035.037.078.075.13.114s.089.072.111.099zm18.871 14.106c.051-.013.075-.053.075-.118a.26.26 0 0 0-.024-.112c-.017-.036-.042-.072-.076-.11s-.081-.079-.14-.126-.1-.081-.12-.105-.029-.049-.029-.074.011-.044.033-.049.048.001.082.02.065.045.086.076.032.064.032.096l.153.082a.35.35 0 0 0-.074-.205.55.55 0 0 0-.196-.17c-.076-.041-.14-.054-.188-.037s-.075.053-.075.116c0 .074.038.151.114.231.035.037.078.073.13.113s.089.073.111.1.032.053.032.084-.01.042-.031.047-.051-.003-.092-.025-.074-.05-.099-.083a.2.2 0 0 1-.04-.111l-.148-.079c0 .042.012.089.036.14s.058.097.101.143a.61.61 0 0 0 .148.111c.082.044.148.058.199.046zM41.392 62.53c.051-.013.077-.052.077-.117 0-.039-.008-.077-.025-.113s-.041-.071-.076-.11-.081-.079-.14-.126-.1-.081-.12-.105-.028-.048-.028-.074.01-.044.031-.05.048.002.082.02.065.045.086.076.032.064.032.096l.152.082a.35.35 0 0 0-.074-.205.55.55 0 0 0-.196-.17c-.076-.041-.139-.053-.188-.037s-.075.053-.075.116c0 .074.038.151.114.231a1.1 1.1 0 0 0 .13.113c.052.04.089.073.112.1s.034.054.034.084-.011.041-.033.046-.051-.003-.09-.024a.3.3 0 0 1-.1-.084c-.025-.035-.038-.072-.041-.111l-.147-.078c0 .042.011.089.035.139a.54.54 0 0 0 .101.143.61.61 0 0 0 .148.111c.082.044.148.058.199.046zm-7.196-3.847c.051-.013.077-.053.077-.117 0-.039-.008-.077-.025-.113s-.041-.072-.075-.109-.082-.08-.141-.127a.79.79 0 0 1-.119-.104c-.02-.024-.03-.049-.029-.074s.01-.044.031-.05.048.002.082.02.065.045.086.076.032.064.032.096l.153.081c0-.068-.024-.136-.074-.205a.56.56 0 0 0-.196-.17c-.076-.041-.139-.053-.188-.037s-.074.054-.074.117c0 .074.038.151.113.23a1.15 1.15 0 0 0 .13.113.73.73 0 0 1 .112.1.13.13 0 0 1 .034.084c0 .025-.011.04-.031.047s-.053-.004-.092-.025-.075-.051-.101-.084-.038-.072-.041-.111l-.147-.079c0 .042.011.089.035.139a.57.57 0 0 0 .102.143c.044.044.093.081.148.111.082.044.148.058.199.046zm14.393 7.695c.051-.014.076-.052.077-.117a.26.26 0 0 0-.025-.113c-.017-.036-.042-.072-.076-.11a1.13 1.13 0 0 0-.14-.126c-.061-.046-.1-.081-.12-.105s-.028-.048-.028-.074.01-.044.031-.05.048.002.082.02.065.045.086.076.032.064.032.096l.153.082c0-.068-.025-.137-.074-.206s-.116-.126-.196-.169-.139-.053-.188-.038-.075.053-.075.116c0 .074.038.151.114.231a1.09 1.09 0 0 0 .13.113.7.7 0 0 1 .111.1c.023.027.032.054.032.084s-.01.041-.031.046-.051-.003-.09-.024-.075-.051-.1-.084-.038-.072-.041-.111l-.149-.079c0 .042.013.09.037.14a.55.55 0 0 0 .101.143c.044.044.093.082.148.111.082.044.149.058.2.047zm10.509 3.915c.024.05.058.099.102.143s.093.081.148.111c.082.044.148.06.199.046s.077-.052.077-.117c0-.038-.008-.075-.025-.113s-.042-.072-.076-.11-.08-.079-.14-.124-.1-.082-.12-.106-.03-.049-.03-.073.011-.044.033-.049.048 0 .082.018.065.046.086.078.033.064.033.094l.152.082a.35.35 0 0 0-.075-.205c-.049-.068-.116-.127-.196-.17s-.139-.053-.188-.037-.075.055-.076.116c0 .073.038.151.114.231.035.037.078.075.13.113a.69.69 0 0 1 .111.1c.023.027.032.055.032.083s-.01.043-.031.046-.051-.002-.092-.023a.29.29 0 0 1-.099-.085c-.026-.034-.039-.071-.041-.111l-.148-.079c0 .044.012.091.036.14zm-8.023-4.183l.134.072-.228-.486.223-.239-.136-.073-.152.184-.148-.344-.134-.072.221.477-.23.241.135.073.158-.185.156.353zm-9.751-5.298a.55.55 0 0 0 .22.215.27.27 0 0 0 .13.036c.041-.001.075-.011.099-.036s.038-.056.04-.097l-.109-.058c-.004.038-.021.062-.052.073s-.067.004-.108-.018c-.061-.032-.106-.079-.138-.142s-.048-.134-.047-.217v-.024c0-.086.016-.142.048-.17s.078-.026.138.006c.044.023.081.058.11.104s.047.093.051.141l.109.058a.44.44 0 0 0-.08-.231.52.52 0 0 0-.189-.175c-.062-.033-.116-.047-.161-.04s-.08.03-.105.071-.036.098-.036.169v.021a.61.61 0 0 0 .081.313zm12.52 6.415v.023c0 .107.028.207.085.303a.58.58 0 0 0 .225.216c.113.06.199.06.256-.002l-.07-.098c-.021.019-.047.029-.075.032s-.064-.008-.105-.031c-.058-.031-.104-.077-.142-.141s-.056-.133-.058-.204l.459.245v-.051a.61.61 0 0 0-.073-.305.5.5 0 0 0-.204-.203c-.055-.029-.105-.039-.151-.033s-.082.033-.108.075-.038.1-.038.172zm-3.29-1.721v-.051a.61.61 0 0 0-.073-.305.5.5 0 0 0-.204-.203c-.054-.028-.104-.039-.15-.032s-.084.032-.109.074a.33.33 0 0 0-.039.172v.023c0 .107.028.207.085.303a.58.58 0 0 0 .225.216c.113.06.199.06.256-.002l-.07-.098c-.022.019-.047.029-.075.032s-.064-.008-.105-.031a.37.37 0 0 1-.142-.141c-.037-.065-.056-.133-.058-.204l.459.246zm-4.784-2.573c0 .107.029.208.087.304s.132.167.224.216c.113.06.198.059.256-.002l-.072-.099c-.021.019-.045.03-.074.033s-.064-.008-.105-.03c-.058-.031-.105-.077-.143-.141s-.056-.132-.058-.204l.459.245v-.051a.61.61 0 0 0-.073-.305c-.049-.088-.117-.156-.206-.204a.24.24 0 0 0-.15-.032c-.047.007-.082.033-.108.075s-.04.099-.04.171v.022zm7.056 4.03a.58.58 0 0 0 .225.217c.114.061.199.06.256-.002l-.07-.098c-.021.019-.047.029-.075.032s-.062-.008-.103-.03a.36.36 0 0 1-.143-.141.42.42 0 0 1-.059-.205l.46.246v-.051c.001-.116-.025-.218-.073-.305s-.118-.157-.206-.203c-.054-.029-.105-.039-.15-.032s-.082.033-.109.074-.039.1-.039.172v.023c0 .107.028.207.085.303zm8.63 4.697v-.011c-.017-.048-.025-.104-.025-.168l.001-.326a.38.38 0 0 0-.073-.218.53.53 0 0 0-.189-.166.36.36 0 0 0-.143-.046c-.043-.003-.075.006-.101.027s-.037.051-.037.092l.152.082c0-.028.012-.046.033-.053s.051-.001.086.017.069.049.089.082a.2.2 0 0 1 .029.106v.047l-.093-.05c-.1-.054-.176-.074-.23-.062s-.081.058-.081.135c0 .062.021.124.063.187s.099.115.168.152.129.042.178.016c.004.032.01.058.017.075l.155.083zM43.3 63.598v-.012a.5.5 0 0 1-.025-.168l.001-.325c-.001-.079-.025-.15-.072-.219a.54.54 0 0 0-.191-.165c-.052-.028-.099-.042-.141-.047s-.076.007-.102.027-.037.053-.037.092l.153.082c0-.029.012-.045.034-.051s.05-.002.085.017.069.049.089.082.029.067.029.105v.048l-.093-.05c-.1-.054-.177-.075-.231-.062s-.081.056-.081.135c0 .06.021.122.065.188s.098.114.166.151.129.042.178.014c.004.034.01.059.017.077l.155.083zm-7.306-5.597c.042.064.099.114.166.151s.13.042.178.016a.54.54 0 0 0 .017.075l.155.083v-.011c-.017-.048-.025-.104-.025-.168l.001-.326c-.001-.077-.025-.15-.072-.217a.54.54 0 0 0-.19-.167c-.052-.028-.099-.042-.142-.045s-.076.006-.1.028-.038.05-.038.091l.153.082c0-.029.011-.047.034-.053s.051-.001.085.017c.041.022.07.05.09.083a.2.2 0 0 1 .028.105v.047l-.093-.05c-.099-.053-.177-.074-.231-.062s-.081.058-.081.134a.33.33 0 0 0 .065.188zm.109 1.749v-.012a.5.5 0 0 1-.025-.169l.001-.325a.39.39 0 0 0-.072-.219.54.54 0 0 0-.191-.165c-.052-.028-.099-.042-.141-.047s-.077.007-.102.027-.037.052-.037.092l.153.081c0-.028.011-.045.034-.051s.05-.002.085.017.071.05.09.083.028.066.028.104v.048l-.093-.05c-.099-.053-.177-.075-.23-.062s-.081.056-.081.134c0 .06.021.123.064.188a.46.46 0 0 0 .167.151c.071.038.13.042.178.014.004.034.011.06.017.077l.156.083zm21.589 11.543v-.012c-.017-.047-.025-.104-.025-.169l.001-.325c-.001-.079-.025-.15-.073-.22a.53.53 0 0 0-.189-.164.4.4 0 0 0-.143-.048c-.043-.002-.075.008-.101.028s-.037.053-.037.092l.152.082c0-.029.012-.045.033-.052s.051-.001.087.017a.22.22 0 0 1 .089.082c.02.032.03.067.029.105v.048l-.093-.05c-.1-.054-.177-.075-.231-.062s-.081.056-.081.134c0 .06.021.123.063.187s.099.114.167.151.13.042.18.015a.32.32 0 0 0 .017.077l.155.083zm-16.889-9.03v-.012a.5.5 0 0 1-.025-.168l.001-.325c-.001-.079-.026-.151-.073-.22a.53.53 0 0 0-.189-.164c-.052-.028-.1-.043-.143-.048s-.076.007-.1.027-.037.053-.037.092l.153.081c0-.029.01-.046.033-.052s.051-.001.085.017c.041.022.071.05.09.083s.03.067.029.105v.048l-.093-.05c-.1-.053-.177-.075-.23-.062s-.081.056-.081.135a.34.34 0 0 0 .063.187.46.46 0 0 0 .166.151c.07.038.13.042.178.014.006.035.011.06.018.078l.155.083zm14.391 7.694v-.012c-.017-.047-.025-.104-.025-.169l.001-.325a.39.39 0 0 0-.072-.219c-.047-.068-.11-.122-.19-.165a.39.39 0 0 0-.141-.047c-.043-.001-.076.008-.101.028s-.038.052-.038.091l.153.082c0-.029.011-.045.034-.051s.051-.001.085.017c.041.022.071.05.09.083s.029.067.029.105v.048l-.095-.051c-.099-.053-.177-.075-.23-.061s-.081.056-.081.134a.34.34 0 0 0 .065.188.46.46 0 0 0 .167.151c.07.038.13.042.178.014a.51.51 0 0 0 .017.077l.155.083zM33.607 58.415v-.012a.5.5 0 0 1-.025-.168l.001-.325c-.001-.079-.025-.151-.073-.22a.53.53 0 0 0-.189-.164c-.052-.028-.101-.043-.143-.048s-.077.007-.101.028-.037.053-.037.092l.152.081c0-.029.01-.046.033-.052s.051-.001.086.018a.22.22 0 0 1 .089.082c.02.032.03.067.029.105v.048l-.093-.05c-.1-.054-.176-.075-.23-.061s-.081.056-.081.134c0 .06.021.123.063.188a.47.47 0 0 0 .167.151c.071.038.13.042.178.014a.39.39 0 0 0 .018.077l.155.083zm16.889 9.03v-.012c-.017-.046-.025-.104-.025-.168l.001-.325c-.001-.079-.025-.15-.073-.22a.53.53 0 0 0-.189-.165.38.38 0 0 0-.141-.047c-.044-.003-.076.007-.102.027s-.037.053-.037.092l.152.082c0-.029.011-.045.033-.052s.051-.001.086.018.069.049.089.082.029.067.029.105v.048l-.093-.05c-.1-.054-.177-.075-.231-.062s-.081.056-.081.134c0 .06.021.123.065.188a.45.45 0 0 0 .166.151c.069.037.129.042.178.014.004.034.01.059.017.077l.156.083zM48 66.11v-.012c-.018-.048-.027-.105-.026-.169v-.324a.38.38 0 0 0-.072-.219.53.53 0 0 0-.189-.164.4.4 0 0 0-.143-.048c-.043-.002-.076.007-.101.028s-.037.053-.037.092l.151.081c0-.029.011-.045.034-.051s.051-.001.085.017c.041.022.071.05.09.083s.029.067.029.105v.048l-.095-.051c-.099-.053-.177-.075-.231-.062s-.081.056-.081.134c0 .06.022.124.065.188s.099.115.166.151.13.042.178.014c.006.035.011.06.018.078l.156.083zm10.375 3.703c0 .061.022.125.064.188a.45.45 0 0 0 .167.151c.071.038.13.042.178.016a.37.37 0 0 0 .018.076l.155.083v-.011a.48.48 0 0 1-.026-.169l.001-.326c-.001-.078-.025-.151-.072-.218a.54.54 0 0 0-.191-.166.36.36 0 0 0-.141-.046c-.043-.003-.076.006-.101.028s-.037.051-.037.092l.151.081c0-.029.011-.047.034-.053s.051-.001.085.017c.041.022.071.05.09.083s.03.068.029.106v.047l-.095-.051c-.099-.053-.177-.073-.23-.062s-.081.058-.081.135zM33.643 56.792l.002-.601.138.074v-.12l-.139-.074v-.063c0-.08.037-.101.109-.062a.35.35 0 0 1 .058.037l.005-.126a.56.56 0 0 0-.085-.056c-.076-.041-.134-.051-.175-.029s-.064.071-.064.151v.066l-.103-.055v.12l.103.055-.002.601.153.082zm4.692 2.2v-.066a.62.62 0 0 0-.074-.306.52.52 0 0 0-.214-.21c-.058-.031-.11-.042-.159-.037s-.084.031-.111.074-.039.101-.039.173v.02c0 .107.029.21.088.306a.61.61 0 0 0 .234.221.37.37 0 0 0 .154.048c.045 0 .081-.016.108-.043l-.082-.128c-.044.037-.101.037-.17 0-.05-.026-.092-.066-.124-.118a.39.39 0 0 1-.056-.172l.444.237zm-3.488-1.543c.056.03.107.046.153.047s.082-.015.109-.043l-.082-.128c-.044.037-.101.037-.171-.001a.33.33 0 0 1-.124-.117c-.032-.052-.051-.11-.055-.171l.444.237v-.066a.61.61 0 0 0-.076-.307.52.52 0 0 0-.213-.209c-.059-.032-.112-.043-.158-.036s-.085.03-.111.073-.04.101-.04.173v.02a.57.57 0 0 0 .09.307.61.61 0 0 0 .234.222zm1.004-1.996v.02c-.001.108.029.21.089.307s.138.172.234.223c.057.03.107.045.153.045s.082-.013.109-.043l-.082-.126c-.044.037-.101.036-.171-.001-.049-.026-.09-.066-.124-.119a.37.37 0 0 1-.055-.171l.444.237v-.066a.61.61 0 0 0-.076-.307c-.05-.089-.121-.158-.213-.207-.059-.032-.111-.045-.158-.038s-.085.031-.111.073-.04.101-.04.173zm4.249 4.439v-.009a.63.63 0 0 0-.084-.317.57.57 0 0 0-.224-.222c-.059-.032-.113-.044-.16-.039a.14.14 0 0 0-.109.073c-.027.043-.04.099-.04.17v.009a.61.61 0 0 0 .086.315c.056.099.131.172.223.222.061.032.115.046.161.039s.084-.029.109-.073.039-.098.039-.167zm7.264 3.869v.009c0 .111.029.217.086.315s.131.172.223.222c.061.032.116.047.163.04s.084-.029.109-.073.037-.099.037-.168v-.009a.63.63 0 0 0-.084-.318c-.056-.098-.131-.172-.224-.222-.059-.032-.113-.044-.16-.039s-.082.03-.109.073-.04.099-.04.17zm7.475 3.996v.009a.61.61 0 0 0 .085.315c.056.099.131.173.223.222.061.033.115.046.163.04s.082-.03.108-.073.039-.098.039-.168v-.009a.63.63 0 0 0-.084-.318c-.058-.099-.133-.173-.224-.222-.059-.032-.113-.044-.16-.039s-.084.029-.109.073-.04.099-.04.17zM32.765 56.235c.056.098.134.172.229.223.064.034.119.048.167.044s.085-.03.11-.072.038-.099.039-.171v-.038a.62.62 0 0 0-.093-.299c-.056-.093-.131-.165-.223-.214-.061-.032-.116-.045-.164-.041s-.085.028-.11.072-.04.099-.04.17v.008a.62.62 0 0 0 .085.318zm19.299 9.38l-.003 1.024.117.063.002-.514c.015-.026.037-.042.067-.048s.061.001.099.021c.045.024.08.055.102.092s.034.081.033.134l-.001.477.116.062.002-.477c-.001-.172-.073-.298-.215-.374-.083-.045-.15-.045-.201-.007l.001-.389-.117-.063zm5.622 3.006l-.003 1.024.151.081.002-.516c.031-.04.076-.045.137-.012.04.021.069.047.089.078s.031.074.031.123l-.001.465.152.081.001-.471c-.002-.177-.076-.305-.22-.382-.076-.041-.139-.043-.189-.008l.001-.382-.151-.081zm-2.08-1.112l-.003 1.024.116.062.001-.253.072-.043.235.46.137.073-.294-.578.265-.161-.141-.076-.211.125-.062.047.002-.62-.116-.062zm4.708 3.542l.001-.471c-.002-.177-.074-.305-.22-.382-.076-.041-.139-.042-.188-.007l.001-.382-.153-.081-.003 1.024.152.082.002-.516c.03-.042.075-.046.136-.013.04.021.069.047.09.078s.029.073.029.123l-.001.465.153.081zm-3.762-.368l.002-.472c-.002-.177-.074-.303-.219-.381-.076-.041-.139-.044-.188-.009l.001-.382-.153-.082-.003 1.025.153.082.002-.516c.03-.041.075-.047.136-.015.04.021.069.047.09.08s.029.072.029.121l-.002.466.153.082zm-9.266-4.954l.002-.472c-.002-.177-.075-.304-.22-.381-.076-.04-.138-.044-.19-.009l.001-.382-.151-.081-.003 1.025.151.081.002-.516c.031-.04.077-.046.137-.014.04.021.069.047.089.079s.031.072.031.122l-.002.466.153.082zm-5.126-2.741l.002-.472a.4.4 0 0 0-.22-.381c-.075-.04-.139-.044-.188-.009l.001-.382-.153-.082-.003 1.025.153.082.002-.516c.03-.041.075-.047.137-.014.038.02.068.047.089.079s.029.072.029.121l-.002.466.153.081zm-7.196-3.848l.002-.472a.4.4 0 0 0-.218-.38c-.076-.041-.14-.044-.19-.009l.001-.382-.152-.081-.003 1.025.153.081.002-.515c.03-.042.075-.047.137-.014.038.02.069.047.089.079s.029.072.029.121l-.001.466.152.081zm-2.07-1.107l.001-.472c-.002-.177-.074-.303-.22-.381-.076-.041-.139-.044-.188-.009l.001-.382-.153-.082-.003 1.025.153.082.002-.516c.03-.041.075-.047.136-.015.04.021.069.048.09.08s.029.072.029.121l-.001.466.153.081zm16.462 8.802l.002-.472a.4.4 0 0 0-.22-.381c-.076-.041-.139-.044-.188-.009l.001-.382-.152-.081-.003 1.025.153.081.001-.516c.03-.041.075-.047.136-.015.039.021.069.048.09.08s.029.072.029.121l-.002.466.153.081zm-9.266-4.954l.002-.472c-.002-.178-.076-.304-.22-.381-.076-.041-.139-.044-.188-.009l.001-.382-.153-.081-.003 1.025.153.082.001-.516c.03-.042.075-.047.136-.015.039.021.069.048.09.08s.029.071.029.121l-.002.466.153.082zm14.393 7.695l.001-.472c-.002-.177-.075-.304-.219-.381-.076-.041-.139-.044-.19-.01l.001-.382-.153-.082-.003 1.025.153.082.002-.516c.031-.041.076-.046.137-.014.04.021.069.048.089.079s.031.072.031.122l-.002.466.153.081zm-7.453-5.515l.275-.689-.124-.067-.16.457-.168-.632-.127-.068.241.844-.027.059c-.014.038-.031.059-.054.065s-.052-.004-.092-.025l-.031-.018v.099l.044.032.021.013c.092.049.16.025.203-.071zm12.776 8.287c.054-.03.081-.095.081-.193a.55.55 0 0 0-.071-.277.49.49 0 0 0-.202-.197c-.054-.029-.102-.043-.144-.038l.026-.219.363.194v-.14l-.49-.262-.051.464.121.097c.023-.011.044-.014.064-.011s.042.011.071.026c.05.026.089.064.118.115s.042.104.042.164-.013.103-.039.124-.064.02-.11-.005c-.041-.022-.075-.054-.102-.092s-.041-.083-.046-.133l-.148-.079a.49.49 0 0 0 .09.248.59.59 0 0 0 .208.186c.093.05.167.059.219.03zm-7.86-4.538v-.168a.75.75 0 0 0-.074-.345c-.049-.094-.124-.169-.223-.222s-.177-.06-.225-.015-.075.134-.076.274v.168c.001.136.026.252.077.348a.52.52 0 0 0 .222.222c.102.055.175.058.225.014s.074-.137.074-.277zm10.959 4.216v-.167a.77.77 0 0 0-.074-.347c-.049-.094-.124-.169-.223-.222s-.177-.059-.226-.016-.074.135-.075.275l-.001.168c.001.136.026.252.077.348s.124.17.222.222.175.059.225.015.074-.138.075-.278zm-18.155-8.063l.001-.168c0-.136-.025-.251-.074-.345s-.124-.169-.223-.222-.177-.06-.225-.015-.075.134-.076.274v.168c.001.136.027.253.077.348a.52.52 0 0 0 .223.223c.1.054.174.057.224.012s.074-.136.074-.276zm14.393 7.695v-.169c-.001-.136-.026-.252-.074-.345s-.124-.169-.224-.222-.176-.059-.225-.015-.074.135-.075.275v.168c.001.136.026.252.077.348s.124.17.222.222.175.058.225.013.074-.137.075-.276zM37.554 60.116v-.168c-.001-.136-.026-.252-.075-.346a.52.52 0 0 0-.223-.222c-.1-.054-.177-.06-.225-.015s-.074.135-.075.275v.168c.001.136.026.252.075.348s.124.17.223.223.175.058.224.013.075-.136.076-.276zm-5.998-5.163l-.003 1 .152.082.001-.343a.45.45 0 0 0 .179.174c.081.043.144.044.192.003s.071-.119.071-.23v-.009c0-.117-.022-.22-.07-.311a.46.46 0 0 0-.195-.204c-.076-.041-.137-.043-.182-.01l-.006-.077-.141-.076zm13.829 9.695c.057-.021.085-.075.085-.162 0-.054-.012-.108-.039-.161a.47.47 0 0 0-.114-.147c.043.001.076-.009.102-.033s.04-.058.04-.102c.001-.087-.026-.169-.077-.245s-.124-.14-.215-.189c-.056-.03-.106-.045-.15-.045s-.079.012-.105.04-.037.066-.037.116l.151.081c0-.041.014-.066.04-.077s.061-.005.102.017c.046.025.082.056.104.094s.034.079.033.126-.014.077-.041.088-.065.003-.112-.021l-.093-.05v.128l.09.048c.057.03.098.066.127.109s.042.09.042.141-.014.081-.041.094-.065.006-.112-.019-.082-.057-.109-.099-.04-.084-.04-.126l-.153-.082c0 .083.028.164.084.244s.127.143.216.191.165.063.221.04zm-1.379-.695l.002-.699-.137-.073-.007.068c-.043-.081-.104-.142-.182-.183s-.147-.046-.197-.005-.075.117-.076.228a.66.66 0 0 0 .075.32.47.47 0 0 0 .193.204c.073.04.133.046.177.016v.048c0 .057-.016.091-.044.106s-.07.007-.12-.02a.44.44 0 0 1-.173-.181l-.073.059c.026.048.061.096.109.144s.096.084.145.111c.095.051.168.063.225.038s.082-.086.083-.18zm7.197 3.847l.002-.699-.137-.073-.007.068a.44.44 0 0 0-.182-.183c-.082-.044-.147-.045-.197-.004s-.075.116-.076.227c-.001.119.025.226.074.32a.48.48 0 0 0 .195.205c.073.039.131.044.175.015v.048c0 .057-.014.092-.044.106s-.069.007-.119-.02a.44.44 0 0 1-.173-.182l-.072.059c.026.048.061.096.109.144s.096.084.145.111c.093.05.168.063.225.037s.082-.085.083-.18zm7.196 3.848l.002-.699-.137-.073-.007.069a.44.44 0 0 0-.182-.183c-.082-.044-.148-.046-.198-.005s-.074.117-.074.228c0 .119.025.226.074.32a.48.48 0 0 0 .195.205c.073.04.132.045.175.016v.048c0 .057-.014.092-.044.106s-.069.007-.119-.02a.44.44 0 0 1-.173-.182l-.072.059c.024.047.06.096.108.144s.094.084.145.111c.093.05.168.063.224.037s.084-.085.084-.179zm3.762.37l.002-.701-.137-.073-.007.07c-.044-.082-.104-.143-.182-.185s-.147-.044-.197-.004-.075.116-.076.229a.67.67 0 0 0 .074.318c.051.095.116.163.195.205.073.039.131.045.175.016v.049c0 .056-.014.092-.044.105s-.069.007-.119-.02a.43.43 0 0 1-.173-.182l-.072.059a.55.55 0 0 0 .108.144c.047.047.096.084.145.111.093.05.168.063.223.038s.084-.085.084-.18zM36.811 60.106l.002-.699-.139-.074-.007.069a.44.44 0 0 0-.182-.183c-.082-.044-.147-.045-.197-.004s-.075.116-.075.227c0 .119.025.226.075.321a.47.47 0 0 0 .193.204c.074.039.133.046.177.016v.048c0 .057-.016.091-.044.106s-.069.007-.12-.021c-.069-.037-.126-.097-.173-.181l-.072.059a.6.6 0 0 0 .108.144c.047.047.096.084.145.111.095.051.17.064.225.037s.084-.085.084-.179zm-1.589-5.654l-.003 1.026.153.081.001-.236.068-.037.2.417.177.094-.277-.57.252-.166-.182-.098-.189.124-.048.038.002-.591-.152-.082zm3.078 6.473v-.129l-.424-.227.224-.135a.4.4 0 0 0 .128-.114c.026-.039.039-.083.039-.131 0-.084-.025-.163-.076-.238s-.122-.136-.21-.183c-.061-.032-.116-.048-.163-.048s-.083.019-.109.053-.038.08-.039.139l.153.082c0-.056.014-.092.041-.109s.065-.013.115.013c.042.023.075.054.099.095a.25.25 0 0 1 .036.132c0 .035-.009.065-.029.089s-.05.053-.093.081l-.305.191v.111l.613.328zm14.409 7.487v-.129l-.114-.061.002-.625-.157-.084-.396.446.004.1.396.212-.001.217.151.081.001-.217.115.061zm-8.812-6.137l.163-.46.164.634.093.05.2-.616-.116-.062-.132.482-.161-.639-.093-.05-.158.457-.133-.613-.116-.062.196.827.093.05zm-11.664-5.182v-.105l-.13-.069.05-.252-.106-.056-.049.252-.141-.076.05-.252-.104-.056-.05.252-.171-.091v.105l.152.082-.037.189-.164-.088v.105l.145.078-.049.248.104.056.049-.248.14.075-.047.249.105.056.049-.248.157.084.001-.105-.139-.074.037-.189.148.079zm24.746 12.176l.106.057.049-.246.14.075-.047.247.104.056.048-.247.158.085v-.107l-.139-.074.036-.19.15.08v-.105l-.13-.069.049-.252-.105-.056-.049.253-.141-.076.049-.252-.104-.056-.049.253-.172-.092v.105l.153.082-.036.19-.164-.088v.107l.144.077-.049.246zm-17.549-8.329v-.105l-.13-.07.049-.252-.105-.056-.049.253-.141-.076.05-.252-.106-.057-.049.252-.171-.091v.105l.151.081-.036.19-.164-.088v.105l.144.077-.048.249.105.056.049-.248.14.075-.047.249.105.056.047-.249.158.085v-.105l-.139-.074.037-.189.148.079zm14.392 7.695v-.105l-.13-.069.049-.252-.105-.056-.049.253-.141-.076.049-.253-.104-.056-.049.252-.172-.092v.105l.152.081-.036.19-.164-.088-.001.105.144.077-.049.248.106.057.049-.248.14.075-.049.248.106.057.048-.249.158.085v-.105l-.138-.074.036-.19.15.08zm-7.196-3.847v-.105l-.13-.069.049-.253-.105-.056-.049.252-.141-.075.049-.252-.105-.056-.049.252-.172-.092v.105l.153.082-.036.19-.164-.088v.105l.144.077-.047.249.104.056.049-.248.14.075-.048.249.105.056.048-.249.158.085v-.105l-.138-.074.036-.19.15.08zm-9.019-5.876l.001-.473a.45.45 0 0 0-.056-.226c-.035-.062-.092-.115-.167-.155-.089-.048-.158-.047-.208 0-.033-.092-.096-.162-.186-.211-.082-.044-.148-.049-.195-.016l-.004-.078-.144-.077-.002.722.152.082.002-.522c.026-.04.068-.043.13-.01.079.042.12.106.121.191l-.001.475.153.082.002-.495c.009-.027.024-.044.045-.054s.051-.002.085.017a.24.24 0 0 1 .094.082c.018.031.027.07.026.115l-.001.469.152.081zm1.533.458l.317-.442-.137-.073-.239.362-.236-.616-.139-.074.313.779-.001.361.12.064.001-.361zm-7.377-6.712l.274.628-.284.339.185.099.197-.251.195.461.185.099-.281-.641.277-.334-.182-.097-.193.247-.191-.453-.182-.097zm.812.434l.274.628-.284.339.185.099.198-.251.195.461.185.099-.281-.641.277-.334-.182-.098-.193.248-.191-.453-.182-.097zm.813.434l.274.628-.284.339.185.099.198-.251.195.461.185.099-.281-.641.279-.333-.184-.098-.193.248-.191-.453-.182-.097zm-3.503-3.057l38.523 20.597-.025 8.17-38.523-20.597.025-8.17z"/><path d="M50.916 67.066a.29.29 0 0 1 .134.155v.317c-.03.04-.075.044-.136.011-.049-.026-.087-.068-.115-.123a.43.43 0 0 1-.042-.194c0-.083.015-.137.043-.165s.067-.028.117 0zm-.64-2.016a.28.28 0 0 1 .114.112.36.36 0 0 1 .047.171v.009l-.339-.181c.007-.061.027-.101.059-.121s.072-.016.119.009zm-4.082-.283l.049-.191.182.075-.047.192-.184-.076z"/></g><path d="M46.377 64.843l-.184-.076.049-.191.182.075-.047.192z" class="B"/><path d="M42.92 63.083c.032-.005.081.008.145.041l.094.047v.145c-.014.022-.037.031-.068.034s-.063-.007-.097-.024-.068-.044-.09-.074-.032-.063-.032-.097c0-.04.017-.064.049-.071z" class="C"/><path d="M32.511 53.057l-.277.334.281.641-.185-.099-.196-.461-.197.251-.185-.099.284-.339-.274-.629.182.097.191.453.193-.248.182.098zm1.222 2.743c.027.014.055.032.085.056l-.005.126c-.015-.013-.035-.025-.058-.037-.072-.038-.109-.018-.109.062v.063l.139.074-.001.12-.138-.074-.002.602-.153-.082.002-.601-.103-.055v-.12l.103.055v-.066c0-.08.022-.13.064-.151s.099-.012.175.029z" class="B"/><path d="M53.199 66.819v-.009a.37.37 0 0 0-.046-.171.29.29 0 0 0-.116-.113c-.047-.025-.086-.028-.117-.009s-.052.059-.06.12l.339.181zm.117.114v.051l-.461-.246c.001.071.021.139.059.205s.085.11.142.141c.041.022.075.031.103.03s.054-.013.075-.032l.07.098c-.057.062-.142.063-.256.002a.58.58 0 0 1-.224-.217c-.058-.096-.086-.196-.085-.303v-.023c0-.072.013-.13.039-.172s.063-.067.109-.074a.24.24 0 0 1 .15.032.51.51 0 0 1 .206.204c.048.087.073.19.073.306z" class="E"/><g class="B"><path d="M32.487 56.789l-.001.382c.05-.035.112-.032.188.009.146.078.217.203.22.381l-.002.472-.153-.082.001-.466a.23.23 0 0 0-.029-.121c-.019-.032-.051-.059-.091-.08-.061-.033-.106-.027-.136.015l-.002.516-.152-.081.003-1.026.153.081zm1.51 1.098a.55.55 0 0 1 .196.17c.049.07.075.138.074.205l-.153-.082c0-.032-.01-.062-.032-.096a.24.24 0 0 0-.086-.076c-.034-.018-.061-.025-.082-.02s-.031.022-.031.049a.12.12 0 0 0 .029.075.67.67 0 0 0 .119.104 1.21 1.21 0 0 1 .141.127.42.42 0 0 1 .075.109.26.26 0 0 1 .025.113c0 .065-.026.104-.077.117s-.117-.003-.199-.047c-.055-.029-.105-.066-.148-.111a.57.57 0 0 1-.102-.143c-.024-.05-.035-.097-.035-.139l.147.079c.003.039.015.076.041.111a.3.3 0 0 0 .1.084c.039.021.071.03.092.025s.031-.021.031-.046-.011-.057-.034-.084a.71.71 0 0 0-.112-.101c-.053-.04-.095-.076-.13-.113-.075-.079-.113-.157-.113-.23 0-.063.025-.101.074-.117s.112-.003.188.038zm1.313.54l-.001.176.12.064v.12l-.12-.064-.001.403c0 .027.006.05.016.069s.028.033.055.047c.017.009.035.016.053.021v.126a.48.48 0 0 1-.101-.038c-.117-.063-.175-.163-.175-.3l.001-.409-.112-.06v-.12l.112.06v-.176l.151.081zm1.348 1.416l.001-.317c-.03-.07-.075-.123-.135-.155-.051-.027-.089-.027-.117 0s-.041.084-.042.166c0 .072.012.136.041.193s.066.097.116.124c.061.032.107.029.137-.011zm.016-.51l.139.074-.002.699c0 .095-.029.155-.084.179s-.13.013-.225-.037a.61.61 0 0 1-.145-.111.6.6 0 0 1-.108-.144l.072-.059a.44.44 0 0 0 .173.182c.051.027.09.033.12.021s.044-.049.044-.106v-.048c-.044.029-.103.023-.177-.016a.47.47 0 0 1-.193-.204c-.051-.095-.076-.202-.075-.32 0-.111.026-.188.076-.228s.115-.04.197.004a.44.44 0 0 1 .182.184l.007-.069z"/><path d="M37.401 60.071l.001-.219c0-.09-.012-.165-.035-.219s-.061-.095-.111-.123-.086-.026-.11.001-.036.083-.037.168l-.001.22c0 .092.011.166.035.222s.062.101.113.128.085.024.109-.003.036-.086.037-.174zm.078-.47c.049.094.074.21.075.346v.168c-.001.14-.026.232-.076.276s-.123.041-.224-.013-.174-.127-.223-.223-.074-.212-.075-.347v-.169c0-.14.025-.232.075-.275s.125-.039.225.015.174.128.223.222z"/><path d="M37.981 59.767a.59.59 0 0 1 .21.183c.051.075.076.154.076.238 0 .048-.013.092-.039.131s-.068.078-.128.114l-.224.135.424.227v.129l-.613-.328v-.111l.305-.191c.044-.028.075-.054.094-.081s.029-.054.029-.089c0-.047-.011-.09-.037-.132a.24.24 0 0 0-.099-.095c-.049-.026-.087-.032-.114-.013s-.041.053-.041.109l-.153-.082c0-.059.013-.106.038-.139s.063-.051.109-.053a.33.33 0 0 1 .163.048zm3.212 1.968a.55.55 0 0 1 .196.17c.049.07.075.138.074.205l-.153-.081c0-.032-.01-.062-.032-.096s-.051-.057-.086-.076-.061-.025-.082-.02-.031.022-.031.05.01.05.028.074.059.059.12.105a.97.97 0 0 1 .14.126c.034.038.059.074.076.11s.025.074.025.113c0 .065-.026.104-.077.117s-.117-.003-.199-.047a.6.6 0 0 1-.148-.111.55.55 0 0 1-.101-.143c-.024-.05-.035-.097-.035-.139l.147.078c.003.039.015.076.041.111a.3.3 0 0 0 .1.084c.039.021.071.031.09.024s.032-.02.032-.046-.011-.057-.034-.084-.059-.06-.111-.1a1.12 1.12 0 0 1-.13-.113c-.076-.08-.114-.158-.114-.231 0-.063.026-.101.075-.116s.112-.003.188.037zm3.974 1.874a.59.59 0 0 1 .215.189.42.42 0 0 1 .077.244c0 .044-.014.077-.04.102s-.06.034-.102.033c.051.045.089.094.114.147s.039.107.039.161c0 .087-.029.141-.085.162s-.13.009-.221-.04-.161-.112-.216-.191-.085-.161-.084-.244l.153.081a.23.23 0 0 0 .041.126.29.29 0 0 0 .109.099c.047.025.085.032.112.019s.041-.043.042-.094a.25.25 0 0 0-.042-.142c-.028-.044-.07-.078-.127-.109l-.09-.048.001-.128.093.05c.047.023.083.031.112.021s.041-.04.041-.088a.24.24 0 0 0-.033-.126.26.26 0 0 0-.104-.094c-.041-.022-.075-.028-.102-.017s-.04.036-.04.076l-.151-.081c0-.05.011-.089.037-.116a.13.13 0 0 1 .105-.04.35.35 0 0 1 .15.045zm5.883 3.928l.001-.317c-.028-.069-.073-.122-.134-.155-.051-.027-.089-.027-.117 0s-.043.083-.043.165c0 .072.014.137.042.194a.27.27 0 0 0 .116.124c.061.032.106.028.136-.012zm.017-.51l.137.073-.002.699c0 .095-.027.156-.083.18s-.131.013-.225-.037a.61.61 0 0 1-.145-.111.62.62 0 0 1-.109-.144l.072-.059a.44.44 0 0 0 .174.182c.049.026.09.033.119.02s.044-.049.044-.106v-.048c-.044.029-.102.024-.175-.015-.079-.043-.144-.11-.195-.205a.68.68 0 0 1-.074-.32c0-.111.026-.188.076-.227s.115-.04.197.004a.44.44 0 0 1 .182.183l.007-.068zm3.007 1.304l-.001.382c.051-.034.113-.031.19.01.144.077.217.203.22.381l-.001.472-.153-.082.002-.466c0-.05-.01-.089-.03-.122s-.05-.058-.089-.079c-.061-.032-.106-.027-.137.014l-.002.516-.153-.082.003-1.025.152.082zm1.511 1.099a.55.55 0 0 1 .196.17c.049.07.075.138.074.205l-.153-.081c0-.032-.011-.063-.032-.096s-.051-.057-.086-.076-.061-.025-.082-.02-.033.022-.033.049a.12.12 0 0 0 .029.075c.019.025.06.059.12.105a1.12 1.12 0 0 1 .14.126c.034.037.059.074.076.11a.26.26 0 0 1 .024.112c0 .065-.024.104-.075.118s-.117-.003-.199-.047a.61.61 0 0 1-.148-.111.55.55 0 0 1-.101-.143.33.33 0 0 1-.036-.14l.148.079c.001.038.015.076.041.111a.3.3 0 0 0 .099.083c.041.022.071.03.092.025s.031-.021.032-.047-.01-.056-.033-.083a.72.72 0 0 0-.111-.1 1.11 1.11 0 0 1-.13-.113c-.076-.08-.114-.158-.114-.231 0-.063.026-.101.075-.116s.112-.003.188.037zm3.403 2.183l.001-.219a.56.56 0 0 0-.035-.219c-.023-.054-.059-.095-.111-.123s-.086-.027-.109.002-.037.083-.037.168l-.001.22c0 .092.011.165.035.222s.06.1.112.127.086.025.109-.003.036-.087.037-.174zm.079-.469c.048.093.073.209.074.345v.169c0 .139-.025.232-.074.276s-.125.04-.225-.013a.51.51 0 0 1-.221-.222.75.75 0 0 1-.077-.348v-.168c0-.14.026-.232.075-.275s.125-.039.225.015.175.128.224.222z"/></g><path d="M66.634 80.111l-2.869 1.544-32.06-17.12 2.869-1.544 32.06 17.121z" class="F"/><g class="E"><use xlink:href="#C"/><use xlink:href="#D"/><path d="M60.071 77.296l.74 1.187-.228.12-.74-1.187.228-.12z"/></g><path d="M61.126 78.807l.006-1.891c.001-.232-.176-.516-.394-.633l-1.775-.949c-.22-.118-.398-.024-.399.209l-.006 1.891a.8.8 0 0 0 .396.634l1.775.949c.218.117.396.023.397-.209zm-7.674-4.103l.006-1.891a.8.8 0 0 0-.396-.633l-1.776-.949c-.218-.117-.396-.023-.397.21l-.006 1.89a.8.8 0 0 0 .394.633l1.775.949c.22.117.398.023.399-.209zm-5.096-6.067l15.41 8.238-.015 4.783-15.41-8.238.015-4.784z" class="G"/><path d="M53.137 74.381l-.74-1.187.745-.393-.226-.363-.745.393-.74-1.187-.227.12.74 1.187-.745.393.226.363.745-.393.74 1.187.227-.12zm-.076-2.201a.8.8 0 0 1 .396.633l-.006 1.891c-.001.232-.179.326-.399.209l-1.775-.949a.8.8 0 0 1-.395-.633l.006-1.891c.001-.232.179-.326.397-.21l1.775.949z" class="J"/><g class="E"><use xlink:href="#C" x="-0.966" y="-1.549"/><path d="M52.916 72.438l.226.363-.745.393-.227.12-.745.393-.226-.362.745-.393.228-.12.745-.393z"/><use xlink:href="#C" x="6.708" y="2.553"/></g><path d="M60.811 78.483l-.74-1.187.745-.393-.226-.362-.745.393-.74-1.187-.227.12.74 1.187-.745.393.226.363.745-.393.74 1.187.227-.12zm-.074-2.2c.218.116.395.401.394.633l-.006 1.89c-.001.232-.179.326-.397.21l-1.775-.949a.8.8 0 0 1-.396-.634l.006-1.891c.001-.232.179-.326.398-.209l1.775.949z" class="J"/><use xlink:href="#D" x="-15.349" y="-8.206" fill="#135685"/><path d="M45.776 70.601l.006-1.891c.001-.232-.176-.516-.395-.633l-1.775-.949c-.22-.118-.398-.024-.399.209l-.006 1.891a.8.8 0 0 0 .396.634l1.775.949c.218.117.397.023.397-.21zm-5.126-6.083l7.704 4.119-.015 4.784-7.704-4.119.015-4.784z" class="F"/><path d="M45.462 70.277l-.74-1.187.745-.393-.226-.362-.745.393-.74-1.187-.227.12.74 1.187-.745.393.226.363.745-.393.74 1.187.228-.12zm-.074-2.2a.8.8 0 0 1 .395.633l-.006 1.891c-.001.232-.179.326-.397.21l-1.775-.949a.8.8 0 0 1-.396-.634l.006-1.891c.001-.232.179-.326.399-.209l1.775.949z" fill="#fefefd"/><g fill="#135685"><path d="M44.722 69.09l-.227.12.74 1.187.228-.12-.74-1.187z"/><use xlink:href="#C" x="-8.641" y="-5.653"/></g><g class="E"><path d="M29.892 60.128l.226.363-.745.393-.227.12-.745.393-.226-.363.745-.393.227-.12.745-.393z"/><use xlink:href="#C" x="-23.024" y="-12.309"/></g><path d="M30.113 62.071l-.74-1.187.745-.393-.226-.362-.745.393-.74-1.187-.228.12.74 1.187-.745.393.226.363.745-.393.74 1.187.227-.12zm-.074-2.2a.8.8 0 0 1 .395.633l-.006 1.891c-.001.232-.179.326-.397.21l-1.776-.949a.8.8 0 0 1-.396-.633l.006-1.891c.001-.232.179-.326.399-.209l1.775.949z" fill="#fefefd"/><path d="M28.407 59.334l.74 1.187-.227.12-.74-1.187.228-.12z" class="E"/><path d="M30.427 62.395l.006-1.891a.8.8 0 0 0-.395-.633l-1.775-.949c-.22-.118-.398-.024-.399.209l-.006 1.891a.8.8 0 0 0 .396.633l1.775.949c.218.117.396.023.397-.209zm-5.186-6.115l7.704 4.119-.014 4.783-7.704-4.119.015-4.784z" class="G"/><g class="E"><use xlink:href="#C" x="-15.349" y="-8.206"/><path d="M36.082 63.438l.74 1.187-.228.12-.74-1.187.228-.12z"/></g><path d="M37.788 66.175l-.74-1.187.745-.393-.226-.362-.745.393-.74-1.187-.227.12.74 1.187-.745.393.226.363.745-.393.74 1.187.227-.12zm-.076-2.201a.8.8 0 0 1 .396.634l-.006 1.89c-.001.232-.179.326-.398.209l-1.775-.949a.8.8 0 0 1-.395-.633l.006-1.891c.001-.232.179-.326.397-.209l1.775.949z" class="J"/><use xlink:href="#D" x="-23.023" y="-12.308" class="E"/><path d="M38.103 66.498l.006-1.891a.8.8 0 0 0-.396-.634l-1.775-.949c-.218-.117-.396-.023-.397.209l-.006 1.891c-.001.232.176.516.395.633l1.775.949c.219.117.398.023.399-.209zm-5.157-6.1l7.706 4.12-.015 4.783-7.706-4.12.014-4.783z" class="G"/></g><defs ><path id="C" d="M52.397 73.193l.74 1.187-.228.12-.74-1.187.227-.12z"/><path id="D" d="M60.59 76.54l.226.363-.745.393-.227.12-.745.393-.226-.363.745-.393.228-.12.745-.393z"/></defs></svg>