<svg xmlns="http://www.w3.org/2000/svg" width="235" height="159" fill="none" xmlns:v="https://vecta.io/nano"><style><![CDATA[.B{fill-rule:evenodd}.C{fill:#fff}.D{fill:#250f8a}.E{fill:#ffca00}]]></style><g class="B"><path opacity=".1" d="M213.52 90.114c-2.913-38.691-71.17-69.773-143.876-67.626s.464 46.5-44.432 46.563 24.056 68.035 102.138 55.663 89.083 4.091 86.17-34.6z" fill="#02ecf1"/><path d="M161.199 111.75c-.024.108-.062.218-.094.325l.095-.344zm-.245.793c-.044.105-.102.21-.152.313l.156-.328zm-.406.79c-.06.097-.133.191-.199.285l.205-.298zm-.604.816l-.199.216.205-.226zm-.539.58c-.126.12-.276.236-.417.355l.425-.366zm-1.193.951l-.17.119.177-.124zm3.047-4.398c.221-2.257-1.363-4.554-4.787-6.276-6.409-3.227-16.76-3.227-23.123-.004-3.17 1.607-4.75 3.712-4.747 5.819 0-.007-.002-.014-.002-.02l-.01 2.914c-.005 2.129 1.605 4.262 4.831 5.886a19.37 19.37 0 0 0 1.199.547l.43.162c.242.094.48.191.729.277.028.01.06.016.089.026a23.73 23.73 0 0 0 1.76.518c.046.012.089.029.136.04.135.033.275.057.41.088.34.078.68.153 1.027.219.09.017.177.041.268.057.133.024.271.041.406.061a27.56 27.56 0 0 0 .869.134c.117.015.229.037.346.051.127.017.257.024.384.038l.813.08c.132.011.261.028.393.039l.369.016a31.99 31.99 0 0 0 .821.038c.141.005.28.018.42.02.112.003.223-.002.335-.001a26.75 26.75 0 0 0 .896-.005c.148-.001.296.004.444-.001.086-.002.172-.013.261-.016.369-.014.737-.037 1.105-.063.149-.011.299-.014.447-.026.046-.004.091-.012.137-.016a29.3 29.3 0 0 0 1.856-.227c.03-.004.062-.006.093-.011.178-.027.35-.067.526-.099l.904-.168c.216-.045.427-.099.64-.15l.842-.21c.061-.016.123-.029.183-.044.099-.029.19-.068.289-.096a22.01 22.01 0 0 0 1.286-.426l.461-.172c.534-.211 1.054-.433 1.543-.68l.2-.103c.147-.077.273-.161.413-.239.202-.115.409-.229.596-.349.162-.102.306-.209.457-.314.171-.12.347-.239.502-.362.032-.026.071-.047.102-.073.21-.17.403-.343.587-.517.038-.037.07-.072.107-.108.108-.107.22-.216.319-.325.044-.048.072-.098.113-.146a6.82 6.82 0 0 0 .384-.496c.049-.072.115-.139.161-.211.023-.036.036-.072.058-.108.091-.147.165-.296.24-.445.043-.087.101-.171.138-.257.013-.029.016-.058.028-.087.059-.142.099-.287.142-.431.028-.096.072-.188.094-.284.006-.026.004-.051.011-.076.031-.152.043-.303.059-.455.009-.096.034-.192.037-.288.002-.039.003-.079.003-.118l.008-2.923c0 .132-.025.263-.038.396z" class="D"/></g><mask id="A" maskUnits="userSpaceOnUse" x="128" y="110" width="33" height="12" mask-type="alpha"><path d="M128.412 113.176c-.007 2.144 1.575 4.291 4.742 5.927 6.29 3.248 16.454 3.248 22.7 0 3.103-1.613 4.658-3.725 4.664-5.84l.009-2.937c-.007 2.115-1.56 4.227-4.663 5.839-6.248 3.248-16.412 3.248-22.7 0-3.169-1.634-4.75-3.782-4.744-5.924" class="B C"/></mask><g mask="url(#A)" class="B"><path d="M160.527 110.33l-.01 2.937-.002.126.01-2.937.002-.126z" fill="#872d24"/></g><mask id="B" maskUnits="userSpaceOnUse" x="128" y="110" width="33" height="12" mask-type="alpha"><path d="M128.412 113.176c-.007 2.144 1.575 4.291 4.742 5.927 6.29 3.248 16.454 3.248 22.7 0 3.103-1.613 4.658-3.725 4.664-5.84l.009-2.937c-.007 2.115-1.56 4.227-4.663 5.839-6.248 3.248-16.412 3.248-22.7 0-3.169-1.634-4.75-3.782-4.744-5.924" class="B C"/></mask><g mask="url(#B)" class="B D"><path d="M160.525 110.453l-.009 2.936a4.46 4.46 0 0 1-.106.825l.01-2.938c.061-.273.096-.549.105-.823z"/></g><g class="B"><g class="D"><path d="M160.42 111.276l-.01 2.938c-.061.271-.148.54-.259.808l.009-2.938a4.96 4.96 0 0 0 .26-.808z"/><path d="M160.16 112.084l-.009 2.938c-.116.276-.259.548-.428.816l.01-2.937c.169-.27.311-.542.427-.817z"/><path d="M159.733 112.901l-.01 2.937a6.69 6.69 0 0 1-.646.858l.009-2.936a6.95 6.95 0 0 0 .647-.859z"/><path d="M159.086 113.76l-.009 2.936c-.289.326-.62.648-.995.957l.009-2.937c.375-.31.707-.629.995-.956z"/><path d="M158.091 114.716l-.008 2.937c-.576.476-1.254.927-2.033 1.347l.009-2.937c.778-.42 1.456-.871 2.032-1.347z"/><path d="M156.059 116.062l-.01 2.938-.195.104c-1.071.556-2.256 1.016-3.515 1.383l.008-2.938c1.261-.366 2.447-.828 3.516-1.384l.196-.103z"/><path d="M152.348 117.549l-.009 2.938c-.975.282-1.994.508-3.04.675l.008-2.936c1.047-.169 2.067-.395 3.041-.677z"/><path d="M149.308 118.227l-.008 2.936-2.048.256.008-2.939 2.048-.253z"/><path d="M147.261 118.48l-.009 2.938-1.78.106.008-2.936 1.781-.108z"/><path d="M145.481 118.588l-.01 2.936-1.644.007.009-2.936 1.645-.007z"/><path d="M143.836 118.594l-.009 2.937-1.581-.074.009-2.938 1.581.075z"/><path d="M142.255 118.518l-.009 2.939-1.561-.158.009-2.937 1.561.156z"/><path d="M140.694 118.362l-.009 2.937-1.591-.248.008-2.936 1.592.247z"/><path d="M139.102 118.115l-.009 2.936-1.674-.367.009-2.936 1.674.367z"/><path d="M137.428 117.748l-.009 2.937-1.948-.588.008-2.938 1.949.589z"/><path d="M135.479 117.158l-.009 2.938a18.63 18.63 0 0 1-2.316-.993c-3.168-1.636-4.749-3.783-4.743-5.927l.009-2.936c-.006 2.143 1.576 4.29 4.744 5.925a18.34 18.34 0 0 0 2.315.993z"/></g><g fill="#02ecf1"><path d="M151.862 114.613h7.069c3.033-3.095 2.02-6.968-3.055-9.552-3.499-1.784-8.188-2.578-12.743-2.39l-6.122 4.376 14.851 7.566z"/><path d="M151.862 114.613l-14.851-7.566 6.122-4.375c-3.687.151-7.286.943-10.098 2.385-6.284 3.224-6.25 8.451.082 11.678 6.325 3.223 16.55 3.223 22.834 0 1.245-.638 2.231-1.358 2.98-2.122h-7.069z"/></g><path d="M151.967 81.571l2.143-1.1-.106 33.042-2.142 1.099.105-33.042z" fill="#4f34ce"/><path d="M137.118 74.002l2.142-1.099 14.85 7.568-2.142 1.099-14.85-7.569z" fill="#263543"/><g class="D"><path d="M151.967 81.571l-.105 33.041-14.851-7.565.107-33.045 14.849 7.569z"/><path d="M96.833 20.879c-.076.015-.151.052-.234.078.078-.024.15-.062.234-.078zm1.364.101c-.077-.023-.15-.028-.231-.044l.231.044zm-.706-.133h.012c-.093-.006-.177.009-.266.01.085-.001.164-.017.254-.01zm96.053 101.583c.027-.053.044-.12.067-.178-.035.09-.059.194-.103.275.016-.028.022-.066.036-.097zm-.19.31c-.065.091-.122.193-.199.27.077-.077.134-.179.199-.27zm4.174-51.253c-.009-.144-.026-.289-.049-.436-.003-.027-.01-.052-.015-.079l-.013-.065-.041-.211-.082-.315-.088-.279-.004-.014-.101-.274-.11-.266-.122-.26-.012-.026c-.004-.005-.007-.011-.01-.017l-.109-.214-.144-.256-.158-.259-.041-.061-.024-.036-.111-.167-.198-.273-.227-.287-.035-.039-.243-.278-.37-.377c-.169-.157-.338-.287-.507-.419l-.231-.192c-.253-.182-.514-.343-.782-.479l-91.117-46.436-.189-.09-.442-.179-.117-.034-.07-.023-.135-.04-.275-.057-.244-.033-.029-.002h-.022l-.173-.008c-.07-.001-.14.001-.208.005s-.133.01-.197.022c-.019.002-.035.006-.054.01l-.027.005-.108.019-.183.053-.176.068-.092.044-1.784.916-1.785.915c-.686.349-1.119 1.105-1.122 2.18L95 70.808c-.005 1.532.867 3.291 2.131 4.575.515.523 1.09.978 1.706 1.291l91.118 46.437c.561.285 1.09.427 1.571.452.56.031 1.04-.117 1.421-.402-.083.063-.159.138-.254.185l.536-.274.179-.091 1.427-.733 1.25-.641.18-.092c.69-.354 1.117-1.107 1.121-2.179l.152-47.562-.009-.287z"/></g></g><mask id="C" maskUnits="userSpaceOnUse" x="95" y="19" width="8" height="3" mask-type="alpha"><path d="M99.606 19.23l-1.806.923-1.806.921c.707-.362 1.687-.31 2.771.24l3.611-1.843c-.631-.32-1.225-.471-1.751-.471-.38 0-.724.079-1.02.23z" class="B C"/></mask><g mask="url(#C)" class="B"><path d="M95.995 21.074l3.61-1.844.093-.043-3.611 1.843-.092.044z" fill="#1a242e"/></g><mask id="D" maskUnits="userSpaceOnUse" x="95" y="19" width="8" height="3" mask-type="alpha"><path d="M99.606 19.23l-1.806.923-1.806.921c.707-.362 1.687-.31 2.771.24l3.611-1.843c-.631-.32-1.225-.471-1.751-.471-.38 0-.724.079-1.02.23z" class="B C"/></mask><g mask="url(#D)" class="B"><path d="M96.087 21.036l3.611-1.843a1.77 1.77 0 0 1 .179-.072l-3.611 1.847-.179.068z" fill="#1b252f"/></g><mask id="E" maskUnits="userSpaceOnUse" x="95" y="19" width="8" height="3" mask-type="alpha"><path d="M99.606 19.23l-1.806.923-1.806.921c.707-.362 1.687-.31 2.771.24l3.611-1.843c-.631-.32-1.225-.471-1.751-.471-.38 0-.724.079-1.02.23z" class="B C"/></mask><g mask="url(#E)" class="B"><path d="M96.266 20.965l3.61-1.845c.06-.021.123-.037.185-.052l-3.611 1.844c-.062.015-.124.032-.184.053z" fill="#1c2631"/></g><mask id="F" maskUnits="userSpaceOnUse" x="95" y="19" width="8" height="3" mask-type="alpha"><path d="M99.606 19.23l-1.806.923-1.806.921c.707-.362 1.687-.31 2.771.24l3.611-1.843c-.631-.32-1.225-.471-1.751-.471-.38 0-.724.079-1.02.23z" class="B C"/></mask><g mask="url(#F)" class="B"><path d="M96.45 20.911l3.61-1.844c.064-.017.128-.029.192-.037l-3.611 1.844-.191.037z" fill="#1d2732"/></g><mask id="G" maskUnits="userSpaceOnUse" x="95" y="19" width="8" height="3" mask-type="alpha"><path d="M99.606 19.23l-1.806.923-1.806.921c.707-.362 1.687-.31 2.771.24l3.611-1.843c-.631-.32-1.225-.471-1.751-.471-.38 0-.724.079-1.02.23z" class="B C"/></mask><g mask="url(#G)" class="B"><path d="M96.641 20.872l3.611-1.844.199-.022-3.61 1.844-.2.022z" fill="#1d2934"/></g><mask id="H" maskUnits="userSpaceOnUse" x="95" y="19" width="8" height="3" mask-type="alpha"><path d="M99.606 19.23l-1.806.923-1.806.921c.707-.362 1.687-.31 2.771.24l3.611-1.843c-.631-.32-1.225-.471-1.751-.471-.38 0-.724.079-1.02.23z" class="B C"/></mask><g mask="url(#H)" class="B"><path d="M96.842 20.851l3.61-1.844.211-.006-3.611 1.844-.211.006z" fill="#1e2a35"/></g><mask id="I" maskUnits="userSpaceOnUse" x="95" y="19" width="8" height="3" mask-type="alpha"><path d="M99.606 19.23l-1.806.923-1.806.921c.707-.362 1.687-.31 2.771.24l3.611-1.843c-.631-.32-1.225-.471-1.751-.471-.38 0-.724.079-1.02.23z" class="B C"/></mask><g mask="url(#I)" class="B"><path d="M97.052 20.845l3.61-1.844.227.011-3.612 1.845-.225-.012z" fill="#1f2b37"/></g><mask id="J" maskUnits="userSpaceOnUse" x="95" y="19" width="8" height="3" mask-type="alpha"><path d="M99.606 19.23l-1.806.923-1.806.921c.707-.362 1.687-.31 2.771.24l3.611-1.843c-.631-.32-1.225-.471-1.751-.471-.38 0-.724.079-1.02.23z" class="B C"/></mask><g mask="url(#J)" class="B"><path d="M97.278 20.857l3.61-1.844.246.031-3.611 1.844-.245-.031z" fill="#202c38"/></g><mask id="K" maskUnits="userSpaceOnUse" x="95" y="19" width="8" height="3" mask-type="alpha"><path d="M99.606 19.23l-1.806.923-1.806.921c.707-.362 1.687-.31 2.771.24l3.611-1.843c-.631-.32-1.225-.471-1.751-.471-.38 0-.724.079-1.02.23z" class="B C"/></mask><g mask="url(#K)" class="B"><path d="M97.524 20.89l3.611-1.844.278.058-3.611 1.845-.278-.059z" fill="#212d3a"/></g><path d="M99.606 19.23l-1.806.923-1.806.921c.707-.362 1.687-.31 2.771.24l3.611-1.843c-.631-.32-1.225-.471-1.751-.471-.38 0-.724.079-1.02.23z" class="B D"/><mask id="L" maskUnits="userSpaceOnUse" x="95" y="19" width="8" height="3" mask-type="alpha"><path d="M99.606 19.23l-1.806.923-1.806.921c.707-.362 1.687-.31 2.771.24l3.611-1.843c-.631-.32-1.225-.471-1.751-.471-.38 0-.724.079-1.02.23z" class="B C"/></mask><g mask="url(#L)" class="B D"><path d="M97.802 20.951l3.611-1.844.326.096-3.611 1.845-.326-.097z"/></g><g class="B D"><path d="M98.128 21.044l3.611-1.844c.147.05.295.109.447.18l-3.611 1.844c-.151-.07-.299-.131-.447-.18z"/><path d="M98.576 21.224l3.61-1.844.192.092-3.613 1.843-.19-.091z"/></g><mask id="M" maskUnits="userSpaceOnUse" x="192" y="119" width="6" height="5" mask-type="alpha"><path d="M193.583 121.019c-.001 1.132-.457 1.93-1.191 2.306l.568-.291.191-.098 1.517-.775 1.327-.677.19-.096c.733-.376 1.187-1.172 1.191-2.307" class="B C"/></mask><g mask="url(#M)" class="B D"><path d="M193.584 121.019l3.792-1.938c-.003 1.135-.458 1.931-1.191 2.307l-3.792 1.936c.733-.375 1.188-1.173 1.191-2.305z"/></g><path d="M193.97 73.449l3.568-1.826-.152 47.435-3.57 1.827.154-47.436zM99.054 21.288l3.569-1.825 91.082 46.311-3.57 1.826-91.081-46.312z" class="B D"/><mask id="N" maskUnits="userSpaceOnUse" x="190" y="65" width="8" height="9" mask-type="alpha"><path d="M190.314 67.319c2.077 1.092 3.749 3.732 3.743 5.907l3.481-1.844c.007-2.175-1.666-4.815-3.741-5.907" class="B C"/></mask><g mask="url(#N)" class="B"><path d="M190.314 67.318l3.483-1.844c.527.277 1.027.654 1.482 1.098l-3.483 1.844a6.38 6.38 0 0 0-1.482-1.098z" fill="#23313e"/></g><mask id="O" maskUnits="userSpaceOnUse" x="190" y="65" width="8" height="9" mask-type="alpha"><path d="M190.314 67.319c2.077 1.092 3.749 3.732 3.743 5.907l3.481-1.844c.007-2.175-1.666-4.815-3.741-5.907" class="B C"/></mask><g mask="url(#O)" class="B"><path d="M191.797 68.416l3.481-1.843.362.378-3.482 1.844-.361-.379z" fill="#22303d"/></g><mask id="P" maskUnits="userSpaceOnUse" x="190" y="65" width="8" height="9" mask-type="alpha"><path d="M190.314 67.319c2.077 1.092 3.749 3.732 3.743 5.907l3.481-1.844c.007-2.175-1.666-4.815-3.741-5.907" class="B C"/></mask><g mask="url(#P)" class="B"><path d="M192.159 68.796l3.481-1.844.271.319-3.482 1.845-.27-.32z" fill="#222e3b"/></g><mask id="Q" maskUnits="userSpaceOnUse" x="190" y="65" width="8" height="9" mask-type="alpha"><path d="M190.314 67.319c2.077 1.092 3.749 3.732 3.743 5.907l3.481-1.844c.007-2.175-1.666-4.815-3.741-5.907" class="B C"/></mask><g mask="url(#Q)" class="B"><path d="M192.429 69.116l3.482-1.844.222.289-3.481 1.844-.223-.289z" fill="#212d3a"/></g><mask id="R" maskUnits="userSpaceOnUse" x="190" y="65" width="8" height="9" mask-type="alpha"><path d="M190.314 67.319c2.077 1.092 3.749 3.732 3.743 5.907l3.481-1.844c.007-2.175-1.666-4.815-3.741-5.907" class="B C"/></mask><g mask="url(#R)" class="B"><path d="M192.652 69.405l3.481-1.844.192.272-3.481 1.845-.192-.273z" fill="#202c38"/></g><mask id="S" maskUnits="userSpaceOnUse" x="190" y="65" width="8" height="9" mask-type="alpha"><path d="M190.314 67.319c2.077 1.092 3.749 3.732 3.743 5.907l3.481-1.844c.007-2.175-1.666-4.815-3.741-5.907" class="B C"/></mask><g mask="url(#S)" class="B"><path d="M192.844 69.678l3.481-1.844.173.266-3.484 1.844-.17-.266z" fill="#1f2b37"/></g><mask id="T" maskUnits="userSpaceOnUse" x="190" y="65" width="8" height="9" mask-type="alpha"><path d="M190.314 67.319c2.077 1.092 3.749 3.732 3.743 5.907l3.481-1.844c.007-2.175-1.666-4.815-3.741-5.907" class="B C"/></mask><g mask="url(#T)" class="B"><path d="M193.015 69.944l3.482-1.844.155.261-3.483 1.843-.154-.26z" fill="#1e2a35"/></g><mask id="U" maskUnits="userSpaceOnUse" x="190" y="65" width="8" height="9" mask-type="alpha"><path d="M190.314 67.319c2.077 1.092 3.749 3.732 3.743 5.907l3.481-1.844c.007-2.175-1.666-4.815-3.741-5.907" class="B C"/></mask><g mask="url(#U)" class="B"><path d="M193.169 70.204l3.482-1.843.14.257-3.481 1.845-.141-.259z" fill="#1d2934"/></g><mask id="V" maskUnits="userSpaceOnUse" x="190" y="65" width="8" height="9" mask-type="alpha"><path d="M190.314 67.319c2.077 1.092 3.749 3.732 3.743 5.907l3.481-1.844c.007-2.175-1.666-4.815-3.741-5.907" class="B C"/></mask><g mask="url(#V)" class="B"><path d="M193.31 70.463l3.481-1.845.129.259-3.482 1.844-.128-.258z" fill="#1d2732"/></g><mask id="W" maskUnits="userSpaceOnUse" x="190" y="65" width="8" height="9" mask-type="alpha"><path d="M190.314 67.319c2.077 1.092 3.749 3.732 3.743 5.907l3.481-1.844c.007-2.175-1.666-4.815-3.741-5.907" class="B C"/></mask><g mask="url(#W)" class="B"><path d="M193.438 70.721l3.481-1.844.12.263-3.484 1.845-.117-.264z" fill="#1c2631"/></g><mask id="X" maskUnits="userSpaceOnUse" x="190" y="65" width="8" height="9" mask-type="alpha"><path d="M190.314 67.319c2.077 1.092 3.749 3.732 3.743 5.907l3.481-1.844c.007-2.175-1.666-4.815-3.741-5.907" class="B C"/></mask><g mask="url(#X)" class="B"><path d="M193.555 70.985l3.484-1.845.108.267-3.483 1.845-.109-.267z" fill="#1b252f"/></g><mask id="Y" maskUnits="userSpaceOnUse" x="190" y="65" width="8" height="9" mask-type="alpha"><path d="M190.314 67.319c2.077 1.092 3.749 3.732 3.743 5.907l3.481-1.844c.007-2.175-1.666-4.815-3.741-5.907" class="B C"/></mask><g mask="url(#Y)" class="B"><path d="M193.664 71.253l3.482-1.845.098.277-3.482 1.845-.098-.277z" fill="#1a242e"/></g><mask id="Z" maskUnits="userSpaceOnUse" x="190" y="65" width="8" height="9" mask-type="alpha"><path d="M190.314 67.319c2.077 1.092 3.749 3.732 3.743 5.907l3.481-1.844c.007-2.175-1.666-4.815-3.741-5.907" class="B C"/></mask><g mask="url(#Z)" class="B"><path d="M193.762 71.529l3.483-1.844.089.293-3.481 1.844-.091-.293z" fill="#19232c"/></g><mask id="a" maskUnits="userSpaceOnUse" x="190" y="65" width="8" height="9" mask-type="alpha"><path d="M190.314 67.319c2.077 1.092 3.749 3.732 3.743 5.907l3.481-1.844c.007-2.175-1.666-4.815-3.741-5.907" class="B C"/></mask><g mask="url(#a)" class="B"><path d="M193.853 71.822l3.481-1.844.081.317-3.483 1.845-.079-.318z" fill="#18222b"/></g><mask id="b" maskUnits="userSpaceOnUse" x="190" y="65" width="8" height="9" mask-type="alpha"><path d="M190.314 67.319c2.077 1.092 3.749 3.732 3.743 5.907l3.481-1.844c.007-2.175-1.666-4.815-3.741-5.907" class="B C"/></mask><g mask="url(#b)" class="B"><path d="M193.932 72.14l3.482-1.844.068.356L194 72.498l-.068-.357z" fill="#182029"/></g><path d="M190.314 67.319c2.077 1.092 3.749 3.732 3.743 5.907l3.481-1.844c.007-2.175-1.666-4.815-3.741-5.907" class="B D"/><mask id="c" maskUnits="userSpaceOnUse" x="190" y="65" width="8" height="9" mask-type="alpha"><path d="M190.314 67.319c2.077 1.092 3.749 3.732 3.743 5.907l3.481-1.844c.007-2.175-1.666-4.815-3.741-5.907" class="B C"/></mask><g mask="url(#c)" class="B D"><path d="M194 72.497l3.481-1.844.049.441-3.482 1.844-.048-.441z"/></g><g class="B"><path d="M194.048 72.938l3.482-1.844.008.287-3.481 1.844-.009-.287z" class="D"/><path d="M190.093 67.881c2.128 1.081 3.842 3.696 3.835 5.848l-.153 47.435c-.007 2.152-1.732 3.018-3.859 1.937L98.834 76.789c-2.127-1.081-3.841-3.697-3.834-5.849l.153-47.435c.007-2.151 1.733-3.018 3.86-1.936l91.08 46.312z" fill="#0ad7dd"/><path d="M189.532 71.588l-87.73-44.608-.121 43.085 87.713 44.592.138-43.069zm-56.398-17.641l.023-7.137 51.78 26.328-.023 7.137-51.78-26.328zm-27.478-13.971l.024-7.137 22.744 11.564-.022 7.138-.097 29.809-22.745-11.567.096-29.807zm27.381 43.778l.097-29.807 51.78 26.328-.097 29.808-51.78-26.329z" class="C"/><path d="M148.113 97.764l-7.453-3.789-.007 1.883 7.454 3.79.006-1.884z" class="D"/><path d="M128.423 44.402l-22.744-11.564-.022 7.137 22.744 11.565.022-7.138zm-5.507 2.842l.014-4.135 4.086 2.078-.014 4.134-4.086-2.077zm-5.526-2.81l.013-4.136 4.085 2.077-.012 4.136-4.086-2.077zm-5.528-2.812l.013-4.135 4.086 2.077-.013 4.135-4.086-2.077z" fill="#fa7564"/><path d="M128.401 51.541l-22.744-11.565-.097 29.807 22.744 11.567.097-29.809zm-21.485-.576l.022-6.962 20.049 10.195-.022 6.96-20.049-10.193zm-.055 16.853l.007-1.786 20.048 10.193-.006 1.787-20.049-10.194zm78.053 12.457l-51.78-26.328-.097 29.808 51.78 26.329.097-29.809zm-50.365-15.262l.022-6.96 48.896 24.862-.022 6.961-48.896-24.863zm-.013 3.574l.006-1.787 48.897 24.863-.006 1.786-48.897-24.862zm-.011 3.578l.006-1.786 48.896 24.862-.005 1.787-48.897-24.863zm-.029 8.815l.022-6.963 48.898 24.863-.022 6.961-48.898-24.861z" fill="#e5fdfd"/><path d="M184.803 74.328L133.023 48 133 55.137l51.78 26.328.023-7.137zm-5.54 2.826l.014-4.135 4.085 2.077-.012 4.135-4.087-2.077zm-5.527-2.81l.013-4.135 4.086 2.078-.014 4.134-4.085-2.077zm-5.528-2.811l.013-4.136 4.086 2.078-.014 4.135-4.085-2.077z" fill="#fa7564"/><path d="M183.496 73.905l-4.086-2.077-.014 4.135 4.087 2.077.013-4.135z" class="E"/><path d="M177.968 71.096l-4.086-2.077-.014 4.134 4.086 2.077.014-4.134zm-5.528-2.812l-4.086-2.077-.013 4.136 4.086 2.076.013-4.135z" class="C"/><path d="M127.016 45.187l-4.086-2.077-.014 4.135 4.086 2.076.014-4.134z" class="E"/><path d="M121.489 42.376l-4.086-2.077-.014 4.136 4.086 2.076.014-4.135zm-5.528-2.81l-4.087-2.077-.013 4.135 4.086 2.077.014-4.135zm11.026 14.631l-20.048-10.194-.023 6.962 20.048 10.192.023-6.96zm56.48 28.718l-48.896-24.862-.023 6.96 48.896 24.863.023-6.961zm-.051 15.964l-48.897-24.862-.022 6.962 48.896 24.861.023-6.961z" class="C"/><path d="M126.916 76.225l-20.047-10.194-.007 1.787 20.048 10.193.006-1.786zm56.523 15.437L134.543 66.8l-.007 1.787 48.897 24.861.006-1.786zm-.012 3.579l-48.896-24.862-.006 1.786 48.897 24.863.005-1.787z" class="E"/><path d="M101.72 69.923l-2.28.984.144-45.292 2.257 1.15-.121 43.158z" fill="#172029"/><path d="M189.353 114.59l-.007 2.151-89.907-45.834 2.28-.984 87.634 44.668z" fill="#263442"/></g></svg>