<svg xmlns="http://www.w3.org/2000/svg" xmlns:xlink="http://www.w3.org/1999/xlink" width="546" height="533" fill="none" xmlns:v="https://vecta.io/nano"><style><![CDATA[.B{fill:#ffd0d4}.C{fill:#250f8a}.D{fill:#fff}.E{fill:#472bc7}.F{fill:#000}.G{fill:#fa7564}.H{fill:#ffca00}.I{fill:#2d109f}.J{fill:#02ecf1}.K{fill:#e5fdfd}]]></style><g fill-rule="evenodd"><path d="M65.421 433.024C49.058 449.564 17.979 446.617 18 472.18c.018 22.671 25.933 33.273 44.38 39.89 60.677 21.758 109.978 29.092 169.053 7.045 40.803-15.22 256.353-138.592 286.208-158.069 41.131-26.841-50.518-52.267-102.814-60.79-76.535-12.48-349.406 132.768-349.406 132.768z" class="G"/><path d="M384.106 193.695c27.263-34.665 16.787-65.677 12.036-103.751-2.875-23.03-5.51-64.185-31.023-79.133-23.753-13.924-63.34-13.224-85.703-3.009-64.856 29.64-171.623 94.832-224.73 137.793C8.372 183.055 15.508 230.724 25 278.924c4.381 22.237 29.347 62.148 61.191 65.529 35.057 3.726 267.193-111.702 297.915-150.758zM390 252.553h48v-60.635h-48v60.635z" class="J"/><path d="M400.025 198.97l.771-.321.756-.284c.58.449.486.512.639 1.039l-6.318 2.826v.016l2.726 1.216 3.584 1.595c-.153.548-.028.591-.639 1.061a9.51 9.51 0 0 1-.916-.363l-7.003-3.125v-.42c0-.05.095-.115.299-.201l-.225.079v-.092c0-.086.014-.178.123-.242l6.203-2.784zm0 40.308l.771-.321.756-.284c.58.449.486.512.639 1.039l-6.318 2.826v.016l2.726 1.216 3.584 1.595c-.153.548-.028.591-.639 1.061a9.77 9.77 0 0 1-.916-.364l-7.003-3.124v-.421c0-.049.095-.114.299-.2l-.225.079v-.092c0-.086.014-.179.123-.243l6.203-2.783zm8.698-36.022h24.57v-2.533h-24.57v2.533zm5.487 8.863h19.083v-2.532H414.21v2.532zm8.622 7.598h10.461v-2.532h-10.461v2.532zm-14.109 23.848h24.57v-2.533h-24.57v2.533zm5.487-8.864h19.083v-2.532H414.21v2.532zm8.622-7.598h10.461v-2.532h-10.461v2.532zm-17.235 11.033l-2.559 9.023 1.838.145 2.558-9.023-1.837-.145z" class="D"/><path d="M422.173 259.057l.965 8.026 5.774 14.677-5.28 1.59-4.061-15.308-.531-8.631 3.133-.354z" class="C"/><path d="M434.512 297.868l-2.579 25.543.859 22.454h-8.886l-.478-1.671 6.091-.796-3.249-19.883-2.931-24.725 11.173-.922z" class="D"/><path d="M437.447 297.582l2.021 21.758 13.604 17.696-1.624 8.35h-4.061l2.436-1.789.407-5.369-12.995-14.315-11.777-25.647 11.989-.684z" fill="#e7eefa"/><path d="M413.013 262.479l2.837.92c1.154 3.272 3.076 6.233 5.613 8.646l5.31 5.052 6.537 4.323 4.856 17.64-15.192 1.404-.502-19.437-5.64-6.905c-2.32-2.838-3.889-6.192-4.569-9.766l.75-1.877z" class="C"/><path d="M416.147 264.367l-3.736 1.298-2.412-12.393.725-1.052 5.423 12.147z" class="B"/><path d="M416.991 264.132l-4.701 2.242s-.964-.826-.845-1.298.362-.826.724-1.062 3.979-1.535 3.979-1.535l.843 1.653z" class="E"/><g class="B"><path d="M419.04 259.411l-.24-6.61h2.651l.722 6.256-3.133.354zm-6.058-6.738l-1.734-1.035c-.035-.117-1.211-2.895-1.211-2.895l-1.692.234.482 4.564 2.331.55 1.824-1.418zm24.384 20.999c-1.133 2.542-4.802 5.157-7.399 4.047s-3.134-5.522-2.002-8.064 4.155-3.704 6.751-2.594 3.783 4.069 2.65 6.611z"/><path d="M429.626 268.104c-.45-.312-.916-.601-1.398-.865-.347-.188-.891-.304-1.045.053-.075.178.004.378.083.553.262.587.551 1.205 1.088 1.573a1.85 1.85 0 0 0 1.58.229c.474-.151.937-.504.986-.982-.476-.091-.896-.284-1.294-.561z"/></g><path d="M430.544 277.898c2.535.55 5.771-1.867 6.822-4.226 1.132-2.543-.053-5.503-2.649-6.611-.157-.068-.319-.1-.478-.15-.297.308-.537.674-.644 1.022-.418 1.358-.101 2.962.776 4.091 0 0-2.937 5.42-3.827 5.874z" class="F"/><path d="M434.713 272.837c.378.193.669.526.85.902.591 1.211-.81 2.4-2.005 2.242-.386-.05-.752-.202-1.089-.394-.29-.167-.574-.382-.704-.688-.126-.295-.085-.64.051-.93s.362-.532.605-.744c.556-.485 1.609-.736 2.292-.388z" class="B"/><path d="M120.964 410.65H378.218V145.824H120.964V410.65Z" fill="#ffda4f"/><path d="M114.367 410.65H371.621V145.824H114.367V410.65Z" class="D"/><path d="M114.367 166.451h257.254v-20.627H114.367v20.627z" class="H"/><path d="M193.079 348.124c-.333-.088-.667-.132-.998-.148-.072-.002-.143.007-.214.007-.268 0-.534.018-.794.064-.051.008-.099.023-.151.034-.287.06-.564.145-.833.257l-.055.024c-1.222.527-2.208 1.548-2.59 2.908-.667 2.392.388 6.228 2.83 6.883 1.134.305 2.367-.136 3.431-.929.406-.304.783-.654 1.123-1.037l.038-.044.418-.523.059-.081.378-.584.043-.078.253-.506.067-.151c.081-.194.152-.388.206-.579.167-.597.203-1.201.124-1.778-.237-1.735-1.503-3.247-3.335-3.739zm-10.683-15.1h20.66v.002c0 .872.55 1.616 1.328 1.925l-8.762 24.417-8.848-.693-5.477-24.462a2.09 2.09 0 0 0 1.099-1.189zm-3.587.67l-.177.025 3.186 26.69 2.478 24.956 2.104 25.285h3.687l.974-25.567 2.414-.1 1.552 25.667h4.239l1.666-25.978-.354-23.223 6.726-27.382-.273-.039c.168-.298.273-.635.273-1.002v-.002h15.68v-45.013h-59.536v45.013h14.96c.09.25.226.475.401.67z" class="K"/><path d="M289.127 332.003l2.98 17.561h-6.317l2.98-17.561h.357zm28.109 0l-2.98 17.561h-20.914l-2.98-17.561h26.874zm1.593 0l2.98 17.561h-6.318l2.98-17.561h.358zm5.142 30.286H313.33l1.959-11.532h6.723l1.959 11.532zm2.158 12.724h-14.957l1.956-11.531h11.045l1.956 11.531zm2.159 12.723h-19.276l1.957-11.531h15.363l1.956 11.531zm2.161 12.725h-23.597l1.956-11.532h19.684l1.957 11.532zm-24.833 0h-3.634l-1.958-11.532h7.55l-1.958 11.532zm-28.466 0l1.957-11.532h19.683l1.958 11.532H277.15zm4.117-24.256h15.363l1.958 11.531h-19.279l1.958-11.531zm2.16-12.723h11.043l1.957 11.531H281.47l1.957-11.531zm12.075-1.193l-1.958-11.532h20.51l-1.958 11.532h-16.594zm14.232 13.916l-1.957 11.531h-7.955l-1.956-11.531h11.868zm-12.072-1.192l-1.958-11.531h16.189l-1.957 11.531h-12.274zm-12.075-24.256h6.722l1.959 11.532h-10.639l1.958-11.532zm-11.402 59.893h1.235l1.527-8.996h24.003l1.527 8.996h1.235l-1.526-8.996h3.228l-1.528 8.996h1.236l1.527-8.996h24.003l1.527 8.996h1.234l-13.348-78.647h2.569v-3.579h-36.549v3.579h1.45l-13.35 78.647z" class="F"/><path d="M461.814 248.131h48.307V128.096h-48.307v120.035z" class="H"/><path d="M473.187 134.137l.772-.321.756-.284c.581.449.486.512.639 1.039l-6.318 2.826v.016l2.726 1.216 3.585 1.595c-.154.548-.029.591-.64 1.061a10.06 10.06 0 0 1-.916-.363l-7.002-3.125v-.42c0-.05.095-.115.298-.199l-.224.077v-.092c0-.086.013-.179.123-.243l6.201-2.783zm0 40.308l.772-.321.756-.284c.581.449.486.512.639 1.039l-6.318 2.826v.014l2.726 1.218 3.585 1.595c-.154.548-.029.591-.64 1.061a9.77 9.77 0 0 1-.916-.364l-7.002-3.124v-.421c0-.049.095-.114.298-.2l-.224.079v-.092c0-.086.013-.179.123-.243l6.201-2.783zm8.7-36.022h24.57v-2.533h-24.57v2.533zm5.487 8.863h19.083v-2.532h-19.083v2.532zm8.621 7.598h10.462v-2.532h-10.462v2.532zm-14.108 23.848h24.57v-2.533h-24.57v2.533zm5.487-8.865h19.083v-2.532h-19.083v2.532zm8.621-7.596h10.462v-2.533h-10.462v2.533zm-17.235 11.032l-2.559 9.023 1.839.145 2.558-9.023-1.838-.145zm-5.573 15.607l.772-.32.756-.284c.581.448.486.511.639 1.039l-6.318 2.826v.015l2.726 1.217 3.585 1.595c-.154.548-.029.59-.64 1.06-.341-.114-.647-.242-.916-.362l-7.002-3.126v-.421c0-.049.095-.113.298-.199l-.224.079v-.092c0-.086.013-.179.123-.243l6.201-2.784zm0 40.309l.772-.321.756-.284c.581.448.486.512.639 1.039l-6.318 2.826v.014l2.726 1.218 3.585 1.595c-.154.548-.029.591-.64 1.061a10.05 10.05 0 0 1-.916-.364l-7.002-3.126v-.42c0-.049.095-.113.298-.199l-.224.079v-.092c0-.086.013-.179.123-.243l6.201-2.783zm8.7-36.022h24.57v-2.532h-24.57v2.532zm5.487 8.864h19.083v-2.533h-19.083v2.533zm8.621 7.596h10.462v-2.532h-10.462v2.532zm-14.108 23.848h24.57v-2.533h-24.57v2.533zm5.487-8.864h19.083v-2.532h-19.083v2.532zm8.621-7.597h10.462v-2.533h-10.462v2.533zm-17.235 11.032l-2.559 9.023 1.839.146 2.558-9.024-1.838-.145z" class="D"/><path d="M145.172 344.953h59.537v-45.012h-59.537v45.012z" class="J"/><g class="F"><path d="M305.405 425.305l-16.176-95.301 1.201-.196 16.176 95.301-1.201.196zm-29.702 0l-16.177-95.301 1.201-.196 16.178 95.301-1.202.196z"/><use xlink:href="#B"/><path d="M265.696 363.482h29.968v-1.193h-29.968v1.193z"/><use xlink:href="#B" x="4.245" y="25.449"/><use xlink:href="#B" x="6.366" y="38.172"/><path d="M272.06 401.654h29.967v-1.193H272.06v1.193zm2.121 12.724h29.968v-1.193h-29.968v1.193z"/></g><g fill="#525252"><path d="M243.671 425.305l-1.201-.196 16.176-95.301 1.202.196-16.177 95.301zm29.702 0l-1.201-.196 16.176-95.301 1.201.196-16.176 95.301z"/><use xlink:href="#B" x="-8.039"/><use xlink:href="#B" x="-10.16" y="12.725"/><use xlink:href="#B" x="-12.282" y="25.449"/><path d="M249.17 388.929h29.967v-1.193H249.17v1.193z"/><use xlink:href="#B" x="-16.525" y="50.897"/><use xlink:href="#B" x="-18.646" y="63.621"/></g><path d="M256.824 332.003h36.548v-3.579h-36.548v3.579z" class="F"/><path d="M389.992 472.023l-2.478-24.956-3.186-26.689 2.478-.346 5.664 25.302 8.849.693 9.203-25.649 2.478.347-6.726 27.381.354 23.224-16.636.693z" class="H"/><path d="M393.141 437.929c-.669 2.391.386 6.229 2.829 6.884s5.348-2.121 6.017-4.513-.769-4.862-3.212-5.517-4.965.754-5.634 3.146z" class="B"/><path d="M396.407 436.548c-.5-.134-1.199-.471-1.466-.93-.026-.043-.035-.085-.051-.127 1.085-.767 2.492-1.081 3.884-.707 2.444.653 3.881 3.125 3.212 5.517-.477 1.707-2.096 3.604-3.871 4.315.033-.483.152-.961.277-1.429l1.691-5.625c-1.251-.245-2.481-.585-3.676-1.014z" class="F"/><path d="M399.261 440.205c.33-.236.784-.345 1.161-.186.086.037.169.087.236.154.183.177.236.449.213.701-.062.694-.644 1.276-1.324 1.483a1.39 1.39 0 0 1-.597.061.76.76 0 0 1-.51-.289c-.427-.598.344-1.585.821-1.924z" class="B"/><path d="M406.629 471.33l-2.458 38.278h-2.703l-2.296-37.966-2.416.1-1.475 38.802-2.087-.048-3.202-38.473-.471-4.74 17.048.218.06 3.829z" class="D"/><path d="M404.172 509.607l5.946.642-.215.903h-8.707l.271-1.545h2.705zm-8.892.937v1.087l-8.168.303v-1.001l6.081-.437 2.087.048z" class="C"/><g class="B"><use xlink:href="#C"/><use xlink:href="#C" x="24.778" y="0.693"/></g><path d="M166.021 397.295l-2.478-24.956-3.186-26.689 2.478-.348 5.664 25.304 8.848.693 9.204-25.649 2.478.347-6.726 27.381.354 23.224-16.636.693z" class="I"/><path d="M164.25 344.263c0 1.149-.95 2.079-2.123 2.079s-2.124-.93-2.124-2.079.951-2.079 2.124-2.079 2.123.93 2.123 2.079zm24.778.693c0 1.149-.95 2.08-2.123 2.08s-2.124-.931-2.124-2.08.951-2.079 2.124-2.079 2.123.931 2.123 2.079z" class="B"/><path d="M177.009 367.55l.058-.08.379-.586c.016-.025.027-.051.043-.076l.253-.506.067-.152c.081-.194.152-.387.206-.58.167-.597.203-1.2.124-1.778a4.37 4.37 0 0 0-.314-1.088c-.294-.706-.754-1.341-1.369-1.824-.14-.11-.301-.198-.456-.292l-.33-.207a4.7 4.7 0 0 0-.866-.327h-.003a4.64 4.64 0 0 0-.995-.148c-.072-.003-.143.008-.216.008-.268 0-.532.016-.792.062-.051.009-.101.024-.151.035a4.54 4.54 0 0 0-.833.257l-.055.024c-1.222.525-2.21 1.548-2.59 2.908-.667 2.391.388 6.228 2.83 6.883 1.134.304 2.366-.136 3.43-.929a7.55 7.55 0 0 0 1.123-1.037l.039-.046.418-.521z" class="F"/><path d="M182.657 396.602l-2.456 38.277h-2.705l-2.296-37.967-2.415.101-1.476 38.802-2.087-.047-3.202-38.473-.47-4.741 17.048.218.059 3.83z" class="H"/><path d="M180.201 434.879l5.945.641-.214.902h-8.708l.273-1.543h2.704zm-8.893.936v1.087l-8.167.303v-1.001l6.082-.436 2.085.047z" class="I"/><path d="M347.321 419.147h102.332v-59.646H347.321v59.646z" class="D"/><path d="M398.529 411.322h45.652v-44.285h-45.652v44.285zm-45.414-40.106h39.868v-3.76h-39.868v3.76zm0 9.19h39.868v-3.759h-39.868v3.759zm0 9.191h39.868v-3.76h-39.868v3.76zm0 9.192h39.868v-3.76h-39.868v3.76zm0 9.19h39.868v-3.759h-39.868v3.759z" class="C"/><path d="M273.75 252.49c.454.353.939.704 1.495.839-.003.148-.023.291-.012.441.213 2.766 2.794 6.421 5.618 6.213a3.14 3.14 0 0 0 .596-.106v-.001c.765-.205 1.453-.686 2.036-1.327l.055-.057.268-.327.085-.11.225-.323.1-.151.189-.319.103-.186.158-.315.101-.217.128-.303.093-.247.102-.291.081-.271.077-.275.065-.293.053-.256.045-.314.032-.23.022-.345.01-.187-.005-.204c.377.162.792.256 1.229.256 1.682 0 3.046-1.335 3.046-2.982s-1.364-2.982-3.046-2.982c-1.361 0-2.5.88-2.89 2.087l-.117-.119a5.18 5.18 0 0 0-2.691-1.175 5.11 5.11 0 0 0-1.037-.026c-2.046.15-3.707 1.463-4.395 3.222l-1.257-.094c-.395-.009-.932.138-.898.524.017.191.184.332.336.451zm-15.824-2.114l2.486 2.483-2.544-1.871.058-.612zm67.686 42.072l-16.337.727-11.225-17.924.237-.153-12.714-13.372-2.78-.294-16.955-8.22-6.106-5.438-1.736 1.861 3.53-37.401-50.821-4.6c.196-.451.304-.947.304-1.469 0-1.869-1.398-3.408-3.226-3.695v-75.435h-1.218v75.435c-1.827.287-3.226 1.826-3.226 3.695a3.62 3.62 0 0 0 .095.811l-43.913-3.973-4.859 51.473 102.005 9.231.801-8.469c3.406 3.106 7.811 6.622 10.054 7.577l8.283 3.522 9.537 16.633-.064.04.152.118.094.163.067-.042.307.235 2.677 22.578 3.248 19.881-6.092.796.479 1.673h8.886l-.86-22.457 1.508-14.937 11.057 8.459 18.141-4.072 1.757 4.505 1.421-.597-2.508-6.865z" class="K"/><path d="M130.295 254.476l102.005 9.231 4.86-51.473-102.007-9.231-4.858 51.473z" class="J"/><path d="M235.366 247.774l6.105 5.439 20.125 9.755-8.853 2.205-13.322-8.946-6.183-6.172 2.128-2.281z" fill="#ff7e6e"/><path d="M261.094 253.019c.212 2.765-1.784 6.758-4.609 6.964s-5.407-3.448-5.619-6.213 1.905-5.176 4.73-5.383 5.286 1.867 5.498 4.632zm-30.032-6.256c-.023.002-.872-.428-.872-.428l-.821 1.318-4.169-2.29-1.384 1.509 5.88 4.349 1.282-1.575-.668-.89.273-.974.479-1.019z" class="B"/><path d="M272.448 280.413l-2.58 25.543.86 22.456h-8.886l-.477-1.674 6.091-.794-3.249-19.883-2.93-24.726 11.171-.922z" class="C"/><path d="M231.058 249.001c2.583 2.364 11.807 8.886 15.201 9.858l7.105 2.036 7.843.831 12.712 13.372-12.761 8.193-9.721-16.954-8.281-3.522c-3.405-1.448-11.799-8.803-14.107-11.65l2.009-2.164z" class="G"/><path d="M251.595 251.639c-.547-.071-1.098-.112-1.65-.124-.396-.009-.933.138-.898.525.017.19.183.331.337.451.512.399 1.062.813 1.712.892a1.84 1.84 0 0 0 1.507-.521c.346-.35.589-.875.402-1.32-.464.137-.927.16-1.41.097z" class="B"/><use xlink:href="#D" class="C"/><path d="M257.08 259.877c2.504-.674 4.211-4.292 4.015-6.858-.212-2.765-2.675-4.84-5.498-4.632-.171.012-.329.058-.494.086-.114.409-.153.842-.082 1.198.279 1.391 1.325 2.665 2.638 3.262 0 0-.009 6.135-.579 6.944z" class="G"/><path d="M258.35 253.495c.426-.002.842.159 1.183.408 1.1.801.429 2.493-.703 2.9-.365.133-.761.166-1.151.149-.337-.014-.691-.074-.951-.284-.251-.204-.38-.527-.399-.847s.067-.635.181-.935c.26-.682 1.071-1.387 1.84-1.391z" class="B"/><path d="M301.245 292.448l-16.335.727-11.385-18.177-12.614 8.012 21.524 16.467 18.139-4.071 1.758 4.504 1.422-.596-2.509-6.866z" class="E"/><path d="M265.378 250.602c0 1.647-1.363 2.982-3.046 2.982s-3.045-1.335-3.045-2.982 1.363-2.982 3.045-2.982 3.046 1.336 3.046 2.982z" class="G"/><path d="M61.247 397.833H80.21V146.522H61.247v251.311zm-2.437 2.386h23.837V144.136H58.81v256.083z" class="C"/><path d="M55.547 408.968h30.363v-21.304H55.547v21.304z" class="E"/><g class="C"><path d="M59.899 302.395h21.116c.484 0 .922-.281 1.117-.716s.106-.94-.223-1.288l-20.305-21.472-1.787 1.62 18.409 19.47H59.899v2.386z"/><use xlink:href="#D" y="-66.127"/><path d="M59.899 346.479h21.116a1.22 1.22 0 0 0 1.117-.716c.194-.434.106-.94-.223-1.288l-20.305-21.472-1.787 1.622 18.409 19.468H59.899v2.386z"/><use xlink:href="#D" y="-22.042"/><path d="M59.899 280.881h21.116a1.22 1.22 0 0 0 1.117-.715c.194-.435.106-.941-.223-1.288l-20.305-21.472-1.787 1.62 18.409 19.469H59.899v2.386z"/><path d="M59.899 259.368h21.116c.484 0 .922-.281 1.117-.716s.106-.94-.223-1.287l-20.305-21.473-1.787 1.62 18.409 19.47H59.899v2.386z"/><path d="M59.899 237.855h21.116a1.22 1.22 0 0 0 1.117-.716c.194-.434.106-.94-.223-1.287L61.604 214.38 59.817 216l18.409 19.469H59.899v2.386z"/><path d="M59.899 216.341h21.116a1.22 1.22 0 0 0 1.117-.715c.194-.435.106-.94-.223-1.287l-20.305-21.473-1.787 1.62 18.409 19.47H59.899v2.385z"/><path d="M59.899 194.828h21.116a1.22 1.22 0 0 0 1.117-.715c.194-.435.106-.94-.223-1.288l-20.305-21.472-1.787 1.62 18.409 19.469H59.899v2.386z"/><path d="M59.899 173.315h21.116a1.22 1.22 0 0 0 1.117-.716c.194-.434.106-.94-.223-1.287L61.604 149.84l-1.787 1.62 18.409 19.469H59.899v2.386z"/></g><path d="M59.899 151.802h21.116a1.22 1.22 0 0 0 1.117-.716c.194-.434.106-.94-.223-1.287l-20.305-21.473-1.787 1.62 18.409 19.47H59.899v2.386z" fill="#0089c7"/><path d="M58.851 152.23h38.642v-31.9H58.851v31.9zM.781 138.653h38.642V120.33H.781v18.323z" class="E"/><path d="M1.422 122.661h190.861c.673 0 1.219-.535 1.219-1.193s-.546-1.193-1.219-1.193H1.422c-.672 0-1.218.534-1.218 1.193s.546 1.193 1.218 1.193z" class="C"/><path d="M182.198 204.575h1.219v-77.54h-1.219v77.54z" class="E"/><path d="M45.191 414.534h51.075v-9.374H45.191v9.374zM78.03 122.348c.156 0 .312-.058.431-.174l10.176-9.965h93.302l9.567 9.369a.62.62 0 0 0 .862 0 .59.59 0 0 0 0-.845l-9.925-9.717h-94.31L77.598 121.33a.59.59 0 0 0 0 .844c.119.116.275.174.431.174zm-77.421 0a.61.61 0 0 0 .54-.319l10.185-19.051h24.699l9.577 18.448a.62.62 0 0 0 .819.261.59.59 0 0 0 .268-.802l-9.917-19.1H10.596L.07 121.475a.59.59 0 0 0 .257.805c.09.047.186.068.281.068z" class="C"/><path d="M178.341 127.035c0 2.416 2 4.375 4.467 4.375s4.466-1.959 4.466-4.375-2-4.374-4.466-4.374-4.467 1.958-4.467 4.374z" class="E"/><g class="C"><path d="M156.396 112.2a.61.61 0 0 0 .583-.422c.098-.315-.083-.649-.405-.745L66.383 84.104c-.138-.039-.285-.033-.415.021l-42.746 17.666a.59.59 0 0 0-.325.781c.131.304.488.446.798.317l42.544-17.581 89.981 26.865c.059.018.119.026.177.026z"/><path d="M80.394 122.428a1.22 1.22 0 0 0 .433-.079c.63-.234.945-.922.707-1.539L67.331 84.219c-.191-.496-.692-.809-1.238-.765a1.21 1.21 0 0 0-1.095.953l-7.341 35.688c-.133.645.295 1.275.954 1.405s1.302-.289 1.435-.934l6.508-31.636 12.702 32.729a1.22 1.22 0 0 0 1.139.769z"/></g><path d="M63.738 84.643c0 1.328 1.099 2.404 2.455 2.404s2.455-1.076 2.455-2.404-1.099-2.404-2.455-2.404-2.455 1.076-2.455 2.404z" class="E"/><g class="C"><path d="M169.238 122.462a.62.62 0 0 0 .383-.132l11.962-9.469v8.853c0 .329.273.596.609.596s.609-.267.609-.596v-10.102c0-.23-.135-.439-.346-.538a.62.62 0 0 0-.646.074l-12.955 10.253a.59.59 0 0 0-.09.839.61.61 0 0 0 .474.222z"/><use xlink:href="#E"/><path d="M146.102 122.462c.134 0 .269-.043.382-.132l11.964-9.469v8.853c0 .329.271.596.609.596s.609-.267.609-.596v-10.102c0-.23-.135-.439-.347-.538a.62.62 0 0 0-.646.074l-12.955 10.253c-.262.208-.302.584-.09.839.119.147.296.222.474.222z"/><path d="M134.534 122.462a.62.62 0 0 0 .383-.132l11.962-9.469v8.853c0 .329.273.596.609.596s.609-.267.609-.596v-10.102c0-.23-.135-.439-.346-.538s-.461-.071-.645.074l-12.955 10.253c-.262.208-.303.584-.091.839a.61.61 0 0 0 .474.222z"/><path d="M122.966 122.462a.62.62 0 0 0 .383-.132l11.963-9.469v8.853c0 .329.272.596.609.596s.609-.267.609-.596v-10.102c0-.23-.135-.439-.347-.538a.62.62 0 0 0-.646.074l-12.955 10.253a.59.59 0 0 0-.09.839.61.61 0 0 0 .474.222z"/><use xlink:href="#E" x="-46.272"/><path d="M99.831 122.462c.134 0 .269-.043.382-.132l11.963-9.469v8.853c0 .329.272.596.61.596s.609-.267.609-.596v-10.102c0-.23-.136-.439-.348-.538s-.461-.071-.645.074l-12.955 10.253c-.262.208-.302.584-.09.839.119.147.296.222.474.222z"/><path d="M88.262 122.462a.62.62 0 0 0 .383-.132l11.963-9.469v8.853c0 .329.272.596.609.596s.609-.267.609-.596v-10.102c0-.23-.135-.439-.347-.538s-.463-.071-.645.074l-12.955 10.253c-.262.208-.302.584-.09.839.119.147.296.222.474.222zm-68.387 0a.61.61 0 0 0 .465-.211l15.536-17.955v17.418c0 .329.273.597.609.597s.609-.268.609-.597V102.67a.6.6 0 0 0-.398-.56.62.62 0 0 0-.675.174l-16.61 19.196c-.218.251-.185.628.071.84a.61.61 0 0 0 .393.142z"/><path d="M7.926 122.462a.61.61 0 0 0 .508-.267l11.839-17.541v17.06c0 .329.272.597.609.597s.609-.268.609-.597V102.67a.6.6 0 0 0-.434-.571c-.261-.074-.536.023-.684.242L7.418 121.536a.59.59 0 0 0 .173.827c.104.067.219.099.335.099z"/></g><path d="M178.972 206.166c0 2.074 1.718 3.755 3.835 3.755s3.836-1.681 3.836-3.755-1.718-3.755-3.836-3.755-3.835 1.68-3.835 3.755z" class="E"/><path d="M495.474 301.486l-.978-13.225 1.51-9.734 5.13-28.685-2.478-.347-5.662 25.302-8.85.693-9.204-25.648-2.478.346 6.727 27.382 2.359 10.467-.276 12.756 14.2.693z" class="D"/><g class="B"><path d="M483.101 268.196c0 2.48 2.052 5.909 4.585 5.909s4.585-3.429 4.585-5.909-2.052-4.49-4.585-4.49-4.585 2.01-4.585 4.49z"/><path d="M489.617 268.809c.256-.314.663-.535 1.07-.48a.8.8 0 0 1 .269.086c.224.125.349.375.396.623.126.685-.278 1.398-.879 1.772-.17.107-.358.19-.559.214s-.414-.02-.57-.147c-.573-.465-.095-1.617.273-2.068z"/></g><g class="F"><path d="M489.613 268.559c.104.049.224.096.33.054s.164-.153.234-.242c.276-.352.88-.352 1.2-.04s.354.846.132 1.232-.658.627-1.106.691c-.295 1.03-.416 2.106-.358 3.174l2.188.157c.142.011.298.017.41-.068.105-.081.143-.218.171-.346a16.97 16.97 0 0 0 .405-3.731c-.002-1.222-.151-2.488-.794-3.534-.771-1.251-3.933-3.311-5.476-2.157-1.698 1.273 1.487 4.257 2.664 4.81z"/><path d="M485.745 266.73c-.693 1.027-1.692 1.908-2.909 2.22-.351-1.332-.046-2.814.804-3.908.479-.616 2.209-2.119 3.13-1.766.953.366-.555 2.758-1.025 3.454z"/></g><path d="M494.956 292.105l-13.537-.62-10.415 45.676-4.832-2.881 5.882 6.995 13.868-37.648-.211 17.075 9.402 12.199.601 4.403.249 1.872 1.676-.195.304-6.71-7.277-11.589 5.135-19.184-.845-9.393z" class="C"/><g class="B"><path d="M495.812 262.217l2.931 1.007 2.394-13.382-2.478-.348-2.847 12.723zm-17.069-1.785l-3.436 1.328-2.842-11.572 2.478-.347 3.8 10.591z"/><path d="M490.227 275.014l-2.541 4.418-1.279-4.119 3.82-.299zm-18.871-26.559c0 1.149.951 2.079 2.125 2.079s2.123-.93 2.123-2.079-.95-2.079-2.123-2.079-2.125.93-2.125 2.079zm26.663.389c0 1.148.95 2.079 2.123 2.079s2.124-.931 2.124-2.079-.951-2.08-2.124-2.08-2.123.931-2.123 2.08z"/></g><path d="M342.002 162.579h-64.003c-2.2 0-3.999-1.788-3.999-3.973v-2.812c0-2.185 1.799-3.973 3.999-3.973h64.003c2.2 0 3.998 1.788 3.998 3.973v2.812c0 2.185-1.798 3.973-3.998 3.973z" class="D"/><g class="H"><path d="M17.382 468.276l-.049 3.579 146.179 1.904 31.667-15.69.048-3.579-177.845 13.786z"/><path d="M163.512 473.759l-146.179-1.904L49 456.167l146.18 1.903-31.668 15.689z"/></g><path d="M163.56 470.179l-146.178-1.903 31.666-15.689 146.18 1.904-31.668 15.688z" class="D"/><path d="M129.607 456.394l-80.321-1.047 2.395-1.187 80.32 1.047-2.394 1.187zm-5.986 2.964l-80.322-1.045 2.395-1.187 80.322 1.046-2.395 1.186zm-5.747 2.847l-80.322-1.045 2.395-1.187 80.322 1.047-2.395 1.185zm-5.508 2.73l-80.321-1.046 2.395-1.187 80.322 1.046-2.396 1.187zm51.086 2.977l-51.95-.675 24.183-11.983 51.952.677-24.185 11.981z" class="G"/><g class="I"><path d="M42.23 503.235l-.049 3.579 146.178 1.904 31.667-15.689.049-3.579L42.23 503.235z"/><path d="M188.359 508.718l-146.178-1.904 31.666-15.689 146.18 1.904-31.668 15.689z"/></g><path d="M188.408 505.138L42.23 503.234l31.666-15.688 146.18 1.904-31.668 15.688z" class="D"/><path d="M154.455 491.352l-80.322-1.045 2.394-1.187 80.322 1.046-2.394 1.186zm-5.987 2.965l-80.321-1.045 2.395-1.187 80.32 1.047-2.394 1.185zm-5.747 2.848L62.4 496.12l2.395-1.187 80.321 1.046-2.395 1.186zm-5.507 2.729l-80.321-1.046 2.395-1.187 80.32 1.046-2.394 1.187zm51.086 2.977l-51.952-.675 24.185-11.983 51.952.677-24.185 11.981z" class="G"/><path d="M271.877 191.155h91.37v-9.543h-91.37v9.543zm0 48.448h91.37v-40.097h-91.37v40.097z" class="K"/><path d="M251.415 450.588l4.204 6.441 4.089 12.344 12.384 19.483-1.893.506-14.75-16.151-7.2-13.632 3.166-8.991z" fill="#e7f8fc"/><path d="M225.928 459.287l-15.747 25.704 2.046.715 19.014-23.772-5.313-2.647z" class="I"/><g class="B"><path d="M219.126 453.914c2.753.454 6.192 3.326 5.74 6.092s-4.626 4.382-7.379 3.927-4.618-3.067-4.165-5.833 3.051-4.641 5.804-4.186z"/><path d="M215.572 462.725a15.44 15.44 0 0 0-.504 1.557c-.099.378-.08.931.305.989.191.029.367-.098.519-.216.51-.398 1.042-.829 1.27-1.435.191-.513.131-1.112-.159-1.574-.262-.416-.719-.775-1.198-.702.028.48-.059.93-.233 1.381z"/></g><path d="M224.899 459.408c-.078-2.569-3.219-5.073-5.773-5.495-2.753-.454-5.352 1.42-5.804 4.186-.027.168-.02.329-.031.496.373.207.787.347 1.153.364 1.426.063 2.913-.64 3.801-1.761 0 0 5.996 1.469 6.654 2.21z" class="F"/><path d="M218.955 456.666c.096-.41.35-.772.673-1.04 1.038-.867 2.537.181 2.673 1.367.044.383-.015.773-.122 1.143-.093.32-.232.646-.499.847-.257.194-.603.241-.919.182s-.607-.215-.874-.396c-.607-.413-1.107-1.361-.932-2.103z" class="B"/><g fill="#1e0880"><path d="M224.354 472.901l-9.663 16.868 2.204.17 12.376-12.607 1.695-16.187s0-4.942-2.204-4.601-3.221 3.067-3.221 3.067l-1.187 13.29z"/><path d="M224.622 456.703c9.982-4.965 21.346-6.511 21.346-6.511l5.44 10.689-24.511 4.012-2.275-8.19z"/></g><path d="M245.968 450.191l1.523-.053c4.109-.142 7.515 3.171 7.509 7.304l-8.101 14.728 1.476 21.178h-2.204l-4.809-19.997 4.606-23.16z" class="D"/><path d="M212.862 487.537c0 1.437-1.106 2.602-2.472 2.602s-2.472-1.165-2.472-2.602 1.108-2.603 2.472-2.603 2.472 1.167 2.472 2.603zm5.619 2.606c0 1.436-1.106 2.602-2.472 2.602s-2.472-1.166-2.472-2.602 1.108-2.603 2.472-2.603 2.472 1.165 2.472 2.603z" class="B"/><path d="M248.376 493.348l.405 2.103-10.591.236s.588-1.537.942-1.418 7.039-.921 7.039-.921h2.205zm22.638-3.843l1.04 2.354-9.559.239.235-1.182 6.419-.9 1.865-.511z" class="C"/></g><defs ><path id="B" d="M263.573 350.757h29.967v-1.193h-29.967v1.193z"/><path id="C" d="M388.221 418.992c0 1.149-.95 2.079-2.123 2.079s-2.123-.93-2.123-2.079.95-2.079 2.123-2.079 2.123.93 2.123 2.079z"/><path id="D" d="M59.899 390.563h21.116a1.22 1.22 0 0 0 1.117-.715c.194-.435.106-.94-.223-1.289l-20.305-21.471-1.787 1.621 18.409 19.469H59.899v2.385z"/><path id="E" d="M157.67 122.462a.62.62 0 0 0 .383-.132l11.963-9.469v8.853c0 .329.272.596.609.596s.609-.267.609-.596v-10.102c0-.23-.135-.439-.347-.538a.62.62 0 0 0-.646.074l-12.955 10.253c-.262.208-.302.584-.09.839a.61.61 0 0 0 .474.222z"/></defs></svg>