<svg xmlns="http://www.w3.org/2000/svg" width="517" height="308" fill="none" fill-rule="evenodd" xmlns:v="https://vecta.io/nano"><path d="M328.389 303.903H3.655c-2.018 0-3.655-1.53-3.655-3.416s1.637-3.414 3.655-3.414h324.734c2.018 0 3.655 1.529 3.655 3.414s-1.637 3.416-3.655 3.416m184.046 0H351.379c-2.016 0-3.651-1.53-3.651-3.416s1.635-3.414 3.651-3.414h161.056c2.017 0 3.651 1.529 3.651 3.414s-1.634 3.416-3.651 3.416" fill="#ffca00"/><path d="M367.138 0h-24.499c-16.87 0-30.545 12.157-30.545 27.06 0 11.849 8.648 21.984 20.67 25.611v7.538l7.691-6.087c.721.044 1.448.152 2.184.152h24.499c16.867 0 30.544-12.235 30.544-27.137S384.005 0 367.138 0" fill="#fff"/><path d="M306.907 106.142l9.323-14.285 12.29 4.882v34.389c0 2.689-1.578 5.191-4.177 6.617-5.917 3.248-17.436-.489-17.436-6.617v-24.986z" fill="#ffca00"/><path d="M252.693 291.01l-3.71 6.947h23.343c-.716-2.596-3.465-4.27-6.349-3.866l-2.799.393c-1.951 0-3.274-1.821-2.524-3.474h-7.961zm27.665 0l-3.71 6.947h23.342c-.715-2.596-3.463-4.27-6.349-3.866l-2.797.393c-1.95 0-3.273-1.821-2.525-3.474h-7.961z" fill="#fff"/><path d="M337.25 97.178c2.231-5.116-.39-12.834-7.067-17.051-6.44-4.068-15.106-3.893-21.334.429l-1.027.713c-4.058 2.816-6.562 7.052-6.873 11.629l-.386 14.75-6.624 3.202 5.605 17.288 5.603-6.364 8.95-9.876 7.336 1.948c4.57 1.443 9.598-.662 11.282-4.718l.025-.064 1.404-3.38 3.106-8.505z" fill="#fbefe1"/><path d="M339.018 92.202l.712-.214c.568-9.381-7.355-17.518-18.061-18.547-12.102-1.163-22.674 7.151-22.542 17.77.043 3.528 1.129 12.998 1.129 12.998l11.375-12.348 1.255.374c8.472 2.527 17.668 2.516 26.132-.032" fill="#ffca00"/><path d="M253.292 291.781l-2.983-22.865c-1.213-8.433-.897-24.541.937-32.884l2.114-9.626-3.968-23.847c-1.072-6.443-.025-13.027 3.014-18.948l3.556-9.16h40.426l-.349 1.752c-1.577 7.917-1.351 18.265.667 26.101l6.112 20.639c.803 2.708.839 5.552.107 8.276l-14.107 60.562h-7.939l-.597-22.312c-.533-14.624 6.061-41.313 6.061-41.313l-12.319-27.3-12.793 90.925h-7.939z" fill="#fa7564"/><path d="M277.31 174.451h18.878l-.358 1.752c-1.623 7.917-1.39 18.265.685 26.101l6.285 20.639c.826 2.708.863 5.552.11 8.276l-14.507 60.562h-8.163l-.614-22.313c-.548-14.623 6.232-41.312 6.232-41.312l-12.668-27.3 4.12-26.405z" fill="#fd8778"/><path d="M334.875 124.028l-13.046 24.492-3.034-24.386-10.102-6.654-3.997 4.578-11.19-10.733h-16.418v-.17c-15.275 16-22.572 36.502-21.992 57.579l-.061 5.437h28.473l20.949 15.719 7.759-6.17-13.406-17.914 5.886-13.931 5.817-6.63 8.579 21.713 14.123-2.65 11.731-38.018-10.071-2.262z" fill="#1e389d"/><path d="M345.26 125.821h0c1.574-1.144 2.815-2.64 3.614-4.351l1.126-2.418c.46-1.711-.304-3.505-1.896-4.447l-4.866-2.883 2.039-6.247c.299-.919-.338-1.874-1.351-2.02-.712-.104-1.413.228-1.746.827l-4.011 7.185-.396.588c-.79 1.176-1.393 2.456-1.787 3.795a13.43 13.43 0 0 0-.482 5.157l.263 2.57 9.493 2.244z" fill="#fbefe1"/><path d="M475.815 287.033h-25.872v-44.188h24.395l7.783-63.192c1.592-9.713-3.604-19.359-13.128-24.303-8.449-4.385-19.186-4.385-27.611.038l-13.887 7.119v62.338l-19.439 18h32.435v44.188h-25.844c-3.541 0-6.409 2.475-6.409 5.627s2.868 5.888 6.409 5.888c3.416 0 6.201-3.098 6.391-5.202h17.801c.191 2.104 2.975 5.383 6.391 5.383s6.202-3.279 6.391-5.383h17.803c.191 2.104 2.974 5.161 6.391 5.161 3.54 0 6.41-2.584 6.41-5.737s-2.87-5.737-6.41-5.737" fill="#000"/><g fill="#fff"><path d="M402.618 291.01l3.709 6.947h-23.342c.715-2.596 3.463-4.27 6.348-3.866l2.799.393c1.95 0 3.273-1.821 2.525-3.474h7.961z"/><path d="M381.004 291.01l3.71 6.947h-23.342c.716-2.596 3.463-4.27 6.349-3.866l2.798.393c1.949 0 3.272-1.821 2.524-3.474h7.961z"/></g><path d="M383.947 292.553l13.169-50.36 25.39-11.387h15.41l12.502-16.987-31.4 3.087-33.195 11.354c-3.47 1.187-5.976 3.904-6.593 7.151l-10.078 57.142h14.795z" fill="#1e389d"/><path d="M428.413 217.141l-26.516 12.329c-3.152 1.467-5.255 4.238-5.592 7.373l-5.539 55.71h13.832l12.133-54.8 33.808-6.946c9.005 0 16.305-6.454 16.305-14.414v-2.574l-38.431 3.322z" fill="#212293"/><path d="M427.184 156.191h26.07c6.797 0 13.067 3.287 16.42 8.606l17.054 22.766v35.519h-12.104v-31.113l-8.645-8.297v33.187h-46.683l3.946-42.307-18.722 15.668c-4.079 3.745-11.036 2.805-13.712-1.853l-16.468-28.66 8.215-4.553 14.55 21.259 16.647-15.171c3.546-3.231 8.383-5.051 13.432-5.051" fill="#fa7564"/><path d="M420.395 127.291c-.101-5.581 5.301-12.117 13.117-14.038 7.538-1.853 15.51 1.042 19.622 7.123l.678 1.004c2.68 3.962 3.371 8.791 1.899 13.253l-5.161 13.974-.358 8.286-8.871 2.892-6.008-2.892.341-8.926-6.845-.018c-4.796-.062-8.647-3.651-8.647-8.05v-.069l-.003-5.925.236-6.614z" fill="#fbefe1"/><g fill="#000"><path d="M443 151.215v-15.284h-23l.001 4.554v.073c0 4.577 3.817 8.313 8.571 8.378l6.785.019-.082 2.26H443z"/><path d="M444.012 126.906s-21.759.301-27.012-9.665c0 0 13.029-7.995 26.919-5.153 11.835 2.632 18.453 13.873 14.097 24.016-1.447 3.369-3.938 9.024-6.717 13.197v-12.437l-7.109-1.19-1.131 2.736h-3.338l4.291-11.504z"/></g><g fill="#fbefe1"><path d="M474.624 239.292h0c-.956 0-1.729-.758-1.729-1.692v-7.414l3.458-2.473v9.887c0 .934-.774 1.692-1.729 1.692m3.513.772h0c-.918 0-1.665-.703-1.675-1.575l-.108-10.776h3.349l.109 10.745c.008.884-.743 1.606-1.675 1.606m5.132-.772h0c-.954 0-1.728-.758-1.728-1.692v-9.887h3.458v9.887c0 .934-.774 1.692-1.73 1.692"/><path d="M486.421 234.66h-1.115c-.648 0-1.172-.517-1.172-1.155v-5.792h3.458v5.792c0 .638-.523 1.155-1.171 1.155"/><path d="M487.592 228.723v-3.305l-1.385-2.894-9.569-.214-.153.13c-2.288 1.953-3.316 4.681-3.316 7.565l-.274.024 14.697-1.306z"/></g><g fill="#000"><path d="M512.664 209.187h-62.972-162.669v9.487h10.63l-8.33 88.546h4.027l21.695-88.546h9.292l-7.371 79.059h3.504l19.145-79.059H424.6l21.693 88.546h4.029l-8.329-88.546h7.699 34.119l19.145 79.059h3.504l-7.371-79.059h13.575v-9.487zm-412.058 77.849H74.735v-44.178h32.466l-19.457-17.996v-62.324l-13.901-7.139c-8.434-4.422-19.039-4.445-27.496-.061-9.534 4.943-14.806 14.631-13.213 24.342l7.719 63.178h24.42v44.178H39.375c-3.543 0-6.416 2.474-6.416 5.625s2.873 5.887 6.416 5.887c3.42 0 6.207-3.097 6.397-5.201h17.821c.19 2.104 2.978 5.382 6.397 5.382s6.208-3.278 6.397-5.382h17.822c.189 2.104 2.977 5.16 6.397 5.16 3.543 0 6.416-2.584 6.416-5.735s-2.873-5.736-6.416-5.736m12.035 3.974l-3.71 6.947h23.342c-.715-2.596-3.464-4.27-6.349-3.866l-2.798.393c-1.951 0-3.274-1.821-2.524-3.474h-7.961z"/><path d="M134.254 291.01l-3.711 6.947h23.343c-.716-2.596-3.465-4.27-6.35-3.866l-2.797.393c-1.951 0-3.274-1.821-2.524-3.474h-7.961z"/></g><path d="M131.311 292.553l-13.169-50.36-25.392-11.387h-15.41L64.84 213.819l31.4 3.087 33.196 11.354c3.469 1.187 5.975 3.904 6.593 7.151l10.077 57.142h-14.794z" fill="#1e389d"/><path d="M85.981 217.141l26.515 12.329c3.153 1.467 5.256 4.238 5.592 7.373l5.539 55.71h-13.832l-12.133-54.8-33.81-6.946c-9.004 0-16.303-6.454-16.303-14.414v-2.574l38.431 3.322z" fill="#212293"/><path d="M87.411 156.179H61.014c-6.882 0-13.232 3.248-16.626 8.505l-19.625 25.933c-2.892 3.822-1.2 9.007 3.557 10.904l27.326 10.894 5.23-10.528-17.995-6.918c-1.791-.69-2.385-2.665-1.213-4.042l6.461-7.59v32.797h47.27l-3.996-41.81 18.956 15.484c4.131 3.701 11.175 2.772 13.885-1.831l16.675-28.324-8.319-4.499-14.732 21.009-16.857-14.992c-3.59-3.195-8.488-4.992-13.599-4.992" fill="#fa7564"/><path d="M93.133 127.291c.1-5.581-5.3-12.117-13.117-14.038-7.538-1.853-15.509 1.042-19.622 7.123l-.678 1.004c-2.679 3.962-3.37 8.791-1.898 13.253l5.16 13.974.357 8.286 8.872 2.892 6.008-2.892-.34-8.926 6.846-.018c4.795-.062 8.647-3.651 8.647-8.05v-.069l.002-5.925-.236-6.614z" fill="#fbefe1"/><path d="M96.827 111.704s-13.693-5.675-27.293-2.847c-2.474.558-4.697 1.527-6.651 2.772l-2.802-2.851v5.005c-5.195 4.837-7.17 12.151-4.287 18.974 1.417 3.354 4.287 8.982 6.639 13.134v-12.377l6.898-1.185.144-8.725s12.968.627 21.046-4.42l2.661 4.883s-1.793-9.305 3.645-12.363" fill="#000"/><path d="M65.704 197.609h0c0-.853-.848-1.544-1.894-1.544h-8.304l-2.77 3.087H63.81c1.046 0 1.894-.691 1.894-1.543m.865 3.908h0c0-.82-.787-1.487-1.764-1.495l-12.069-.098v2.991l12.035.097c.989.007 1.797-.663 1.797-1.495m-.864 3.81h0c0-.852-.848-1.543-1.894-1.543H52.736v3.087H63.81c1.046 0 1.894-.691 1.894-1.544" fill="#fbefe1"/><path d="M73.485 211.229v-.996c0-.578-.579-1.046-1.293-1.046h-6.488v3.088h6.488c.714 0 1.293-.468 1.293-1.046" fill="#ff63be"/><path d="M54.731 209.187h-3.7l-3.241-1.237-.24-8.543.146-.137c2.186-2.043 5.241-2.961 8.472-2.961l.027-.244-1.464 13.122z" fill="#fbefe1"/><path d="M227.37 209.187H64.7 1.729v9.487h13.575l-7.372 79.059h3.504l19.144-79.059H64.7h7.701l-8.33 88.546H68.1l21.693-88.546h84.987l19.144 79.059h3.503l-7.371-79.059h9.292l21.694 88.546h4.028l-8.33-88.546h10.63v-9.487z" fill="#000"/><path d="M115.545 197.406h90.186c3.116 0 5.798-1.953 6.415-4.67l10.84-47.795c.817-3.605-2.281-6.972-6.415-6.972h-90.185c-3.115 0-5.799 1.953-6.415 4.669l-10.839 47.796c-.818 3.604 2.279 6.972 6.413 6.972z" fill="#fff"/><path d="M184 172.907h-27.51l11.257 26.199c1.203 2.797-1.083 5.813-4.406 5.813h-17.236v4.268h39.167c7.163 0 12.051-6.548 9.363-12.546L184 172.907z" fill="#b3d2ec"/><path d="M414.242 32.42h-28.798c-18.547 0-33.582 13.054-33.582 29.456v-.085c0 16.403 15.035 29.613 33.582 29.613h28.798c.631 0 1.257-.054 1.88-.084l8.405 6.713v-8.125c13.514-3.842 23.297-15.046 23.297-28.274v.242c0-16.401-15.036-29.456-33.582-29.456" fill="#ffca00"/><path d="M395.459 197.609h-90.186c-3.114 0-5.798-1.954-6.414-4.67l-10.841-47.795c-.816-3.605 2.281-6.972 6.414-6.972h90.188c3.113 0 5.797 1.953 6.413 4.669l10.84 47.796c.818 3.604-2.28 6.972-6.414 6.972z" fill="#000"/><path d="M330.263 172.907h27.197l-11.129 26.199c-1.189 2.797 1.071 5.813 4.356 5.813h15.872v4.268h-37.553c-7.082 0-11.913-6.548-9.257-12.546l10.514-23.734z" fill="#b3d2ec"/></svg>